<ttFont>
<head>
    <!-- Most of this table will be recalculated by the compiler -->
    <tableVersion value="1.0"/>
    <fontRevision value="2.2"/>
    <checkSumAdjustment value="0x8d915936"/>
    <magicNumber value="0x5f0f3cf5"/>
    <flags value="00000000 00000101"/>
    <unitsPerEm value="1000"/>
    <created value="Mon Jun 22 21:17:10 2020"/>
    <modified value="Mon Jun 22 22:22:27 2020"/>
    <xMin value="-217"/>
    <yMin value="-384"/>
    <xMax value="1433"/>
    <yMax value="1134"/>
    <macStyle value="00000000 00000010"/>
    <lowestRecPPEM value="9"/>
    <fontDirectionHint value="2"/>
    <indexToLocFormat value="0"/>
    <glyphDataFormat value="0"/>
  </head>
    <TTGlyph name=".notdef" xMin="0" yMin="-200" xMax="500" yMax="800">
      <contour>
        <pt x="0" y="-200" on="1"/>
        <pt x="0" y="800" on="1"/>
        <pt x="500" y="800" on="1"/>
        <pt x="500" y="-200" on="1"/>
      </contour>
      <contour>
        <pt x="250" y="360" on="1"/>
        <pt x="429" y="750" on="1"/>
        <pt x="71" y="750" on="1"/>
      </contour>
      <contour>
        <pt x="50" y="-76" on="1"/>
        <pt x="222" y="300" on="1"/>
        <pt x="50" y="676" on="1"/>
      </contour>
      <contour>
        <pt x="450" y="-76" on="1"/>
        <pt x="450" y="676" on="1"/>
        <pt x="278" y="300" on="1"/>
      </contour>
      <contour>
        <pt x="71" y="-150" on="1"/>
        <pt x="429" y="-150" on="1"/>
        <pt x="250" y="240" on="1"/>
      </contour>
    </TTGlyph>
    <TTGlyph name="A" xMin="-51" yMin="0" xMax="673" yMax="662">
      <contour>
        <pt x="-51" y="0" on="1"/>
        <pt x="-27" y="96" on="1"/>
        <pt x="37" y="96" on="1"/>
        <pt x="363" y="662" on="1"/>
        <pt x="538" y="662" on="1"/>
        <pt x="594" y="96" on="1"/>
        <pt x="673" y="96" on="1"/>
        <pt x="649" y="0" on="1"/>
        <pt x="318" y="0" on="1"/>
        <pt x="342" y="96" on="1"/>
        <pt x="415" y="96" on="1"/>
        <pt x="408" y="201" on="1"/>
        <pt x="206" y="201" on="1"/>
        <pt x="148" y="96" on="1"/>
        <pt x="233" y="96" on="1"/>
        <pt x="209" y="0" on="1"/>
      </contour>
      <contour>
        <pt x="254" y="289" on="1"/>
        <pt x="403" y="289" on="1"/>
        <pt x="389" y="526" on="1"/>
        <pt x="385" y="526" on="1"/>
      </contour>
    </TTGlyph>
    <TTGlyph name="AE" xMin="-73" yMin="0" xMax="1112" yMax="658">
      <contour>
        <pt x="-73" y="0" on="1"/>
        <pt x="-49" y="96" on="1"/>
        <pt x="11" y="96" on="1"/>
        <pt x="435" y="562" on="1"/>
        <pt x="347" y="562" on="1"/>
        <pt x="371" y="658" on="1"/>
        <pt x="1112" y="658" on="1"/>
        <pt x="1051" y="415" on="1"/>
        <pt x="958" y="415" on="1"/>
        <pt x="961" y="463" on="0"/>
        <pt x="957" y="522" on="0"/>
        <pt x="937" y="554" on="0"/>
        <pt x="897" y="565" on="0"/>
        <pt x="865" y="565" on="1"/>
        <pt x="735" y="565" on="1"/>
        <pt x="688" y="378" on="1"/>
        <pt x="714" y="378" on="1"/>
        <pt x="750" y="378" on="0"/>
        <pt x="778" y="409" on="0"/>
        <pt x="801" y="466" on="1"/>
        <pt x="890" y="466" on="1"/>
        <pt x="823" y="197" on="1"/>
        <pt x="736" y="197" on="1"/>
        <pt x="744" y="254" on="0"/>
        <pt x="730" y="285" on="0"/>
        <pt x="695" y="285" on="1"/>
        <pt x="665" y="285" on="1"/>
        <pt x="617" y="93" on="1"/>
        <pt x="740" y="93" on="1"/>
        <pt x="780" y="93" on="0"/>
        <pt x="832" y="109" on="0"/>
        <pt x="869" y="149" on="0"/>
        <pt x="901" y="218" on="0"/>
        <pt x="922" y="271" on="1"/>
        <pt x="1026" y="271" on="1"/>
        <pt x="958" y="0" on="1"/>
        <pt x="335" y="0" on="1"/>
        <pt x="359" y="96" on="1"/>
        <pt x="438" y="96" on="1"/>
        <pt x="467" y="211" on="1"/>
        <pt x="241" y="211" on="1"/>
        <pt x="139" y="94" on="1"/>
        <pt x="215" y="94" on="1"/>
        <pt x="191" y="0" on="1"/>
      </contour>
      <contour>
        <pt x="317" y="299" on="1"/>
        <pt x="489" y="299" on="1"/>
        <pt x="554" y="558" on="1"/>
        <pt x="543" y="558" on="1"/>
      </contour>
    </TTGlyph>
    <TTGlyph name="AEacute" xMin="-73" yMin="0" xMax="1112" yMax="948">
      <component glyphName="AE" x="0" y="0" flags="0x204"/>
      <component glyphName="acute" x="526" y="188" flags="0x4"/>
    </TTGlyph>
    <TTGlyph name="Aacute" xMin="-51" yMin="0" xMax="673" yMax="948">
      <component glyphName="A" x="0" y="0" flags="0x204"/>
      <component glyphName="acute" x="291" y="188" flags="0x4"/>
    </TTGlyph>
    <TTGlyph name="Abreve" xMin="-51" yMin="0" xMax="673" yMax="913">
      <component glyphName="A" x="0" y="0" flags="0x204"/>
      <component glyphName="breve" x="195" y="188" flags="0x4"/>
    </TTGlyph>
    <TTGlyph name="Acircumflex" xMin="-51" yMin="0" xMax="673" yMax="927">
      <component glyphName="A" x="0" y="0" flags="0x204"/>
      <component glyphName="circumflex" x="193" y="188" flags="0x4"/>
    </TTGlyph>
    <TTGlyph name="Adieresis" xMin="-51" yMin="0" xMax="673" yMax="885">
      <component glyphName="A" x="0" y="0" flags="0x204"/>
      <component glyphName="dieresis" x="182" y="188" flags="0x4"/>
    </TTGlyph>
    <TTGlyph name="Agrave" xMin="-51" yMin="0" xMax="673" yMax="949">
      <component glyphName="A" x="0" y="0" flags="0x204"/>
      <component glyphName="grave" x="176" y="188" flags="0x4"/>
    </TTGlyph>
    <TTGlyph name="Amacron" xMin="-51" yMin="0" xMax="673" yMax="831">
      <component glyphName="A" x="0" y="0" flags="0x204"/>
      <component glyphName="macron" x="198" y="188" flags="0x4"/>
    </TTGlyph>
    <TTGlyph name="Aogonek" xMin="-51" yMin="-253" xMax="673" yMax="662">
      <contour>
        <pt x="-51" y="0" on="1"/>
        <pt x="-27" y="96" on="1"/>
        <pt x="37" y="96" on="1"/>
        <pt x="363" y="662" on="1"/>
        <pt x="538" y="662" on="1"/>
        <pt x="594" y="96" on="1"/>
        <pt x="673" y="96" on="1"/>
        <pt x="649" y="0" on="1"/>
        <pt x="577" y="0" on="1"/>
        <pt x="560" y="-12" on="1"/>
        <pt x="506" y="-50" on="0"/>
        <pt x="461" y="-103" on="0"/>
        <pt x="461" y="-128" on="1"/>
        <pt x="461" y="-144" on="0"/>
        <pt x="484" y="-173" on="0"/>
        <pt x="511" y="-173" on="1"/>
        <pt x="525" y="-173" on="0"/>
        <pt x="554" y="-166" on="0"/>
        <pt x="571" y="-156" on="1"/>
        <pt x="591" y="-215" on="1"/>
        <pt x="566" y="-231" on="0"/>
        <pt x="501" y="-253" on="0"/>
        <pt x="464" y="-253" on="1"/>
        <pt x="439" y="-253" on="0"/>
        <pt x="391" y="-242" on="0"/>
        <pt x="354" y="-218" on="0"/>
        <pt x="332" y="-180" on="0"/>
        <pt x="332" y="-153" on="1"/>
        <pt x="332" y="-104" on="0"/>
        <pt x="414" y="-31" on="0"/>
        <pt x="474" y="0" on="1"/>
        <pt x="318" y="0" on="1"/>
        <pt x="342" y="96" on="1"/>
        <pt x="415" y="96" on="1"/>
        <pt x="408" y="201" on="1"/>
        <pt x="206" y="201" on="1"/>
        <pt x="148" y="96" on="1"/>
        <pt x="233" y="96" on="1"/>
        <pt x="209" y="0" on="1"/>
      </contour>
      <contour>
        <pt x="254" y="289" on="1"/>
        <pt x="403" y="289" on="1"/>
        <pt x="389" y="526" on="1"/>
        <pt x="385" y="526" on="1"/>
      </contour>
    </TTGlyph>
    <TTGlyph name="Aring" xMin="-51" yMin="0" xMax="673" yMax="867">
      <contour>
        <pt x="-51" y="0" on="1"/>
        <pt x="-27" y="96" on="1"/>
        <pt x="37" y="96" on="1"/>
        <pt x="361" y="658" on="1"/>
        <pt x="346" y="673" on="0"/>
        <pt x="330" y="713" on="0"/>
        <pt x="330" y="735" on="1"/>
        <pt x="330" y="786" on="0"/>
        <pt x="408" y="867" on="0"/>
        <pt x="474" y="867" on="1"/>
        <pt x="534" y="867" on="0"/>
        <pt x="603" y="801" on="0"/>
        <pt x="603" y="755" on="1"/>
        <pt x="603" y="721" on="0"/>
        <pt x="570" y="662" on="0"/>
        <pt x="540" y="644" on="1"/>
        <pt x="594" y="96" on="1"/>
        <pt x="673" y="96" on="1"/>
        <pt x="649" y="0" on="1"/>
        <pt x="318" y="0" on="1"/>
        <pt x="342" y="96" on="1"/>
        <pt x="415" y="96" on="1"/>
        <pt x="408" y="201" on="1"/>
        <pt x="206" y="201" on="1"/>
        <pt x="148" y="96" on="1"/>
        <pt x="233" y="96" on="1"/>
        <pt x="209" y="0" on="1"/>
      </contour>
      <contour>
        <pt x="460" y="680" on="1"/>
        <pt x="482" y="680" on="0"/>
        <pt x="516" y="723" on="0"/>
        <pt x="516" y="760" on="1"/>
        <pt x="516" y="778" on="0"/>
        <pt x="497" y="810" on="0"/>
        <pt x="473" y="810" on="1"/>
        <pt x="451" y="810" on="0"/>
        <pt x="417" y="767" on="0"/>
        <pt x="417" y="730" on="1"/>
        <pt x="417" y="712" on="0"/>
        <pt x="436" y="680" on="0"/>
      </contour>
      <contour>
        <pt x="254" y="289" on="1"/>
        <pt x="403" y="289" on="1"/>
        <pt x="389" y="526" on="1"/>
        <pt x="385" y="526" on="1"/>
      </contour>
    </TTGlyph>
    <TTGlyph name="Aringacute" xMin="-51" yMin="0" xMax="710" yMax="1134">
      <component glyphName="Aring" x="0" y="0" flags="0x204"/>
      <component glyphName="acute" x="346" y="374" flags="0x4"/>
    </TTGlyph>
    <TTGlyph name="Atilde" xMin="-51" yMin="0" xMax="701" yMax="899">
      <component glyphName="A" x="0" y="0" flags="0x204"/>
      <component glyphName="tilde" x="173" y="188" flags="0x4"/>
    </TTGlyph>
    <TTGlyph name="B" xMin="-32" yMin="0" xMax="689" yMax="658">
      <contour>
        <pt x="-32" y="0" on="1"/>
        <pt x="-8" y="96" on="1"/>
        <pt x="71" y="96" on="1"/>
        <pt x="187" y="562" on="1"/>
        <pt x="108" y="562" on="1"/>
        <pt x="132" y="658" on="1"/>
        <pt x="455" y="658" on="1"/>
        <pt x="524" y="658" on="0"/>
        <pt x="615" y="635" on="0"/>
        <pt x="668" y="598" on="0"/>
        <pt x="689" y="549" on="0"/>
        <pt x="689" y="524" on="1"/>
        <pt x="689" y="463" on="0"/>
        <pt x="588" y="361" on="0"/>
        <pt x="472" y="347" on="1"/>
        <pt x="470" y="340" on="1"/>
        <pt x="553" y="328" on="0"/>
        <pt x="632" y="257" on="0"/>
        <pt x="632" y="204" on="1"/>
        <pt x="632" y="170" on="0"/>
        <pt x="609" y="107" on="0"/>
        <pt x="584" y="82" on="1"/>
        <pt x="547" y="45" on="0"/>
        <pt x="410" y="0" on="0"/>
        <pt x="306" y="0" on="1"/>
      </contour>
      <contour>
        <pt x="322" y="388" on="1"/>
        <pt x="375" y="388" on="1"/>
        <pt x="441" y="388" on="0"/>
        <pt x="507" y="447" on="0"/>
        <pt x="507" y="493" on="1"/>
        <pt x="507" y="527" on="0"/>
        <pt x="466" y="562" on="0"/>
        <pt x="412" y="562" on="1"/>
        <pt x="366" y="562" on="1"/>
      </contour>
      <contour>
        <pt x="249" y="96" on="1"/>
        <pt x="305" y="96" on="1"/>
        <pt x="377" y="96" on="0"/>
        <pt x="454" y="156" on="0"/>
        <pt x="454" y="215" on="1"/>
        <pt x="454" y="252" on="0"/>
        <pt x="405" y="292" on="0"/>
        <pt x="342" y="292" on="1"/>
        <pt x="298" y="292" on="1"/>
      </contour>
    </TTGlyph>
    <TTGlyph name="C" xMin="55" yMin="-16" xMax="749" yMax="674">
      <contour>
        <pt x="348" y="-16" on="1"/>
        <pt x="282" y="-16" on="0"/>
        <pt x="174" y="23" on="0"/>
        <pt x="97" y="96" on="0"/>
        <pt x="55" y="201" on="0"/>
        <pt x="55" y="267" on="1"/>
        <pt x="55" y="329" on="0"/>
        <pt x="99" y="472" on="0"/>
        <pt x="187" y="593" on="0"/>
        <pt x="323" y="674" on="0"/>
        <pt x="415" y="674" on="1"/>
        <pt x="477" y="674" on="0"/>
        <pt x="571" y="630" on="0"/>
        <pt x="599" y="588" on="1"/>
        <pt x="648" y="672" on="1"/>
        <pt x="749" y="672" on="1"/>
        <pt x="684" y="408" on="1"/>
        <pt x="573" y="408" on="1"/>
        <pt x="569" y="501" on="0"/>
        <pt x="489" y="585" on="0"/>
        <pt x="436" y="585" on="1"/>
        <pt x="381" y="585" on="0"/>
        <pt x="306" y="503" on="0"/>
        <pt x="260" y="392" on="0"/>
        <pt x="241" y="278" on="0"/>
        <pt x="241" y="246" on="1"/>
        <pt x="241" y="196" on="0"/>
        <pt x="268" y="134" on="0"/>
        <pt x="307" y="100" on="0"/>
        <pt x="354" y="88" on="0"/>
        <pt x="373" y="88" on="1"/>
        <pt x="445" y="88" on="0"/>
        <pt x="528" y="179" on="0"/>
        <pt x="561" y="260" on="1"/>
        <pt x="652" y="233" on="1"/>
        <pt x="634" y="180" on="0"/>
        <pt x="581" y="88" on="0"/>
        <pt x="508" y="22" on="0"/>
        <pt x="411" y="-16" on="0"/>
      </contour>
    </TTGlyph>
    <TTGlyph name="Cacute" xMin="55" yMin="-16" xMax="749" yMax="948">
      <component glyphName="C" x="0" y="0" flags="0x204"/>
      <component glyphName="acute" x="272" y="188" flags="0x4"/>
    </TTGlyph>
    <TTGlyph name="Ccaron" xMin="55" yMin="-16" xMax="749" yMax="927">
      <component glyphName="C" x="0" y="0" flags="0x204"/>
      <component glyphName="caron" x="199" y="188" flags="0x4"/>
    </TTGlyph>
    <TTGlyph name="Ccedilla" xMin="55" yMin="-252" xMax="749" yMax="674">
      <contour>
        <pt x="260" y="-252" on="1"/>
        <pt x="225" y="-252" on="0"/>
        <pt x="144" y="-230" on="0"/>
        <pt x="113" y="-211" on="1"/>
        <pt x="150" y="-157" on="1"/>
        <pt x="167" y="-167" on="0"/>
        <pt x="219" y="-184" on="0"/>
        <pt x="246" y="-184" on="1"/>
        <pt x="266" y="-184" on="0"/>
        <pt x="289" y="-170" on="0"/>
        <pt x="289" y="-157" on="1"/>
        <pt x="289" y="-141" on="0"/>
        <pt x="243" y="-123" on="0"/>
        <pt x="197" y="-126" on="1"/>
        <pt x="181" y="-79" on="1"/>
        <pt x="280" y="-10" on="1"/>
        <pt x="178" y="8" on="0"/>
        <pt x="55" y="154" on="0"/>
        <pt x="55" y="267" on="1"/>
        <pt x="55" y="329" on="0"/>
        <pt x="99" y="472" on="0"/>
        <pt x="187" y="593" on="0"/>
        <pt x="323" y="674" on="0"/>
        <pt x="415" y="674" on="1"/>
        <pt x="477" y="674" on="0"/>
        <pt x="571" y="630" on="0"/>
        <pt x="599" y="588" on="1"/>
        <pt x="648" y="672" on="1"/>
        <pt x="749" y="672" on="1"/>
        <pt x="684" y="408" on="1"/>
        <pt x="573" y="408" on="1"/>
        <pt x="569" y="501" on="0"/>
        <pt x="489" y="585" on="0"/>
        <pt x="436" y="585" on="1"/>
        <pt x="381" y="585" on="0"/>
        <pt x="306" y="503" on="0"/>
        <pt x="260" y="392" on="0"/>
        <pt x="241" y="278" on="0"/>
        <pt x="241" y="246" on="1"/>
        <pt x="241" y="196" on="0"/>
        <pt x="268" y="134" on="0"/>
        <pt x="307" y="100" on="0"/>
        <pt x="354" y="88" on="0"/>
        <pt x="373" y="88" on="1"/>
        <pt x="445" y="88" on="0"/>
        <pt x="528" y="179" on="0"/>
        <pt x="561" y="260" on="1"/>
        <pt x="652" y="233" on="1"/>
        <pt x="634" y="181" on="0"/>
        <pt x="584" y="92" on="0"/>
        <pt x="514" y="26" on="0"/>
        <pt x="422" y="-13" on="0"/>
        <pt x="363" y="-16" on="1"/>
        <pt x="313" y="-56" on="1"/>
        <pt x="314" y="-60" on="1"/>
        <pt x="363" y="-70" on="0"/>
        <pt x="412" y="-116" on="0"/>
        <pt x="412" y="-147" on="1"/>
        <pt x="412" y="-194" on="0"/>
        <pt x="327" y="-252" on="0"/>
      </contour>
    </TTGlyph>
    <TTGlyph name="Cdotaccent" xMin="55" yMin="-16" xMax="749" yMax="892">
      <component glyphName="C" x="0" y="0" flags="0x204"/>
      <component glyphName="dotaccent" x="259" y="188" flags="0x4"/>
    </TTGlyph>
    <TTGlyph name="D" xMin="-32" yMin="0" xMax="742" yMax="658">
      <contour>
        <pt x="-32" y="0" on="1"/>
        <pt x="-8" y="96" on="1"/>
        <pt x="71" y="96" on="1"/>
        <pt x="187" y="562" on="1"/>
        <pt x="108" y="562" on="1"/>
        <pt x="132" y="658" on="1"/>
        <pt x="397" y="658" on="1"/>
        <pt x="484" y="658" on="0"/>
        <pt x="614" y="619" on="0"/>
        <pt x="700" y="548" on="0"/>
        <pt x="742" y="450" on="0"/>
        <pt x="742" y="391" on="1"/>
        <pt x="742" y="315" on="0"/>
        <pt x="689" y="172" on="0"/>
        <pt x="633" y="116" on="1"/>
        <pt x="577" y="60" on="0"/>
        <pt x="410" y="0" on="0"/>
        <pt x="287" y="0" on="1"/>
      </contour>
      <contour>
        <pt x="250" y="93" on="1"/>
        <pt x="302" y="93" on="1"/>
        <pt x="356" y="93" on="0"/>
        <pt x="428" y="120" on="0"/>
        <pt x="463" y="155" on="1"/>
        <pt x="482" y="174" on="0"/>
        <pt x="516" y="236" on="0"/>
        <pt x="541" y="308" on="0"/>
        <pt x="555" y="387" on="0"/>
        <pt x="555" y="423" on="1"/>
        <pt x="555" y="496" on="0"/>
        <pt x="483" y="565" on="0"/>
        <pt x="405" y="565" on="1"/>
        <pt x="368" y="565" on="1"/>
      </contour>
    </TTGlyph>
    <TTGlyph name="Dcaron" xMin="-32" yMin="0" xMax="742" yMax="927">
      <component glyphName="D" x="0" y="0" flags="0x204"/>
      <component glyphName="caron" x="235" y="188" flags="0x4"/>
    </TTGlyph>
    <TTGlyph name="Dcroat" xMin="-32" yMin="0" xMax="742" yMax="658">
      <component glyphName="Eth" x="0" y="0" flags="0x204"/>
    </TTGlyph>
    <TTGlyph name="E" xMin="-32" yMin="0" xMax="745" yMax="658">
      <contour>
        <pt x="-32" y="0" on="1"/>
        <pt x="-8" y="96" on="1"/>
        <pt x="71" y="96" on="1"/>
        <pt x="187" y="562" on="1"/>
        <pt x="108" y="562" on="1"/>
        <pt x="132" y="658" on="1"/>
        <pt x="745" y="658" on="1"/>
        <pt x="684" y="415" on="1"/>
        <pt x="591" y="415" on="1"/>
        <pt x="594" y="463" on="0"/>
        <pt x="590" y="522" on="0"/>
        <pt x="570" y="554" on="0"/>
        <pt x="530" y="565" on="0"/>
        <pt x="498" y="565" on="1"/>
        <pt x="368" y="565" on="1"/>
        <pt x="321" y="378" on="1"/>
        <pt x="347" y="378" on="1"/>
        <pt x="383" y="378" on="0"/>
        <pt x="411" y="409" on="0"/>
        <pt x="434" y="466" on="1"/>
        <pt x="523" y="466" on="1"/>
        <pt x="456" y="197" on="1"/>
        <pt x="369" y="197" on="1"/>
        <pt x="377" y="254" on="0"/>
        <pt x="363" y="285" on="0"/>
        <pt x="328" y="285" on="1"/>
        <pt x="298" y="285" on="1"/>
        <pt x="250" y="93" on="1"/>
        <pt x="373" y="93" on="1"/>
        <pt x="413" y="93" on="0"/>
        <pt x="465" y="109" on="0"/>
        <pt x="502" y="149" on="0"/>
        <pt x="534" y="218" on="0"/>
        <pt x="555" y="271" on="1"/>
        <pt x="659" y="271" on="1"/>
        <pt x="591" y="0" on="1"/>
      </contour>
    </TTGlyph>
    <TTGlyph name="Eacute" xMin="-32" yMin="0" xMax="745" yMax="948">
      <component glyphName="E" x="0" y="0" flags="0x204"/>
      <component glyphName="acute" x="301" y="188" flags="0x4"/>
    </TTGlyph>
    <TTGlyph name="Ebreve" xMin="-32" yMin="0" xMax="745" yMax="913">
      <component glyphName="E" x="0" y="0" flags="0x204"/>
      <component glyphName="breve" x="205" y="188" flags="0x4"/>
    </TTGlyph>
    <TTGlyph name="Ecaron" xMin="-32" yMin="0" xMax="745" yMax="927">
      <component glyphName="E" x="0" y="0" flags="0x204"/>
      <component glyphName="caron" x="228" y="188" flags="0x4"/>
    </TTGlyph>
    <TTGlyph name="Ecircumflex" xMin="-32" yMin="0" xMax="745" yMax="927">
      <component glyphName="E" x="0" y="0" flags="0x204"/>
      <component glyphName="circumflex" x="203" y="188" flags="0x4"/>
    </TTGlyph>
    <TTGlyph name="Edieresis" xMin="-32" yMin="0" xMax="745" yMax="885">
      <component glyphName="E" x="0" y="0" flags="0x204"/>
      <component glyphName="dieresis" x="192" y="188" flags="0x4"/>
    </TTGlyph>
    <TTGlyph name="Edotaccent" xMin="-32" yMin="0" xMax="745" yMax="892">
      <component glyphName="E" x="0" y="0" flags="0x204"/>
      <component glyphName="dotaccent" x="288" y="188" flags="0x4"/>
    </TTGlyph>
    <TTGlyph name="Egrave" xMin="-32" yMin="0" xMax="745" yMax="949">
      <component glyphName="E" x="0" y="0" flags="0x204"/>
      <component glyphName="grave" x="186" y="188" flags="0x4"/>
    </TTGlyph>
    <TTGlyph name="Emacron" xMin="-32" yMin="0" xMax="745" yMax="831">
      <component glyphName="E" x="0" y="0" flags="0x204"/>
      <component glyphName="macron" x="208" y="188" flags="0x4"/>
    </TTGlyph>
    <TTGlyph name="Eogonek" xMin="-32" yMin="-253" xMax="745" yMax="658">
      <contour>
        <pt x="-32" y="0" on="1"/>
        <pt x="-8" y="96" on="1"/>
        <pt x="71" y="96" on="1"/>
        <pt x="187" y="562" on="1"/>
        <pt x="108" y="562" on="1"/>
        <pt x="132" y="658" on="1"/>
        <pt x="745" y="658" on="1"/>
        <pt x="684" y="415" on="1"/>
        <pt x="591" y="415" on="1"/>
        <pt x="594" y="463" on="0"/>
        <pt x="590" y="522" on="0"/>
        <pt x="570" y="554" on="0"/>
        <pt x="530" y="565" on="0"/>
        <pt x="498" y="565" on="1"/>
        <pt x="368" y="565" on="1"/>
        <pt x="321" y="378" on="1"/>
        <pt x="347" y="378" on="1"/>
        <pt x="383" y="378" on="0"/>
        <pt x="411" y="409" on="0"/>
        <pt x="434" y="466" on="1"/>
        <pt x="523" y="466" on="1"/>
        <pt x="456" y="197" on="1"/>
        <pt x="369" y="197" on="1"/>
        <pt x="377" y="254" on="0"/>
        <pt x="363" y="285" on="0"/>
        <pt x="328" y="285" on="1"/>
        <pt x="298" y="285" on="1"/>
        <pt x="250" y="93" on="1"/>
        <pt x="373" y="93" on="1"/>
        <pt x="413" y="93" on="0"/>
        <pt x="465" y="109" on="0"/>
        <pt x="502" y="149" on="0"/>
        <pt x="534" y="218" on="0"/>
        <pt x="555" y="271" on="1"/>
        <pt x="659" y="271" on="1"/>
        <pt x="591" y="0" on="1"/>
        <pt x="537" y="0" on="1"/>
        <pt x="520" y="-12" on="1"/>
        <pt x="466" y="-50" on="0"/>
        <pt x="421" y="-103" on="0"/>
        <pt x="421" y="-128" on="1"/>
        <pt x="421" y="-144" on="0"/>
        <pt x="444" y="-173" on="0"/>
        <pt x="471" y="-173" on="1"/>
        <pt x="485" y="-173" on="0"/>
        <pt x="514" y="-166" on="0"/>
        <pt x="531" y="-156" on="1"/>
        <pt x="551" y="-215" on="1"/>
        <pt x="526" y="-231" on="0"/>
        <pt x="461" y="-253" on="0"/>
        <pt x="424" y="-253" on="1"/>
        <pt x="399" y="-253" on="0"/>
        <pt x="351" y="-242" on="0"/>
        <pt x="314" y="-218" on="0"/>
        <pt x="292" y="-180" on="0"/>
        <pt x="292" y="-153" on="1"/>
        <pt x="292" y="-104" on="0"/>
        <pt x="374" y="-31" on="0"/>
        <pt x="434" y="0" on="1"/>
      </contour>
    </TTGlyph>
    <TTGlyph name="Eth" xMin="-32" yMin="0" xMax="742" yMax="658">
      <contour>
        <pt x="-32" y="0" on="1"/>
        <pt x="-8" y="96" on="1"/>
        <pt x="71" y="96" on="1"/>
        <pt x="121" y="295" on="1"/>
        <pt x="42" y="295" on="1"/>
        <pt x="65" y="391" on="1"/>
        <pt x="144" y="391" on="1"/>
        <pt x="187" y="562" on="1"/>
        <pt x="108" y="562" on="1"/>
        <pt x="132" y="658" on="1"/>
        <pt x="397" y="658" on="1"/>
        <pt x="484" y="658" on="0"/>
        <pt x="614" y="619" on="0"/>
        <pt x="700" y="548" on="0"/>
        <pt x="742" y="450" on="0"/>
        <pt x="742" y="391" on="1"/>
        <pt x="742" y="315" on="0"/>
        <pt x="689" y="172" on="0"/>
        <pt x="633" y="116" on="1"/>
        <pt x="577" y="60" on="0"/>
        <pt x="410" y="0" on="0"/>
        <pt x="287" y="0" on="1"/>
      </contour>
      <contour>
        <pt x="250" y="93" on="1"/>
        <pt x="302" y="93" on="1"/>
        <pt x="356" y="93" on="0"/>
        <pt x="428" y="120" on="0"/>
        <pt x="463" y="155" on="1"/>
        <pt x="482" y="174" on="0"/>
        <pt x="516" y="236" on="0"/>
        <pt x="541" y="308" on="0"/>
        <pt x="555" y="387" on="0"/>
        <pt x="555" y="423" on="1"/>
        <pt x="555" y="496" on="0"/>
        <pt x="483" y="565" on="0"/>
        <pt x="405" y="565" on="1"/>
        <pt x="368" y="565" on="1"/>
        <pt x="325" y="391" on="1"/>
        <pt x="429" y="391" on="1"/>
        <pt x="406" y="295" on="1"/>
        <pt x="301" y="295" on="1"/>
      </contour>
    </TTGlyph>
    <TTGlyph name="Euro" xMin="15" yMin="-16" xMax="683" yMax="650">
      <contour>
        <pt x="15" y="188" on="1"/>
        <pt x="36" y="275" on="1"/>
        <pt x="113" y="275" on="1"/>
        <pt x="114" y="291" on="0"/>
        <pt x="117" y="322" on="0"/>
        <pt x="120" y="337" on="1"/>
        <pt x="51" y="337" on="1"/>
        <pt x="73" y="424" on="1"/>
        <pt x="145" y="424" on="1"/>
        <pt x="164" y="473" on="0"/>
        <pt x="227" y="556" on="0"/>
        <pt x="308" y="616" on="0"/>
        <pt x="410" y="650" on="0"/>
        <pt x="468" y="650" on="1"/>
        <pt x="521" y="650" on="0"/>
        <pt x="602" y="621" on="0"/>
        <pt x="656" y="574" on="0"/>
        <pt x="683" y="514" on="0"/>
        <pt x="683" y="484" on="1"/>
        <pt x="683" y="434" on="0"/>
        <pt x="629" y="373" on="0"/>
        <pt x="591" y="373" on="1"/>
        <pt x="555" y="373" on="0"/>
        <pt x="513" y="417" on="0"/>
        <pt x="513" y="449" on="1"/>
        <pt x="513" y="482" on="0"/>
        <pt x="544" y="523" on="0"/>
        <pt x="560" y="530" on="1"/>
        <pt x="556" y="540" on="0"/>
        <pt x="514" y="565" on="0"/>
        <pt x="481" y="565" on="1"/>
        <pt x="414" y="565" on="0"/>
        <pt x="334" y="479" on="0"/>
        <pt x="315" y="422" on="1"/>
        <pt x="466" y="422" on="1"/>
        <pt x="444" y="337" on="1"/>
        <pt x="294" y="337" on="1"/>
        <pt x="292" y="321" on="0"/>
        <pt x="289" y="289" on="0"/>
        <pt x="288" y="275" on="1"/>
        <pt x="429" y="275" on="1"/>
        <pt x="408" y="190" on="1"/>
        <pt x="294" y="190" on="1"/>
        <pt x="307" y="127" on="0"/>
        <pt x="375" y="85" on="0"/>
        <pt x="408" y="85" on="1"/>
        <pt x="448" y="85" on="0"/>
        <pt x="527" y="142" on="0"/>
        <pt x="566" y="215" on="1"/>
        <pt x="639" y="168" on="1"/>
        <pt x="597" y="85" on="0"/>
        <pt x="467" y="-16" on="0"/>
        <pt x="376" y="-16" on="1"/>
        <pt x="277" y="-16" on="0"/>
        <pt x="138" y="86" on="0"/>
        <pt x="119" y="188" on="1"/>
      </contour>
    </TTGlyph>
    <TTGlyph name="Euro.osf" xMin="8" yMin="-16" xMax="664" yMax="578">
      <contour>
        <pt x="8" y="163" on="1"/>
        <pt x="28" y="243" on="1"/>
        <pt x="105" y="243" on="1"/>
        <pt x="106" y="256" on="0"/>
        <pt x="109" y="284" on="0"/>
        <pt x="112" y="297" on="1"/>
        <pt x="41" y="297" on="1"/>
        <pt x="61" y="377" on="1"/>
        <pt x="137" y="377" on="1"/>
        <pt x="175" y="463" on="0"/>
        <pt x="336" y="578" on="0"/>
        <pt x="448" y="578" on="1"/>
        <pt x="501" y="578" on="0"/>
        <pt x="583" y="550" on="0"/>
        <pt x="637" y="505" on="0"/>
        <pt x="664" y="448" on="0"/>
        <pt x="664" y="419" on="1"/>
        <pt x="664" y="369" on="0"/>
        <pt x="609" y="310" on="0"/>
        <pt x="569" y="310" on="1"/>
        <pt x="532" y="310" on="0"/>
        <pt x="490" y="351" on="0"/>
        <pt x="490" y="382" on="1"/>
        <pt x="490" y="417" on="0"/>
        <pt x="525" y="460" on="0"/>
        <pt x="544" y="468" on="1"/>
        <pt x="539" y="475" on="0"/>
        <pt x="499" y="497" on="0"/>
        <pt x="462" y="497" on="1"/>
        <pt x="400" y="497" on="0"/>
        <pt x="324" y="424" on="0"/>
        <pt x="304" y="375" on="1"/>
        <pt x="448" y="375" on="1"/>
        <pt x="428" y="297" on="1"/>
        <pt x="282" y="297" on="1"/>
        <pt x="280" y="283" on="0"/>
        <pt x="277" y="255" on="0"/>
        <pt x="276" y="243" on="1"/>
        <pt x="415" y="243" on="1"/>
        <pt x="395" y="165" on="1"/>
        <pt x="282" y="165" on="1"/>
        <pt x="295" y="114" on="0"/>
        <pt x="363" y="81" on="0"/>
        <pt x="394" y="81" on="1"/>
        <pt x="438" y="81" on="0"/>
        <pt x="520" y="138" on="0"/>
        <pt x="559" y="207" on="1"/>
        <pt x="632" y="160" on="1"/>
        <pt x="592" y="83" on="0"/>
        <pt x="457" y="-16" on="0"/>
        <pt x="360" y="-16" on="1"/>
        <pt x="266" y="-16" on="0"/>
        <pt x="130" y="75" on="0"/>
        <pt x="111" y="163" on="1"/>
      </contour>
    </TTGlyph>
    <TTGlyph name="Euro.tab" xMin="-6" yMin="-16" xMax="579" yMax="650">
      <contour>
        <pt x="-6" y="195" on="1"/>
        <pt x="13" y="273" on="1"/>
        <pt x="74" y="273" on="1"/>
        <pt x="75" y="289" on="0"/>
        <pt x="78" y="320" on="0"/>
        <pt x="81" y="335" on="1"/>
        <pt x="28" y="335" on="1"/>
        <pt x="47" y="413" on="1"/>
        <pt x="101" y="413" on="1"/>
        <pt x="119" y="464" on="0"/>
        <pt x="175" y="551" on="0"/>
        <pt x="248" y="614" on="0"/>
        <pt x="339" y="650" on="0"/>
        <pt x="391" y="650" on="1"/>
        <pt x="438" y="650" on="0"/>
        <pt x="509" y="621" on="0"/>
        <pt x="556" y="575" on="0"/>
        <pt x="579" y="515" on="0"/>
        <pt x="579" y="484" on="1"/>
        <pt x="579" y="433" on="0"/>
        <pt x="526" y="378" on="0"/>
        <pt x="492" y="378" on="1"/>
        <pt x="459" y="378" on="0"/>
        <pt x="419" y="418" on="0"/>
        <pt x="419" y="449" on="1"/>
        <pt x="419" y="481" on="0"/>
        <pt x="452" y="522" on="0"/>
        <pt x="469" y="530" on="1"/>
        <pt x="465" y="540" on="0"/>
        <pt x="430" y="565" on="0"/>
        <pt x="402" y="565" on="1"/>
        <pt x="374" y="565" on="0"/>
        <pt x="328" y="540" on="0"/>
        <pt x="292" y="498" on="0"/>
        <pt x="266" y="442" on="0"/>
        <pt x="257" y="411" on="1"/>
        <pt x="391" y="411" on="1"/>
        <pt x="372" y="335" on="1"/>
        <pt x="239" y="335" on="1"/>
        <pt x="237" y="319" on="0"/>
        <pt x="233" y="287" on="0"/>
        <pt x="232" y="273" on="1"/>
        <pt x="357" y="273" on="1"/>
        <pt x="338" y="197" on="1"/>
        <pt x="233" y="197" on="1"/>
        <pt x="239" y="126" on="0"/>
        <pt x="294" y="85" on="0"/>
        <pt x="322" y="85" on="1"/>
        <pt x="354" y="85" on="0"/>
        <pt x="421" y="132" on="0"/>
        <pt x="455" y="189" on="1"/>
        <pt x="525" y="143" on="1"/>
        <pt x="488" y="71" on="0"/>
        <pt x="372" y="-16" on="0"/>
        <pt x="294" y="-16" on="1"/>
        <pt x="203" y="-16" on="0"/>
        <pt x="87" y="89" on="0"/>
        <pt x="76" y="195" on="1"/>
      </contour>
    </TTGlyph>
    <TTGlyph name="F" xMin="-32" yMin="0" xMax="732" yMax="658">
      <contour>
        <pt x="-32" y="0" on="1"/>
        <pt x="-8" y="96" on="1"/>
        <pt x="71" y="96" on="1"/>
        <pt x="187" y="562" on="1"/>
        <pt x="108" y="562" on="1"/>
        <pt x="132" y="658" on="1"/>
        <pt x="732" y="658" on="1"/>
        <pt x="670" y="410" on="1"/>
        <pt x="575" y="410" on="1"/>
        <pt x="576" y="461" on="0"/>
        <pt x="569" y="523" on="0"/>
        <pt x="545" y="555" on="0"/>
        <pt x="503" y="565" on="0"/>
        <pt x="471" y="565" on="1"/>
        <pt x="366" y="565" on="1"/>
        <pt x="316" y="366" on="1"/>
        <pt x="341" y="366" on="1"/>
        <pt x="377" y="366" on="0"/>
        <pt x="405" y="397" on="0"/>
        <pt x="428" y="454" on="1"/>
        <pt x="517" y="454" on="1"/>
        <pt x="449" y="182" on="1"/>
        <pt x="362" y="182" on="1"/>
        <pt x="370" y="239" on="0"/>
        <pt x="357" y="273" on="0"/>
        <pt x="322" y="273" on="1"/>
        <pt x="293" y="273" on="1"/>
        <pt x="249" y="96" on="1"/>
        <pt x="351" y="96" on="1"/>
        <pt x="327" y="0" on="1"/>
      </contour>
    </TTGlyph>
    <TTGlyph name="G" xMin="55" yMin="-16" xMax="757" yMax="674">
      <contour>
        <pt x="305" y="-16" on="1"/>
        <pt x="191" y="-16" on="0"/>
        <pt x="55" y="132" on="0"/>
        <pt x="55" y="256" on="1"/>
        <pt x="55" y="330" on="0"/>
        <pt x="103" y="480" on="0"/>
        <pt x="196" y="599" on="0"/>
        <pt x="336" y="674" on="0"/>
        <pt x="426" y="674" on="1"/>
        <pt x="497" y="674" on="0"/>
        <pt x="579" y="625" on="0"/>
        <pt x="605" y="588" on="1"/>
        <pt x="654" y="672" on="1"/>
        <pt x="755" y="672" on="1"/>
        <pt x="692" y="418" on="1"/>
        <pt x="563" y="418" on="1"/>
        <pt x="560" y="496" on="0"/>
        <pt x="499" y="585" on="0"/>
        <pt x="444" y="585" on="1"/>
        <pt x="394" y="585" on="0"/>
        <pt x="318" y="516" on="0"/>
        <pt x="267" y="412" on="0"/>
        <pt x="241" y="288" on="0"/>
        <pt x="241" y="235" on="1"/>
        <pt x="241" y="186" on="0"/>
        <pt x="260" y="126" on="0"/>
        <pt x="290" y="94" on="0"/>
        <pt x="328" y="83" on="0"/>
        <pt x="346" y="83" on="1"/>
        <pt x="404" y="83" on="0"/>
        <pt x="467" y="171" on="0"/>
        <pt x="485" y="234" on="1"/>
        <pt x="489" y="249" on="1"/>
        <pt x="382" y="249" on="1"/>
        <pt x="405" y="345" on="1"/>
        <pt x="757" y="345" on="1"/>
        <pt x="734" y="249" on="1"/>
        <pt x="665" y="249" on="1"/>
        <pt x="597" y="-8" on="1"/>
        <pt x="502" y="-8" on="1"/>
        <pt x="489" y="82" on="1"/>
        <pt x="465" y="46" on="0"/>
        <pt x="380" y="-16" on="0"/>
      </contour>
    </TTGlyph>
    <TTGlyph name="Gbreve" xMin="55" yMin="-16" xMax="757" yMax="913">
      <component glyphName="G" x="0" y="0" flags="0x204"/>
      <component glyphName="breve" x="192" y="188" flags="0x4"/>
    </TTGlyph>
    <TTGlyph name="Gdotaccent" xMin="55" yMin="-16" xMax="757" yMax="892">
      <component glyphName="G" x="0" y="0" flags="0x204"/>
      <component glyphName="dotaccent" x="275" y="188" flags="0x4"/>
    </TTGlyph>
    <TTGlyph name="H" xMin="-32" yMin="0" xMax="874" yMax="658">
      <contour>
        <pt x="-32" y="0" on="1"/>
        <pt x="-8" y="96" on="1"/>
        <pt x="71" y="96" on="1"/>
        <pt x="187" y="562" on="1"/>
        <pt x="108" y="562" on="1"/>
        <pt x="132" y="658" on="1"/>
        <pt x="473" y="658" on="1"/>
        <pt x="449" y="562" on="1"/>
        <pt x="367" y="562" on="1"/>
        <pt x="324" y="389" on="1"/>
        <pt x="549" y="389" on="1"/>
        <pt x="592" y="562" on="1"/>
        <pt x="510" y="562" on="1"/>
        <pt x="534" y="658" on="1"/>
        <pt x="874" y="658" on="1"/>
        <pt x="850" y="562" on="1"/>
        <pt x="771" y="562" on="1"/>
        <pt x="655" y="96" on="1"/>
        <pt x="734" y="96" on="1"/>
        <pt x="710" y="0" on="1"/>
        <pt x="370" y="0" on="1"/>
        <pt x="394" y="96" on="1"/>
        <pt x="476" y="96" on="1"/>
        <pt x="525" y="293" on="1"/>
        <pt x="300" y="293" on="1"/>
        <pt x="251" y="96" on="1"/>
        <pt x="333" y="96" on="1"/>
        <pt x="309" y="0" on="1"/>
      </contour>
    </TTGlyph>
    <TTGlyph name="Hbar" xMin="-32" yMin="0" xMax="874" yMax="658">
      <contour>
        <pt x="-32" y="0" on="1"/>
        <pt x="-8" y="96" on="1"/>
        <pt x="71" y="96" on="1"/>
        <pt x="152" y="422" on="1"/>
        <pt x="72" y="422" on="1"/>
        <pt x="94" y="510" on="1"/>
        <pt x="174" y="510" on="1"/>
        <pt x="187" y="562" on="1"/>
        <pt x="108" y="562" on="1"/>
        <pt x="132" y="658" on="1"/>
        <pt x="473" y="658" on="1"/>
        <pt x="449" y="562" on="1"/>
        <pt x="367" y="562" on="1"/>
        <pt x="352" y="500" on="1"/>
        <pt x="577" y="500" on="1"/>
        <pt x="592" y="562" on="1"/>
        <pt x="510" y="562" on="1"/>
        <pt x="534" y="658" on="1"/>
        <pt x="874" y="658" on="1"/>
        <pt x="850" y="562" on="1"/>
        <pt x="771" y="562" on="1"/>
        <pt x="758" y="510" on="1"/>
        <pt x="838" y="510" on="1"/>
        <pt x="816" y="422" on="1"/>
        <pt x="736" y="422" on="1"/>
        <pt x="655" y="96" on="1"/>
        <pt x="734" y="96" on="1"/>
        <pt x="710" y="0" on="1"/>
        <pt x="370" y="0" on="1"/>
        <pt x="394" y="96" on="1"/>
        <pt x="476" y="96" on="1"/>
        <pt x="520" y="274" on="1"/>
        <pt x="295" y="274" on="1"/>
        <pt x="251" y="96" on="1"/>
        <pt x="333" y="96" on="1"/>
        <pt x="309" y="0" on="1"/>
      </contour>
      <contour>
        <pt x="319" y="370" on="1"/>
        <pt x="544" y="370" on="1"/>
        <pt x="560" y="432" on="1"/>
        <pt x="335" y="432" on="1"/>
      </contour>
    </TTGlyph>
    <TTGlyph name="I" xMin="-32" yMin="0" xMax="470" yMax="658">
      <contour>
        <pt x="-32" y="0" on="1"/>
        <pt x="-8" y="96" on="1"/>
        <pt x="71" y="96" on="1"/>
        <pt x="187" y="562" on="1"/>
        <pt x="108" y="562" on="1"/>
        <pt x="132" y="658" on="1"/>
        <pt x="470" y="658" on="1"/>
        <pt x="446" y="562" on="1"/>
        <pt x="367" y="562" on="1"/>
        <pt x="251" y="96" on="1"/>
        <pt x="330" y="96" on="1"/>
        <pt x="306" y="0" on="1"/>
      </contour>
    </TTGlyph>
    <TTGlyph name="Iacute" xMin="-32" yMin="0" xMax="509" yMax="948">
      <component glyphName="I" x="0" y="0" flags="0x204"/>
      <component glyphName="acute" x="145" y="188" flags="0x4"/>
    </TTGlyph>
    <TTGlyph name="Ibreve" xMin="-32" yMin="0" xMax="519" yMax="913">
      <component glyphName="I" x="0" y="0" flags="0x204"/>
      <component glyphName="breve" x="49" y="188" flags="0x4"/>
    </TTGlyph>
    <TTGlyph name="Icircumflex" xMin="-32" yMin="0" xMax="484" yMax="927">
      <component glyphName="I" x="0" y="0" flags="0x204"/>
      <component glyphName="circumflex" x="47" y="188" flags="0x4"/>
    </TTGlyph>
    <TTGlyph name="Idieresis" xMin="-32" yMin="0" xMax="518" yMax="885">
      <component glyphName="I" x="0" y="0" flags="0x204"/>
      <component glyphName="dieresis" x="36" y="188" flags="0x4"/>
    </TTGlyph>
    <TTGlyph name="Idotaccent" xMin="-32" yMin="0" xMax="470" yMax="892">
      <component glyphName="I" x="0" y="0" flags="0x204"/>
      <component glyphName="dotaccent" x="132" y="188" flags="0x4"/>
    </TTGlyph>
    <TTGlyph name="Igrave" xMin="-32" yMin="0" xMax="470" yMax="949">
      <component glyphName="I" x="0" y="0" flags="0x204"/>
      <component glyphName="grave" x="30" y="188" flags="0x4"/>
    </TTGlyph>
    <TTGlyph name="Imacron" xMin="-32" yMin="0" xMax="503" yMax="831">
      <component glyphName="I" x="0" y="0" flags="0x204"/>
      <component glyphName="macron" x="52" y="188" flags="0x4"/>
    </TTGlyph>
    <TTGlyph name="Iogonek" xMin="-33" yMin="-253" xMax="470" yMax="658">
      <contour>
        <pt x="-32" y="0" on="1"/>
        <pt x="-8" y="96" on="1"/>
        <pt x="71" y="96" on="1"/>
        <pt x="187" y="562" on="1"/>
        <pt x="108" y="562" on="1"/>
        <pt x="132" y="658" on="1"/>
        <pt x="470" y="658" on="1"/>
        <pt x="446" y="562" on="1"/>
        <pt x="367" y="562" on="1"/>
        <pt x="251" y="96" on="1"/>
        <pt x="330" y="96" on="1"/>
        <pt x="306" y="0" on="1"/>
        <pt x="212" y="0" on="1"/>
        <pt x="195" y="-12" on="1"/>
        <pt x="141" y="-50" on="0"/>
        <pt x="96" y="-103" on="0"/>
        <pt x="96" y="-128" on="1"/>
        <pt x="96" y="-144" on="0"/>
        <pt x="119" y="-173" on="0"/>
        <pt x="146" y="-173" on="1"/>
        <pt x="160" y="-173" on="0"/>
        <pt x="189" y="-166" on="0"/>
        <pt x="206" y="-156" on="1"/>
        <pt x="226" y="-215" on="1"/>
        <pt x="201" y="-231" on="0"/>
        <pt x="136" y="-253" on="0"/>
        <pt x="99" y="-253" on="1"/>
        <pt x="74" y="-253" on="0"/>
        <pt x="26" y="-242" on="0"/>
        <pt x="-11" y="-218" on="0"/>
        <pt x="-33" y="-180" on="0"/>
        <pt x="-33" y="-153" on="1"/>
        <pt x="-33" y="-104" on="0"/>
        <pt x="49" y="-31" on="0"/>
        <pt x="109" y="0" on="1"/>
      </contour>
    </TTGlyph>
    <TTGlyph name="J" xMin="-10" yMin="-16" xMax="680" yMax="658">
      <contour>
        <pt x="224" y="-16" on="1"/>
        <pt x="111" y="-16" on="0"/>
        <pt x="-10" y="82" on="0"/>
        <pt x="-10" y="154" on="1"/>
        <pt x="-10" y="209" on="0"/>
        <pt x="51" y="279" on="0"/>
        <pt x="100" y="279" on="1"/>
        <pt x="137" y="279" on="0"/>
        <pt x="188" y="234" on="0"/>
        <pt x="188" y="196" on="1"/>
        <pt x="188" y="162" on="0"/>
        <pt x="151" y="113" on="0"/>
        <pt x="120" y="102" on="1"/>
        <pt x="130" y="87" on="0"/>
        <pt x="166" y="71" on="0"/>
        <pt x="191" y="71" on="1"/>
        <pt x="231" y="71" on="0"/>
        <pt x="290" y="126" on="0"/>
        <pt x="307" y="195" on="1"/>
        <pt x="400" y="562" on="1"/>
        <pt x="311" y="562" on="1"/>
        <pt x="335" y="658" on="1"/>
        <pt x="680" y="658" on="1"/>
        <pt x="656" y="562" on="1"/>
        <pt x="580" y="562" on="1"/>
        <pt x="496" y="227" on="1"/>
        <pt x="469" y="120" on="0"/>
        <pt x="346" y="-16" on="0"/>
      </contour>
    </TTGlyph>
    <TTGlyph name="K" xMin="-32" yMin="0" xMax="816" yMax="658">
      <contour>
        <pt x="-32" y="0" on="1"/>
        <pt x="-8" y="96" on="1"/>
        <pt x="71" y="96" on="1"/>
        <pt x="187" y="562" on="1"/>
        <pt x="108" y="562" on="1"/>
        <pt x="132" y="658" on="1"/>
        <pt x="467" y="658" on="1"/>
        <pt x="443" y="564" on="1"/>
        <pt x="367" y="564" on="1"/>
        <pt x="311" y="339" on="1"/>
        <pt x="581" y="564" on="1"/>
        <pt x="509" y="564" on="1"/>
        <pt x="533" y="658" on="1"/>
        <pt x="816" y="658" on="1"/>
        <pt x="792" y="562" on="1"/>
        <pt x="719" y="562" on="1"/>
        <pt x="509" y="396" on="1"/>
        <pt x="646" y="96" on="1"/>
        <pt x="719" y="96" on="1"/>
        <pt x="695" y="0" on="1"/>
        <pt x="363" y="0" on="1"/>
        <pt x="387" y="94" on="1"/>
        <pt x="447" y="94" on="1"/>
        <pt x="367" y="283" on="1"/>
        <pt x="280" y="214" on="1"/>
        <pt x="251" y="94" on="1"/>
        <pt x="322" y="94" on="1"/>
        <pt x="298" y="0" on="1"/>
      </contour>
    </TTGlyph>
    <TTGlyph name="L" xMin="-32" yMin="0" xMax="607" yMax="658">
      <contour>
        <pt x="-32" y="0" on="1"/>
        <pt x="-8" y="96" on="1"/>
        <pt x="71" y="96" on="1"/>
        <pt x="187" y="562" on="1"/>
        <pt x="108" y="562" on="1"/>
        <pt x="132" y="658" on="1"/>
        <pt x="485" y="658" on="1"/>
        <pt x="461" y="565" on="1"/>
        <pt x="367" y="565" on="1"/>
        <pt x="250" y="93" on="1"/>
        <pt x="333" y="93" on="1"/>
        <pt x="373" y="93" on="0"/>
        <pt x="424" y="109" on="0"/>
        <pt x="460" y="152" on="0"/>
        <pt x="493" y="226" on="0"/>
        <pt x="515" y="283" on="1"/>
        <pt x="607" y="283" on="1"/>
        <pt x="536" y="0" on="1"/>
      </contour>
    </TTGlyph>
    <TTGlyph name="Lacute" xMin="-32" yMin="0" xMax="607" yMax="948">
      <component glyphName="L" x="0" y="0" flags="0x204"/>
      <component glyphName="acute" x="145" y="188" flags="0x4"/>
    </TTGlyph>
    <TTGlyph name="Lcaron" xMin="-32" yMin="0" xMax="693" yMax="761">
      <component glyphName="L" x="0" y="0" flags="0x204"/>
      <component glyphName="caron.alt" x="375" y="-34" flags="0x4"/>
    </TTGlyph>
    <TTGlyph name="Ldot" xMin="-32" yMin="0" xMax="608" yMax="658">
      <contour>
        <pt x="-32" y="0" on="1"/>
        <pt x="-8" y="96" on="1"/>
        <pt x="71" y="96" on="1"/>
        <pt x="187" y="562" on="1"/>
        <pt x="108" y="562" on="1"/>
        <pt x="132" y="658" on="1"/>
        <pt x="485" y="658" on="1"/>
        <pt x="461" y="565" on="1"/>
        <pt x="367" y="565" on="1"/>
        <pt x="250" y="93" on="1"/>
        <pt x="333" y="93" on="1"/>
        <pt x="373" y="93" on="0"/>
        <pt x="424" y="108" on="0"/>
        <pt x="460" y="145" on="0"/>
        <pt x="489" y="207" on="0"/>
        <pt x="507" y="253" on="1"/>
        <pt x="599" y="253" on="1"/>
        <pt x="536" y="0" on="1"/>
      </contour>
      <contour>
        <pt x="511" y="313" on="1"/>
        <pt x="475" y="313" on="0"/>
        <pt x="430" y="355" on="0"/>
        <pt x="430" y="388" on="1"/>
        <pt x="430" y="420" on="0"/>
        <pt x="480" y="479" on="0"/>
        <pt x="527" y="479" on="1"/>
        <pt x="563" y="479" on="0"/>
        <pt x="608" y="437" on="0"/>
        <pt x="608" y="404" on="1"/>
        <pt x="608" y="372" on="0"/>
        <pt x="558" y="313" on="0"/>
      </contour>
    </TTGlyph>
    <TTGlyph name="Lslash" xMin="-27" yMin="0" xMax="612" yMax="658">
      <contour>
        <pt x="-27" y="0" on="1"/>
        <pt x="-3" y="96" on="1"/>
        <pt x="76" y="96" on="1"/>
        <pt x="111" y="236" on="1"/>
        <pt x="24" y="208" on="1"/>
        <pt x="47" y="302" on="1"/>
        <pt x="134" y="330" on="1"/>
        <pt x="192" y="562" on="1"/>
        <pt x="113" y="562" on="1"/>
        <pt x="137" y="658" on="1"/>
        <pt x="490" y="658" on="1"/>
        <pt x="466" y="565" on="1"/>
        <pt x="372" y="565" on="1"/>
        <pt x="329" y="392" on="1"/>
        <pt x="513" y="450" on="1"/>
        <pt x="490" y="357" on="1"/>
        <pt x="306" y="298" on="1"/>
        <pt x="255" y="93" on="1"/>
        <pt x="338" y="93" on="1"/>
        <pt x="378" y="93" on="0"/>
        <pt x="429" y="109" on="0"/>
        <pt x="465" y="152" on="0"/>
        <pt x="498" y="226" on="0"/>
        <pt x="520" y="283" on="1"/>
        <pt x="612" y="283" on="1"/>
        <pt x="541" y="0" on="1"/>
      </contour>
    </TTGlyph>
    <TTGlyph name="M" xMin="-33" yMin="-1" xMax="1006" yMax="658">
      <contour>
        <pt x="-33" y="0" on="1"/>
        <pt x="-9" y="96" on="1"/>
        <pt x="63" y="96" on="1"/>
        <pt x="179" y="562" on="1"/>
        <pt x="106" y="562" on="1"/>
        <pt x="130" y="658" on="1"/>
        <pt x="436" y="658" on="1"/>
        <pt x="470" y="280" on="1"/>
        <pt x="474" y="280" on="1"/>
        <pt x="685" y="658" on="1"/>
        <pt x="1006" y="658" on="1"/>
        <pt x="982" y="562" on="1"/>
        <pt x="905" y="562" on="1"/>
        <pt x="789" y="96" on="1"/>
        <pt x="866" y="96" on="1"/>
        <pt x="842" y="0" on="1"/>
        <pt x="514" y="0" on="1"/>
        <pt x="538" y="96" on="1"/>
        <pt x="610" y="96" on="1"/>
        <pt x="719" y="536" on="1"/>
        <pt x="710" y="536" on="1"/>
        <pt x="403" y="-1" on="1"/>
        <pt x="329" y="-1" on="1"/>
        <pt x="277" y="536" on="1"/>
        <pt x="268" y="536" on="1"/>
        <pt x="159" y="96" on="1"/>
        <pt x="233" y="96" on="1"/>
        <pt x="209" y="0" on="1"/>
      </contour>
    </TTGlyph>
    <TTGlyph name="N" xMin="-24" yMin="-6" xMax="856" yMax="658">
      <contour>
        <pt x="447" y="-6" on="1"/>
        <pt x="282" y="491" on="1"/>
        <pt x="273" y="491" on="1"/>
        <pt x="174" y="96" on="1"/>
        <pt x="258" y="96" on="1"/>
        <pt x="234" y="0" on="1"/>
        <pt x="-24" y="0" on="1"/>
        <pt x="0" y="96" on="1"/>
        <pt x="78" y="96" on="1"/>
        <pt x="194" y="562" on="1"/>
        <pt x="115" y="562" on="1"/>
        <pt x="139" y="658" on="1"/>
        <pt x="409" y="658" on="1"/>
        <pt x="560" y="206" on="1"/>
        <pt x="569" y="206" on="1"/>
        <pt x="657" y="562" on="1"/>
        <pt x="573" y="562" on="1"/>
        <pt x="597" y="658" on="1"/>
        <pt x="856" y="658" on="1"/>
        <pt x="832" y="562" on="1"/>
        <pt x="753" y="562" on="1"/>
        <pt x="612" y="-6" on="1"/>
      </contour>
    </TTGlyph>
    <TTGlyph name="Nacute" xMin="-24" yMin="-6" xMax="856" yMax="948">
      <component glyphName="N" x="0" y="0" flags="0x204"/>
      <component glyphName="acute" x="337" y="188" flags="0x4"/>
    </TTGlyph>
    <TTGlyph name="Ncaron" xMin="-24" yMin="-6" xMax="856" yMax="927">
      <component glyphName="N" x="0" y="0" flags="0x204"/>
      <component glyphName="caron" x="264" y="188" flags="0x4"/>
    </TTGlyph>
    <TTGlyph name="Ntilde" xMin="-24" yMin="-6" xMax="856" yMax="899">
      <component glyphName="N" x="0" y="0" flags="0x204"/>
      <component glyphName="tilde" x="219" y="188" flags="0x4"/>
    </TTGlyph>
    <TTGlyph name="O" xMin="55" yMin="-16" xMax="738" yMax="674">
      <contour>
        <pt x="357" y="-16" on="1"/>
        <pt x="291" y="-16" on="0"/>
        <pt x="179" y="26" on="0"/>
        <pt x="100" y="103" on="0"/>
        <pt x="55" y="211" on="0"/>
        <pt x="55" y="277" on="1"/>
        <pt x="55" y="336" on="0"/>
        <pt x="98" y="475" on="0"/>
        <pt x="190" y="594" on="0"/>
        <pt x="336" y="674" on="0"/>
        <pt x="437" y="674" on="1"/>
        <pt x="503" y="674" on="0"/>
        <pt x="614" y="632" on="0"/>
        <pt x="694" y="555" on="0"/>
        <pt x="738" y="447" on="0"/>
        <pt x="738" y="381" on="1"/>
        <pt x="738" y="322" on="0"/>
        <pt x="695" y="183" on="0"/>
        <pt x="603" y="64" on="0"/>
        <pt x="458" y="-16" on="0"/>
      </contour>
      <contour>
        <pt x="355" y="73" on="1"/>
        <pt x="409" y="73" on="0"/>
        <pt x="484" y="159" on="0"/>
        <pt x="531" y="277" on="0"/>
        <pt x="552" y="404" on="0"/>
        <pt x="552" y="445" on="1"/>
        <pt x="552" y="520" on="0"/>
        <pt x="487" y="585" on="0"/>
        <pt x="438" y="585" on="1"/>
        <pt x="384" y="585" on="0"/>
        <pt x="309" y="499" on="0"/>
        <pt x="262" y="381" on="0"/>
        <pt x="241" y="254" on="0"/>
        <pt x="241" y="213" on="1"/>
        <pt x="241" y="138" on="0"/>
        <pt x="306" y="73" on="0"/>
      </contour>
    </TTGlyph>
    <TTGlyph name="OE" xMin="44" yMin="0" xMax="1093" yMax="658">
      <contour>
        <pt x="389" y="0" on="1"/>
        <pt x="302" y="0" on="0"/>
        <pt x="172" y="39" on="0"/>
        <pt x="86" y="110" on="0"/>
        <pt x="44" y="208" on="0"/>
        <pt x="44" y="267" on="1"/>
        <pt x="44" y="343" on="0"/>
        <pt x="97" y="486" on="0"/>
        <pt x="153" y="542" on="1"/>
        <pt x="209" y="598" on="0"/>
        <pt x="376" y="658" on="0"/>
        <pt x="499" y="658" on="1"/>
        <pt x="1093" y="658" on="1"/>
        <pt x="1032" y="415" on="1"/>
        <pt x="939" y="415" on="1"/>
        <pt x="942" y="463" on="0"/>
        <pt x="938" y="522" on="0"/>
        <pt x="918" y="554" on="0"/>
        <pt x="878" y="565" on="0"/>
        <pt x="846" y="565" on="1"/>
        <pt x="716" y="565" on="1"/>
        <pt x="669" y="378" on="1"/>
        <pt x="695" y="378" on="1"/>
        <pt x="731" y="378" on="0"/>
        <pt x="759" y="409" on="0"/>
        <pt x="782" y="466" on="1"/>
        <pt x="871" y="466" on="1"/>
        <pt x="804" y="197" on="1"/>
        <pt x="717" y="197" on="1"/>
        <pt x="725" y="254" on="0"/>
        <pt x="711" y="285" on="0"/>
        <pt x="676" y="285" on="1"/>
        <pt x="646" y="285" on="1"/>
        <pt x="598" y="93" on="1"/>
        <pt x="721" y="93" on="1"/>
        <pt x="761" y="93" on="0"/>
        <pt x="813" y="109" on="0"/>
        <pt x="850" y="149" on="0"/>
        <pt x="882" y="218" on="0"/>
        <pt x="903" y="271" on="1"/>
        <pt x="1007" y="271" on="1"/>
        <pt x="939" y="0" on="1"/>
      </contour>
      <contour>
        <pt x="381" y="93" on="1"/>
        <pt x="418" y="93" on="1"/>
        <pt x="536" y="565" on="1"/>
        <pt x="484" y="565" on="1"/>
        <pt x="430" y="565" on="0"/>
        <pt x="358" y="538" on="0"/>
        <pt x="323" y="503" on="1"/>
        <pt x="304" y="484" on="0"/>
        <pt x="270" y="422" on="0"/>
        <pt x="245" y="350" on="0"/>
        <pt x="231" y="271" on="0"/>
        <pt x="231" y="235" on="1"/>
        <pt x="231" y="162" on="0"/>
        <pt x="303" y="93" on="0"/>
      </contour>
    </TTGlyph>
    <TTGlyph name="Oacute" xMin="55" yMin="-16" xMax="738" yMax="948">
      <component glyphName="O" x="0" y="0" flags="0x204"/>
      <component glyphName="acute" x="317" y="188" flags="0x4"/>
    </TTGlyph>
    <TTGlyph name="Obreve" xMin="55" yMin="-16" xMax="738" yMax="913">
      <component glyphName="O" x="0" y="0" flags="0x204"/>
      <component glyphName="breve" x="221" y="188" flags="0x4"/>
    </TTGlyph>
    <TTGlyph name="Ocircumflex" xMin="55" yMin="-16" xMax="738" yMax="927">
      <component glyphName="O" x="0" y="0" flags="0x204"/>
      <component glyphName="circumflex" x="219" y="188" flags="0x4"/>
    </TTGlyph>
    <TTGlyph name="Odieresis" xMin="55" yMin="-16" xMax="738" yMax="885">
      <component glyphName="O" x="0" y="0" flags="0x204"/>
      <component glyphName="dieresis" x="208" y="188" flags="0x4"/>
    </TTGlyph>
    <TTGlyph name="Ograve" xMin="55" yMin="-16" xMax="738" yMax="949">
      <component glyphName="O" x="0" y="0" flags="0x204"/>
      <component glyphName="grave" x="202" y="188" flags="0x4"/>
    </TTGlyph>
    <TTGlyph name="Ohungarumlaut" xMin="55" yMin="-16" xMax="755" yMax="948">
      <component glyphName="O" x="0" y="0" flags="0x204"/>
      <component glyphName="hungarumlaut" x="267" y="188" flags="0x4"/>
    </TTGlyph>
    <TTGlyph name="Omacron" xMin="55" yMin="-16" xMax="738" yMax="831">
      <component glyphName="O" x="0" y="0" flags="0x204"/>
      <component glyphName="macron" x="224" y="188" flags="0x4"/>
    </TTGlyph>
    <TTGlyph name="Oslash" xMin="18" yMin="-63" xMax="775" yMax="721">
      <contour>
        <pt x="82" y="-63" on="1"/>
        <pt x="18" y="-5" on="1"/>
        <pt x="113" y="94" on="1"/>
        <pt x="85" y="131" on="0"/>
        <pt x="55" y="223" on="0"/>
        <pt x="55" y="277" on="1"/>
        <pt x="55" y="336" on="0"/>
        <pt x="98" y="475" on="0"/>
        <pt x="190" y="594" on="0"/>
        <pt x="336" y="674" on="0"/>
        <pt x="437" y="674" on="1"/>
        <pt x="490" y="674" on="0"/>
        <pt x="582" y="647" on="0"/>
        <pt x="619" y="622" on="1"/>
        <pt x="711" y="721" on="1"/>
        <pt x="775" y="663" on="1"/>
        <pt x="680" y="564" on="1"/>
        <pt x="708" y="527" on="0"/>
        <pt x="738" y="435" on="0"/>
        <pt x="738" y="381" on="1"/>
        <pt x="738" y="322" on="0"/>
        <pt x="695" y="183" on="0"/>
        <pt x="603" y="64" on="0"/>
        <pt x="458" y="-16" on="0"/>
        <pt x="357" y="-16" on="1"/>
        <pt x="304" y="-16" on="0"/>
        <pt x="211" y="11" on="0"/>
        <pt x="174" y="36" on="1"/>
      </contour>
      <contour>
        <pt x="438" y="585" on="1"/>
        <pt x="385" y="585" on="0"/>
        <pt x="310" y="502" on="0"/>
        <pt x="264" y="386" on="0"/>
        <pt x="242" y="260" on="0"/>
        <pt x="241" y="218" on="1"/>
        <pt x="535" y="531" on="1"/>
        <pt x="520" y="559" on="0"/>
        <pt x="469" y="585" on="0"/>
      </contour>
      <contour>
        <pt x="355" y="73" on="1"/>
        <pt x="408" y="73" on="0"/>
        <pt x="483" y="156" on="0"/>
        <pt x="529" y="272" on="0"/>
        <pt x="551" y="398" on="0"/>
        <pt x="552" y="440" on="1"/>
        <pt x="258" y="127" on="1"/>
        <pt x="273" y="99" on="0"/>
        <pt x="324" y="73" on="0"/>
      </contour>
    </TTGlyph>
    <TTGlyph name="Oslashacute" xMin="18" yMin="-63" xMax="775" yMax="948">
      <component glyphName="Oslash" x="0" y="0" flags="0x204"/>
      <component glyphName="acute" x="301" y="188" flags="0x4"/>
    </TTGlyph>
    <TTGlyph name="Otilde" xMin="55" yMin="-16" xMax="738" yMax="899">
      <component glyphName="O" x="0" y="0" flags="0x204"/>
      <component glyphName="tilde" x="199" y="188" flags="0x4"/>
    </TTGlyph>
    <TTGlyph name="P" xMin="-32" yMin="0" xMax="700" yMax="658">
      <contour>
        <pt x="-32" y="0" on="1"/>
        <pt x="-8" y="96" on="1"/>
        <pt x="71" y="96" on="1"/>
        <pt x="187" y="562" on="1"/>
        <pt x="108" y="562" on="1"/>
        <pt x="132" y="658" on="1"/>
        <pt x="431" y="658" on="1"/>
        <pt x="582" y="658" on="0"/>
        <pt x="700" y="566" on="0"/>
        <pt x="700" y="483" on="1"/>
        <pt x="700" y="440" on="0"/>
        <pt x="667" y="355" on="0"/>
        <pt x="590" y="289" on="0"/>
        <pt x="465" y="248" on="0"/>
        <pt x="374" y="248" on="1"/>
        <pt x="288" y="248" on="1"/>
        <pt x="250" y="96" on="1"/>
        <pt x="335" y="96" on="1"/>
        <pt x="311" y="0" on="1"/>
      </contour>
      <contour>
        <pt x="312" y="342" on="1"/>
        <pt x="368" y="342" on="1"/>
        <pt x="411" y="342" on="0"/>
        <pt x="466" y="373" on="0"/>
        <pt x="497" y="418" on="0"/>
        <pt x="508" y="470" on="0"/>
        <pt x="508" y="491" on="1"/>
        <pt x="508" y="535" on="0"/>
        <pt x="453" y="567" on="0"/>
        <pt x="401" y="567" on="1"/>
        <pt x="368" y="567" on="1"/>
      </contour>
    </TTGlyph>
    <TTGlyph name="Q" xMin="55" yMin="-117" xMax="738" yMax="674">
      <contour>
        <pt x="364" y="-11" on="1"/>
        <pt x="222" y="-11" on="0"/>
        <pt x="55" y="146" on="0"/>
        <pt x="55" y="277" on="1"/>
        <pt x="55" y="336" on="0"/>
        <pt x="98" y="475" on="0"/>
        <pt x="190" y="594" on="0"/>
        <pt x="336" y="674" on="0"/>
        <pt x="437" y="674" on="1"/>
        <pt x="503" y="674" on="0"/>
        <pt x="614" y="632" on="0"/>
        <pt x="694" y="555" on="0"/>
        <pt x="738" y="447" on="0"/>
        <pt x="738" y="381" on="1"/>
        <pt x="738" y="338" on="0"/>
        <pt x="716" y="241" on="0"/>
        <pt x="670" y="148" on="0"/>
        <pt x="598" y="65" on="0"/>
        <pt x="549" y="36" on="1"/>
        <pt x="562" y="4" on="0"/>
        <pt x="590" y="-9" on="0"/>
        <pt x="604" y="-9" on="1"/>
        <pt x="625" y="-9" on="0"/>
        <pt x="658" y="23" on="0"/>
        <pt x="677" y="69" on="1"/>
        <pt x="737" y="48" on="1"/>
        <pt x="711" y="-41" on="0"/>
        <pt x="628" y="-117" on="0"/>
        <pt x="571" y="-117" on="1"/>
        <pt x="503" y="-117" on="0"/>
        <pt x="439" y="-58" on="0"/>
        <pt x="420" y="-7" on="1"/>
        <pt x="407" y="-9" on="0"/>
        <pt x="379" y="-11" on="0"/>
      </contour>
      <contour>
        <pt x="241" y="213" on="1"/>
        <pt x="241" y="205" on="0"/>
        <pt x="241" y="189" on="0"/>
        <pt x="242" y="182" on="1"/>
        <pt x="258" y="222" on="0"/>
        <pt x="321" y="280" on="0"/>
        <pt x="372" y="280" on="1"/>
        <pt x="426" y="280" on="0"/>
        <pt x="483" y="225" on="0"/>
        <pt x="501" y="184" on="1"/>
        <pt x="517" y="217" on="0"/>
        <pt x="537" y="291" on="0"/>
        <pt x="548" y="360" on="0"/>
        <pt x="552" y="423" on="0"/>
        <pt x="552" y="445" on="1"/>
        <pt x="552" y="520" on="0"/>
        <pt x="487" y="585" on="0"/>
        <pt x="438" y="585" on="1"/>
        <pt x="384" y="585" on="0"/>
        <pt x="309" y="499" on="0"/>
        <pt x="262" y="381" on="0"/>
        <pt x="241" y="254" on="0"/>
      </contour>
      <contour>
        <pt x="275" y="123" on="1"/>
        <pt x="275" y="95" on="0"/>
        <pt x="327" y="72" on="0"/>
        <pt x="358" y="72" on="1"/>
        <pt x="365" y="72" on="0"/>
        <pt x="387" y="73" on="0"/>
        <pt x="400" y="77" on="1"/>
        <pt x="393" y="126" on="0"/>
        <pt x="359" y="177" on="0"/>
        <pt x="330" y="177" on="1"/>
        <pt x="305" y="177" on="0"/>
        <pt x="275" y="143" on="0"/>
      </contour>
    </TTGlyph>
    <TTGlyph name="R" xMin="-32" yMin="-15" xMax="714" yMax="658">
      <contour>
        <pt x="539" y="-15" on="1"/>
        <pt x="479" y="-15" on="0"/>
        <pt x="407" y="41" on="0"/>
        <pt x="407" y="90" on="1"/>
        <pt x="407" y="123" on="0"/>
        <pt x="426" y="195" on="0"/>
        <pt x="426" y="230" on="1"/>
        <pt x="426" y="256" on="0"/>
        <pt x="383" y="285" on="0"/>
        <pt x="339" y="285" on="1"/>
        <pt x="297" y="285" on="1"/>
        <pt x="250" y="96" on="1"/>
        <pt x="335" y="96" on="1"/>
        <pt x="311" y="0" on="1"/>
        <pt x="-32" y="0" on="1"/>
        <pt x="-8" y="96" on="1"/>
        <pt x="71" y="96" on="1"/>
        <pt x="187" y="562" on="1"/>
        <pt x="108" y="562" on="1"/>
        <pt x="132" y="658" on="1"/>
        <pt x="477" y="658" on="1"/>
        <pt x="542" y="658" on="0"/>
        <pt x="633" y="634" on="0"/>
        <pt x="688" y="594" on="0"/>
        <pt x="712" y="542" on="0"/>
        <pt x="712" y="514" on="1"/>
        <pt x="712" y="438" on="0"/>
        <pt x="587" y="338" on="0"/>
        <pt x="454" y="330" on="1"/>
        <pt x="452" y="324" on="1"/>
        <pt x="534" y="314" on="0"/>
        <pt x="599" y="253" on="0"/>
        <pt x="599" y="216" on="1"/>
        <pt x="599" y="192" on="0"/>
        <pt x="587" y="138" on="0"/>
        <pt x="587" y="121" on="1"/>
        <pt x="587" y="106" on="0"/>
        <pt x="602" y="96" on="0"/>
        <pt x="609" y="96" on="1"/>
        <pt x="620" y="96" on="0"/>
        <pt x="642" y="119" on="0"/>
        <pt x="660" y="156" on="1"/>
        <pt x="714" y="128" on="1"/>
        <pt x="685" y="63" on="0"/>
        <pt x="608" y="-15" on="0"/>
      </contour>
      <contour>
        <pt x="320" y="376" on="1"/>
        <pt x="377" y="376" on="1"/>
        <pt x="409" y="376" on="0"/>
        <pt x="469" y="392" on="0"/>
        <pt x="490" y="413" on="1"/>
        <pt x="504" y="427" on="0"/>
        <pt x="520" y="469" on="0"/>
        <pt x="520" y="497" on="1"/>
        <pt x="520" y="528" on="0"/>
        <pt x="481" y="567" on="0"/>
        <pt x="430" y="567" on="1"/>
        <pt x="368" y="567" on="1"/>
      </contour>
    </TTGlyph>
    <TTGlyph name="R_p" xMin="-29" yMin="-154" xMax="1151" yMax="634">
      <contour>
        <pt x="511" y="-14" on="1"/>
        <pt x="455" y="-14" on="0"/>
        <pt x="384" y="32" on="0"/>
        <pt x="384" y="83" on="1"/>
        <pt x="384" y="115" on="0"/>
        <pt x="403" y="184" on="0"/>
        <pt x="403" y="216" on="1"/>
        <pt x="403" y="241" on="0"/>
        <pt x="363" y="267" on="0"/>
        <pt x="322" y="267" on="1"/>
        <pt x="283" y="267" on="1"/>
        <pt x="241" y="96" on="1"/>
        <pt x="318" y="96" on="1"/>
        <pt x="294" y="0" on="1"/>
        <pt x="-29" y="0" on="1"/>
        <pt x="-5" y="96" on="1"/>
        <pt x="71" y="96" on="1"/>
        <pt x="181" y="538" on="1"/>
        <pt x="105" y="538" on="1"/>
        <pt x="129" y="634" on="1"/>
        <pt x="447" y="634" on="1"/>
        <pt x="505" y="634" on="0"/>
        <pt x="586" y="611" on="0"/>
        <pt x="635" y="572" on="0"/>
        <pt x="657" y="521" on="0"/>
        <pt x="657" y="493" on="1"/>
        <pt x="657" y="421" on="0"/>
        <pt x="545" y="322" on="0"/>
        <pt x="427" y="315" on="1"/>
        <pt x="425" y="309" on="1"/>
        <pt x="505" y="299" on="0"/>
        <pt x="568" y="242" on="0"/>
        <pt x="568" y="207" on="1"/>
        <pt x="568" y="183" on="0"/>
        <pt x="559" y="135" on="0"/>
        <pt x="559" y="119" on="1"/>
        <pt x="559" y="102" on="0"/>
        <pt x="580" y="88" on="0"/>
        <pt x="595" y="88" on="1"/>
        <pt x="623" y="88" on="0"/>
        <pt x="679" y="143" on="0"/>
        <pt x="697" y="217" on="1"/>
        <pt x="731" y="353" on="1"/>
        <pt x="669" y="353" on="1"/>
        <pt x="692" y="444" on="1"/>
        <pt x="882" y="444" on="1"/>
        <pt x="852" y="327" on="1"/>
        <pt x="857" y="325" on="1"/>
        <pt x="888" y="389" on="0"/>
        <pt x="970" y="454" on="0"/>
        <pt x="1021" y="454" on="1"/>
        <pt x="1089" y="454" on="0"/>
        <pt x="1151" y="368" on="0"/>
        <pt x="1151" y="300" on="1"/>
        <pt x="1151" y="254" on="0"/>
        <pt x="1121" y="148" on="0"/>
        <pt x="1065" y="59" on="0"/>
        <pt x="982" y="-1" on="0"/>
        <pt x="929" y="-1" on="1"/>
        <pt x="893" y="-1" on="0"/>
        <pt x="834" y="31" on="0"/>
        <pt x="818" y="68" on="1"/>
        <pt x="785" y="-63" on="1"/>
        <pt x="862" y="-63" on="1"/>
        <pt x="840" y="-154" on="1"/>
        <pt x="543" y="-154" on="1"/>
        <pt x="565" y="-63" on="1"/>
        <pt x="627" y="-63" on="1"/>
        <pt x="663" y="82" on="1"/>
        <pt x="641" y="42" on="0"/>
        <pt x="568" y="-14" on="0"/>
      </contour>
      <contour>
        <pt x="305" y="357" on="1"/>
        <pt x="352" y="357" on="1"/>
        <pt x="377" y="357" on="0"/>
        <pt x="425" y="370" on="0"/>
        <pt x="443" y="388" on="1"/>
        <pt x="459" y="404" on="0"/>
        <pt x="476" y="452" on="0"/>
        <pt x="476" y="477" on="1"/>
        <pt x="476" y="507" on="0"/>
        <pt x="444" y="543" on="0"/>
        <pt x="404" y="543" on="1"/>
        <pt x="352" y="543" on="1"/>
      </contour>
      <contour>
        <pt x="884" y="69" on="1"/>
        <pt x="907" y="69" on="0"/>
        <pt x="947" y="117" on="0"/>
        <pt x="976" y="186" on="0"/>
        <pt x="993" y="262" on="0"/>
        <pt x="993" y="290" on="1"/>
        <pt x="993" y="323" on="0"/>
        <pt x="968" y="355" on="0"/>
        <pt x="949" y="355" on="1"/>
        <pt x="926" y="355" on="0"/>
        <pt x="885" y="311" on="0"/>
        <pt x="855" y="246" on="0"/>
        <pt x="838" y="168" on="0"/>
        <pt x="838" y="134" on="1"/>
        <pt x="838" y="104" on="0"/>
        <pt x="860" y="69" on="0"/>
      </contour>
    </TTGlyph>
    <TTGlyph name="Racute" xMin="-32" yMin="-15" xMax="714" yMax="948">
      <component glyphName="R" x="0" y="0" flags="0x204"/>
      <component glyphName="acute" x="269" y="188" flags="0x4"/>
    </TTGlyph>
    <TTGlyph name="Rcaron" xMin="-32" yMin="-15" xMax="714" yMax="927">
      <component glyphName="R" x="0" y="0" flags="0x204"/>
      <component glyphName="caron" x="196" y="188" flags="0x4"/>
    </TTGlyph>
    <TTGlyph name="S" xMin="-11" yMin="-16" xMax="664" yMax="674">
      <contour>
        <pt x="343" y="-16" on="1"/>
        <pt x="270" y="-16" on="0"/>
        <pt x="164" y="29" on="0"/>
        <pt x="129" y="71" on="1"/>
        <pt x="83" y="-14" on="1"/>
        <pt x="-11" y="-14" on="1"/>
        <pt x="49" y="242" on="1"/>
        <pt x="146" y="242" on="1"/>
        <pt x="153" y="163" on="0"/>
        <pt x="256" y="76" on="0"/>
        <pt x="328" y="76" on="1"/>
        <pt x="369" y="76" on="0"/>
        <pt x="426" y="113" on="0"/>
        <pt x="426" y="149" on="1"/>
        <pt x="426" y="186" on="0"/>
        <pt x="344" y="227" on="0"/>
        <pt x="291" y="249" on="1"/>
        <pt x="257" y="262" on="0"/>
        <pt x="189" y="295" on="0"/>
        <pt x="134" y="341" on="0"/>
        <pt x="99" y="406" on="0"/>
        <pt x="99" y="450" on="1"/>
        <pt x="99" y="501" on="0"/>
        <pt x="138" y="584" on="0"/>
        <pt x="205" y="642" on="0"/>
        <pt x="292" y="674" on="0"/>
        <pt x="340" y="674" on="1"/>
        <pt x="397" y="674" on="0"/>
        <pt x="495" y="633" on="0"/>
        <pt x="526" y="595" on="1"/>
        <pt x="569" y="672" on="1"/>
        <pt x="664" y="672" on="1"/>
        <pt x="606" y="426" on="1"/>
        <pt x="508" y="426" on="1"/>
        <pt x="502" y="504" on="0"/>
        <pt x="420" y="582" on="0"/>
        <pt x="356" y="582" on="1"/>
        <pt x="316" y="582" on="0"/>
        <pt x="262" y="543" on="0"/>
        <pt x="262" y="510" on="1"/>
        <pt x="262" y="490" on="0"/>
        <pt x="285" y="460" on="0"/>
        <pt x="324" y="435" on="0"/>
        <pt x="375" y="414" on="0"/>
        <pt x="402" y="402" on="1"/>
        <pt x="435" y="388" on="0"/>
        <pt x="502" y="355" on="0"/>
        <pt x="555" y="311" on="0"/>
        <pt x="589" y="250" on="0"/>
        <pt x="589" y="209" on="1"/>
        <pt x="589" y="157" on="0"/>
        <pt x="550" y="73" on="0"/>
        <pt x="483" y="15" on="0"/>
        <pt x="393" y="-16" on="0"/>
      </contour>
    </TTGlyph>
    <TTGlyph name="Sacute" xMin="-11" yMin="-16" xMax="664" yMax="948">
      <component glyphName="S" x="0" y="0" flags="0x204"/>
      <component glyphName="acute" x="245" y="188" flags="0x4"/>
    </TTGlyph>
    <TTGlyph name="Scaron" xMin="-11" yMin="-16" xMax="664" yMax="927">
      <component glyphName="S" x="0" y="0" flags="0x204"/>
      <component glyphName="caron" x="172" y="188" flags="0x4"/>
    </TTGlyph>
    <TTGlyph name="Scedilla" xMin="-11" yMin="-252" xMax="664" yMax="674">
      <contour>
        <pt x="343" y="-16" on="1"/>
        <pt x="342" y="-16" on="0"/>
        <pt x="339" y="-16" on="0"/>
        <pt x="338" y="-16" on="1"/>
        <pt x="288" y="-56" on="1"/>
        <pt x="289" y="-60" on="1"/>
        <pt x="338" y="-70" on="0"/>
        <pt x="387" y="-116" on="0"/>
        <pt x="387" y="-147" on="1"/>
        <pt x="387" y="-194" on="0"/>
        <pt x="302" y="-252" on="0"/>
        <pt x="235" y="-252" on="1"/>
        <pt x="200" y="-252" on="0"/>
        <pt x="119" y="-230" on="0"/>
        <pt x="88" y="-211" on="1"/>
        <pt x="125" y="-157" on="1"/>
        <pt x="142" y="-167" on="0"/>
        <pt x="194" y="-184" on="0"/>
        <pt x="221" y="-184" on="1"/>
        <pt x="241" y="-184" on="0"/>
        <pt x="264" y="-170" on="0"/>
        <pt x="264" y="-157" on="1"/>
        <pt x="264" y="-141" on="0"/>
        <pt x="218" y="-123" on="0"/>
        <pt x="172" y="-126" on="1"/>
        <pt x="156" y="-79" on="1"/>
        <pt x="260" y="-7" on="1"/>
        <pt x="218" y="3" on="0"/>
        <pt x="153" y="42" on="0"/>
        <pt x="129" y="71" on="1"/>
        <pt x="83" y="-14" on="1"/>
        <pt x="-11" y="-14" on="1"/>
        <pt x="49" y="242" on="1"/>
        <pt x="146" y="242" on="1"/>
        <pt x="153" y="163" on="0"/>
        <pt x="256" y="76" on="0"/>
        <pt x="328" y="76" on="1"/>
        <pt x="369" y="76" on="0"/>
        <pt x="426" y="113" on="0"/>
        <pt x="426" y="149" on="1"/>
        <pt x="426" y="186" on="0"/>
        <pt x="344" y="227" on="0"/>
        <pt x="291" y="249" on="1"/>
        <pt x="257" y="262" on="0"/>
        <pt x="189" y="295" on="0"/>
        <pt x="134" y="341" on="0"/>
        <pt x="99" y="406" on="0"/>
        <pt x="99" y="450" on="1"/>
        <pt x="99" y="501" on="0"/>
        <pt x="138" y="584" on="0"/>
        <pt x="205" y="642" on="0"/>
        <pt x="292" y="674" on="0"/>
        <pt x="340" y="674" on="1"/>
        <pt x="397" y="674" on="0"/>
        <pt x="495" y="633" on="0"/>
        <pt x="526" y="595" on="1"/>
        <pt x="569" y="672" on="1"/>
        <pt x="664" y="672" on="1"/>
        <pt x="606" y="426" on="1"/>
        <pt x="508" y="426" on="1"/>
        <pt x="502" y="504" on="0"/>
        <pt x="420" y="582" on="0"/>
        <pt x="356" y="582" on="1"/>
        <pt x="316" y="582" on="0"/>
        <pt x="262" y="543" on="0"/>
        <pt x="262" y="510" on="1"/>
        <pt x="262" y="490" on="0"/>
        <pt x="285" y="460" on="0"/>
        <pt x="324" y="435" on="0"/>
        <pt x="375" y="414" on="0"/>
        <pt x="402" y="402" on="1"/>
        <pt x="435" y="388" on="0"/>
        <pt x="502" y="355" on="0"/>
        <pt x="555" y="311" on="0"/>
        <pt x="589" y="250" on="0"/>
        <pt x="589" y="209" on="1"/>
        <pt x="589" y="157" on="0"/>
        <pt x="550" y="73" on="0"/>
        <pt x="483" y="15" on="0"/>
        <pt x="393" y="-16" on="0"/>
      </contour>
    </TTGlyph>
    <TTGlyph name="T" xMin="65" yMin="0" xMax="776" yMax="658">
      <contour>
        <pt x="104" y="0" on="1"/>
        <pt x="128" y="96" on="1"/>
        <pt x="224" y="96" on="1"/>
        <pt x="344" y="575" on="1"/>
        <pt x="321" y="575" on="1"/>
        <pt x="293" y="575" on="0"/>
        <pt x="256" y="562" on="0"/>
        <pt x="224" y="521" on="0"/>
        <pt x="187" y="444" on="0"/>
        <pt x="160" y="380" on="1"/>
        <pt x="65" y="380" on="1"/>
        <pt x="135" y="658" on="1"/>
        <pt x="776" y="658" on="1"/>
        <pt x="706" y="380" on="1"/>
        <pt x="625" y="380" on="1"/>
        <pt x="626" y="443" on="0"/>
        <pt x="624" y="521" on="0"/>
        <pt x="609" y="562" on="0"/>
        <pt x="576" y="575" on="0"/>
        <pt x="548" y="575" on="1"/>
        <pt x="533" y="575" on="1"/>
        <pt x="413" y="96" on="1"/>
        <pt x="513" y="96" on="1"/>
        <pt x="489" y="0" on="1"/>
      </contour>
    </TTGlyph>
    <TTGlyph name="Tcaron" xMin="65" yMin="0" xMax="776" yMax="927">
      <component glyphName="T" x="0" y="0" flags="0x204"/>
      <component glyphName="caron" x="232" y="188" flags="0x4"/>
    </TTGlyph>
    <TTGlyph name="Thorn" xMin="-29" yMin="0" xMax="682" yMax="658">
      <contour>
        <pt x="-29" y="0" on="1"/>
        <pt x="-5" y="96" on="1"/>
        <pt x="71" y="96" on="1"/>
        <pt x="187" y="562" on="1"/>
        <pt x="111" y="562" on="1"/>
        <pt x="135" y="658" on="1"/>
        <pt x="473" y="658" on="1"/>
        <pt x="449" y="562" on="1"/>
        <pt x="367" y="562" on="1"/>
        <pt x="355" y="516" on="1"/>
        <pt x="395" y="516" on="1"/>
        <pt x="555" y="516" on="0"/>
        <pt x="682" y="434" on="0"/>
        <pt x="682" y="357" on="1"/>
        <pt x="682" y="320" on="0"/>
        <pt x="650" y="245" on="0"/>
        <pt x="576" y="185" on="0"/>
        <pt x="452" y="146" on="0"/>
        <pt x="361" y="146" on="1"/>
        <pt x="263" y="146" on="1"/>
        <pt x="251" y="96" on="1"/>
        <pt x="333" y="96" on="1"/>
        <pt x="309" y="0" on="1"/>
      </contour>
      <contour>
        <pt x="286" y="238" on="1"/>
        <pt x="348" y="238" on="1"/>
        <pt x="390" y="238" on="0"/>
        <pt x="444" y="262" on="0"/>
        <pt x="474" y="297" on="0"/>
        <pt x="485" y="338" on="0"/>
        <pt x="485" y="355" on="1"/>
        <pt x="485" y="395" on="0"/>
        <pt x="427" y="424" on="0"/>
        <pt x="371" y="424" on="1"/>
        <pt x="332" y="424" on="1"/>
      </contour>
    </TTGlyph>
    <TTGlyph name="U" xMin="87" yMin="-16" xMax="816" yMax="658">
      <contour>
        <pt x="328" y="-16" on="1"/>
        <pt x="269" y="-16" on="0"/>
        <pt x="178" y="13" on="0"/>
        <pt x="118" y="63" on="0"/>
        <pt x="87" y="130" on="0"/>
        <pt x="87" y="168" on="1"/>
        <pt x="87" y="189" on="0"/>
        <pt x="98" y="245" on="0"/>
        <pt x="103" y="267" on="1"/>
        <pt x="177" y="562" on="1"/>
        <pt x="98" y="562" on="1"/>
        <pt x="122" y="658" on="1"/>
        <pt x="466" y="658" on="1"/>
        <pt x="442" y="562" on="1"/>
        <pt x="358" y="562" on="1"/>
        <pt x="281" y="256" on="1"/>
        <pt x="276" y="234" on="0"/>
        <pt x="270" y="200" on="0"/>
        <pt x="270" y="185" on="1"/>
        <pt x="270" y="135" on="0"/>
        <pt x="336" y="96" on="0"/>
        <pt x="377" y="96" on="1"/>
        <pt x="408" y="96" on="0"/>
        <pt x="460" y="115" on="0"/>
        <pt x="481" y="136" on="1"/>
        <pt x="500" y="155" on="0"/>
        <pt x="527" y="210" on="0"/>
        <pt x="537" y="247" on="1"/>
        <pt x="616" y="562" on="1"/>
        <pt x="538" y="562" on="1"/>
        <pt x="562" y="658" on="1"/>
        <pt x="816" y="658" on="1"/>
        <pt x="792" y="562" on="1"/>
        <pt x="717" y="562" on="1"/>
        <pt x="633" y="226" on="1"/>
        <pt x="621" y="177" on="0"/>
        <pt x="579" y="94" on="0"/>
        <pt x="548" y="63" on="1"/>
        <pt x="511" y="26" on="0"/>
        <pt x="403" y="-16" on="0"/>
      </contour>
    </TTGlyph>
    <TTGlyph name="Uacute" xMin="87" yMin="-16" xMax="816" yMax="948">
      <component glyphName="U" x="0" y="0" flags="0x204"/>
      <component glyphName="acute" x="378" y="188" flags="0x4"/>
    </TTGlyph>
    <TTGlyph name="Ubreve" xMin="87" yMin="-16" xMax="816" yMax="913">
      <component glyphName="U" x="0" y="0" flags="0x204"/>
      <component glyphName="breve" x="282" y="188" flags="0x4"/>
    </TTGlyph>
    <TTGlyph name="Ucircumflex" xMin="87" yMin="-16" xMax="816" yMax="927">
      <component glyphName="U" x="0" y="0" flags="0x204"/>
      <component glyphName="circumflex" x="280" y="188" flags="0x4"/>
    </TTGlyph>
    <TTGlyph name="Udieresis" xMin="87" yMin="-16" xMax="816" yMax="885">
      <component glyphName="U" x="0" y="0" flags="0x204"/>
      <component glyphName="dieresis" x="269" y="188" flags="0x4"/>
    </TTGlyph>
    <TTGlyph name="Ugrave" xMin="87" yMin="-16" xMax="816" yMax="949">
      <component glyphName="U" x="0" y="0" flags="0x204"/>
      <component glyphName="grave" x="263" y="188" flags="0x4"/>
    </TTGlyph>
    <TTGlyph name="Uhungarumlaut" xMin="87" yMin="-16" xMax="816" yMax="948">
      <component glyphName="U" x="0" y="0" flags="0x204"/>
      <component glyphName="hungarumlaut" x="328" y="188" flags="0x4"/>
    </TTGlyph>
    <TTGlyph name="Umacron" xMin="87" yMin="-16" xMax="816" yMax="831">
      <component glyphName="U" x="0" y="0" flags="0x204"/>
      <component glyphName="macron" x="285" y="188" flags="0x4"/>
    </TTGlyph>
    <TTGlyph name="Uogonek" xMin="87" yMin="-253" xMax="816" yMax="658">
      <contour>
        <pt x="295" y="-253" on="1"/>
        <pt x="270" y="-253" on="0"/>
        <pt x="222" y="-242" on="0"/>
        <pt x="185" y="-218" on="0"/>
        <pt x="163" y="-180" on="0"/>
        <pt x="163" y="-153" on="1"/>
        <pt x="163" y="-110" on="0"/>
        <pt x="228" y="-43" on="0"/>
        <pt x="280" y="-13" on="1"/>
        <pt x="185" y="-2" on="0"/>
        <pt x="87" y="100" on="0"/>
        <pt x="87" y="168" on="1"/>
        <pt x="87" y="189" on="0"/>
        <pt x="98" y="245" on="0"/>
        <pt x="103" y="267" on="1"/>
        <pt x="177" y="562" on="1"/>
        <pt x="98" y="562" on="1"/>
        <pt x="122" y="658" on="1"/>
        <pt x="466" y="658" on="1"/>
        <pt x="442" y="562" on="1"/>
        <pt x="358" y="562" on="1"/>
        <pt x="281" y="256" on="1"/>
        <pt x="276" y="234" on="0"/>
        <pt x="270" y="200" on="0"/>
        <pt x="270" y="185" on="1"/>
        <pt x="270" y="135" on="0"/>
        <pt x="336" y="96" on="0"/>
        <pt x="377" y="96" on="1"/>
        <pt x="408" y="96" on="0"/>
        <pt x="460" y="115" on="0"/>
        <pt x="481" y="136" on="1"/>
        <pt x="500" y="155" on="0"/>
        <pt x="527" y="210" on="0"/>
        <pt x="537" y="247" on="1"/>
        <pt x="616" y="562" on="1"/>
        <pt x="538" y="562" on="1"/>
        <pt x="562" y="658" on="1"/>
        <pt x="816" y="658" on="1"/>
        <pt x="792" y="562" on="1"/>
        <pt x="717" y="562" on="1"/>
        <pt x="633" y="226" on="1"/>
        <pt x="621" y="177" on="0"/>
        <pt x="579" y="94" on="0"/>
        <pt x="548" y="63" on="1"/>
        <pt x="519" y="34" on="0"/>
        <pt x="442" y="-5" on="0"/>
        <pt x="392" y="-12" on="1"/>
        <pt x="391" y="-12" on="1"/>
        <pt x="337" y="-50" on="0"/>
        <pt x="292" y="-103" on="0"/>
        <pt x="292" y="-128" on="1"/>
        <pt x="292" y="-144" on="0"/>
        <pt x="315" y="-173" on="0"/>
        <pt x="342" y="-173" on="1"/>
        <pt x="356" y="-173" on="0"/>
        <pt x="385" y="-166" on="0"/>
        <pt x="402" y="-156" on="1"/>
        <pt x="422" y="-215" on="1"/>
        <pt x="397" y="-231" on="0"/>
        <pt x="332" y="-253" on="0"/>
      </contour>
    </TTGlyph>
    <TTGlyph name="Uring" xMin="87" yMin="-16" xMax="816" yMax="962">
      <component glyphName="U" x="0" y="0" flags="0x204"/>
      <component glyphName="ring" x="324" y="188" flags="0x4"/>
    </TTGlyph>
    <TTGlyph name="V" xMin="91" yMin="-4" xMax="823" yMax="658">
      <contour>
        <pt x="236" y="-4" on="1"/>
        <pt x="170" y="562" on="1"/>
        <pt x="91" y="562" on="1"/>
        <pt x="115" y="658" on="1"/>
        <pt x="446" y="658" on="1"/>
        <pt x="422" y="562" on="1"/>
        <pt x="351" y="562" on="1"/>
        <pt x="386" y="154" on="1"/>
        <pt x="392" y="154" on="1"/>
        <pt x="624" y="562" on="1"/>
        <pt x="539" y="562" on="1"/>
        <pt x="563" y="658" on="1"/>
        <pt x="823" y="658" on="1"/>
        <pt x="799" y="562" on="1"/>
        <pt x="735" y="562" on="1"/>
        <pt x="399" y="-4" on="1"/>
      </contour>
    </TTGlyph>
    <TTGlyph name="W" xMin="91" yMin="-4" xMax="1151" yMax="658">
      <contour>
        <pt x="211" y="-4" on="1"/>
        <pt x="177" y="562" on="1"/>
        <pt x="91" y="562" on="1"/>
        <pt x="115" y="658" on="1"/>
        <pt x="437" y="658" on="1"/>
        <pt x="414" y="564" on="1"/>
        <pt x="356" y="564" on="1"/>
        <pt x="372" y="171" on="1"/>
        <pt x="379" y="171" on="1"/>
        <pt x="562" y="477" on="1"/>
        <pt x="556" y="564" on="1"/>
        <pt x="486" y="564" on="1"/>
        <pt x="509" y="658" on="1"/>
        <pt x="817" y="658" on="1"/>
        <pt x="794" y="564" on="1"/>
        <pt x="729" y="564" on="1"/>
        <pt x="750" y="171" on="1"/>
        <pt x="757" y="171" on="1"/>
        <pt x="953" y="564" on="1"/>
        <pt x="865" y="564" on="1"/>
        <pt x="888" y="658" on="1"/>
        <pt x="1151" y="658" on="1"/>
        <pt x="1127" y="562" on="1"/>
        <pt x="1060" y="562" on="1"/>
        <pt x="763" y="-4" on="1"/>
        <pt x="597" y="-4" on="1"/>
        <pt x="572" y="338" on="1"/>
        <pt x="371" y="-4" on="1"/>
      </contour>
    </TTGlyph>
    <TTGlyph name="Wacute" xMin="91" yMin="-4" xMax="1151" yMax="948">
      <component glyphName="W" x="0" y="0" flags="0x204"/>
      <component glyphName="acute" x="497" y="188" flags="0x4"/>
    </TTGlyph>
    <TTGlyph name="Wcircumflex" xMin="91" yMin="-4" xMax="1151" yMax="927">
      <component glyphName="W" x="0" y="0" flags="0x204"/>
      <component glyphName="circumflex" x="399" y="188" flags="0x4"/>
    </TTGlyph>
    <TTGlyph name="Wdieresis" xMin="91" yMin="-4" xMax="1151" yMax="885">
      <component glyphName="W" x="0" y="0" flags="0x204"/>
      <component glyphName="dieresis" x="388" y="188" flags="0x4"/>
    </TTGlyph>
    <TTGlyph name="Wgrave" xMin="91" yMin="-4" xMax="1151" yMax="949">
      <component glyphName="W" x="0" y="0" flags="0x204"/>
      <component glyphName="grave" x="382" y="188" flags="0x4"/>
    </TTGlyph>
    <TTGlyph name="X" xMin="-42" yMin="0" xMax="799" yMax="658">
      <contour>
        <pt x="-42" y="0" on="1"/>
        <pt x="-18" y="96" on="1"/>
        <pt x="55" y="96" on="1"/>
        <pt x="288" y="317" on="1"/>
        <pt x="158" y="562" on="1"/>
        <pt x="82" y="562" on="1"/>
        <pt x="106" y="658" on="1"/>
        <pt x="444" y="658" on="1"/>
        <pt x="420" y="564" on="1"/>
        <pt x="356" y="564" on="1"/>
        <pt x="427" y="417" on="1"/>
        <pt x="573" y="564" on="1"/>
        <pt x="503" y="564" on="1"/>
        <pt x="527" y="658" on="1"/>
        <pt x="799" y="658" on="1"/>
        <pt x="775" y="562" on="1"/>
        <pt x="702" y="562" on="1"/>
        <pt x="475" y="348" on="1"/>
        <pt x="607" y="96" on="1"/>
        <pt x="683" y="96" on="1"/>
        <pt x="659" y="0" on="1"/>
        <pt x="321" y="0" on="1"/>
        <pt x="345" y="94" on="1"/>
        <pt x="409" y="94" on="1"/>
        <pt x="336" y="247" on="1"/>
        <pt x="184" y="94" on="1"/>
        <pt x="254" y="94" on="1"/>
        <pt x="230" y="0" on="1"/>
      </contour>
    </TTGlyph>
    <TTGlyph name="Y" xMin="77" yMin="0" xMax="780" yMax="658">
      <contour>
        <pt x="110" y="0" on="1"/>
        <pt x="134" y="96" on="1"/>
        <pt x="218" y="96" on="1"/>
        <pt x="261" y="268" on="1"/>
        <pt x="152" y="562" on="1"/>
        <pt x="77" y="562" on="1"/>
        <pt x="101" y="658" on="1"/>
        <pt x="445" y="658" on="1"/>
        <pt x="421" y="564" on="1"/>
        <pt x="347" y="564" on="1"/>
        <pt x="414" y="364" on="1"/>
        <pt x="575" y="564" on="1"/>
        <pt x="496" y="564" on="1"/>
        <pt x="520" y="658" on="1"/>
        <pt x="780" y="658" on="1"/>
        <pt x="756" y="562" on="1"/>
        <pt x="691" y="562" on="1"/>
        <pt x="442" y="271" on="1"/>
        <pt x="398" y="96" on="1"/>
        <pt x="482" y="96" on="1"/>
        <pt x="458" y="0" on="1"/>
      </contour>
    </TTGlyph>
    <TTGlyph name="Yacute" xMin="77" yMin="0" xMax="780" yMax="948">
      <component glyphName="Y" x="0" y="0" flags="0x204"/>
      <component glyphName="acute" x="296" y="188" flags="0x4"/>
    </TTGlyph>
    <TTGlyph name="Ycircumflex" xMin="77" yMin="0" xMax="780" yMax="927">
      <component glyphName="Y" x="0" y="0" flags="0x204"/>
      <component glyphName="circumflex" x="198" y="188" flags="0x4"/>
    </TTGlyph>
    <TTGlyph name="Ydieresis" xMin="77" yMin="0" xMax="780" yMax="885">
      <component glyphName="Y" x="0" y="0" flags="0x204"/>
      <component glyphName="dieresis" x="187" y="188" flags="0x4"/>
    </TTGlyph>
    <TTGlyph name="Ygrave" xMin="77" yMin="0" xMax="780" yMax="949">
      <component glyphName="Y" x="0" y="0" flags="0x204"/>
      <component glyphName="grave" x="181" y="188" flags="0x4"/>
    </TTGlyph>
    <TTGlyph name="Z" xMin="-30" yMin="0" xMax="715" yMax="658">
      <contour>
        <pt x="-30" y="0" on="1"/>
        <pt x="-7" y="91" on="1"/>
        <pt x="469" y="565" on="1"/>
        <pt x="352" y="565" on="1"/>
        <pt x="323" y="565" on="0"/>
        <pt x="282" y="553" on="0"/>
        <pt x="244" y="516" on="0"/>
        <pt x="202" y="444" on="0"/>
        <pt x="172" y="385" on="1"/>
        <pt x="84" y="385" on="1"/>
        <pt x="153" y="658" on="1"/>
        <pt x="715" y="658" on="1"/>
        <pt x="692" y="567" on="1"/>
        <pt x="213" y="93" on="1"/>
        <pt x="353" y="93" on="1"/>
        <pt x="382" y="93" on="0"/>
        <pt x="424" y="105" on="0"/>
        <pt x="462" y="144" on="0"/>
        <pt x="505" y="220" on="0"/>
        <pt x="536" y="283" on="1"/>
        <pt x="624" y="283" on="1"/>
        <pt x="553" y="0" on="1"/>
      </contour>
    </TTGlyph>
    <TTGlyph name="Zacute" xMin="-30" yMin="0" xMax="715" yMax="948">
      <component glyphName="Z" x="0" y="0" flags="0x204"/>
      <component glyphName="acute" x="276" y="188" flags="0x4"/>
    </TTGlyph>
    <TTGlyph name="Zcaron" xMin="-30" yMin="0" xMax="715" yMax="927">
      <component glyphName="Z" x="0" y="0" flags="0x204"/>
      <component glyphName="caron" x="203" y="188" flags="0x4"/>
    </TTGlyph>
    <TTGlyph name="Zdotaccent" xMin="-30" yMin="0" xMax="715" yMax="892">
      <component glyphName="Z" x="0" y="0" flags="0x204"/>
      <component glyphName="dotaccent" x="263" y="188" flags="0x4"/>
    </TTGlyph>
    <TTGlyph name="a" xMin="22" yMin="-11" xMax="610" yMax="484">
      <contour>
        <pt x="153" y="-11" on="1"/>
        <pt x="92" y="-11" on="0"/>
        <pt x="22" y="74" on="0"/>
        <pt x="22" y="154" on="1"/>
        <pt x="22" y="187" on="0"/>
        <pt x="35" y="260" on="0"/>
        <pt x="61" y="330" on="0"/>
        <pt x="100" y="395" on="0"/>
        <pt x="126" y="421" on="1"/>
        <pt x="157" y="452" on="0"/>
        <pt x="226" y="484" on="0"/>
        <pt x="265" y="484" on="1"/>
        <pt x="315" y="484" on="0"/>
        <pt x="374" y="424" on="0"/>
        <pt x="383" y="386" on="1"/>
        <pt x="410" y="473" on="1"/>
        <pt x="576" y="473" on="1"/>
        <pt x="484" y="160" on="1"/>
        <pt x="480" y="147" on="0"/>
        <pt x="476" y="125" on="0"/>
        <pt x="476" y="115" on="1"/>
        <pt x="476" y="103" on="0"/>
        <pt x="487" y="91" on="0"/>
        <pt x="497" y="91" on="1"/>
        <pt x="510" y="91" on="0"/>
        <pt x="535" y="119" on="0"/>
        <pt x="555" y="168" on="1"/>
        <pt x="610" y="147" on="1"/>
        <pt x="579" y="65" on="0"/>
        <pt x="494" y="-11" on="0"/>
        <pt x="437" y="-11" on="1"/>
        <pt x="386" y="-11" on="0"/>
        <pt x="329" y="38" on="0"/>
        <pt x="329" y="83" on="1"/>
        <pt x="329" y="89" on="0"/>
        <pt x="331" y="104" on="0"/>
        <pt x="332" y="114" on="1"/>
        <pt x="326" y="116" on="1"/>
        <pt x="290" y="51" on="0"/>
        <pt x="210" y="-11" on="0"/>
      </contour>
      <contour>
        <pt x="231" y="90" on="1"/>
        <pt x="259" y="90" on="0"/>
        <pt x="306" y="145" on="0"/>
        <pt x="341" y="222" on="0"/>
        <pt x="361" y="306" on="0"/>
        <pt x="361" y="335" on="1"/>
        <pt x="361" y="367" on="0"/>
        <pt x="339" y="397" on="0"/>
        <pt x="319" y="397" on="1"/>
        <pt x="294" y="397" on="0"/>
        <pt x="248" y="343" on="0"/>
        <pt x="212" y="267" on="0"/>
        <pt x="191" y="181" on="0"/>
        <pt x="191" y="149" on="1"/>
        <pt x="191" y="116" on="0"/>
        <pt x="215" y="90" on="0"/>
      </contour>
    </TTGlyph>
    <TTGlyph name="aacute" xMin="22" yMin="-11" xMax="610" yMax="760">
      <component glyphName="a" x="0" y="0" flags="0x204"/>
      <component glyphName="acute" x="191" y="0" flags="0x4"/>
    </TTGlyph>
    <TTGlyph name="abreve" xMin="22" yMin="-11" xMax="610" yMax="725">
      <component glyphName="a" x="0" y="0" flags="0x204"/>
      <component glyphName="breve" x="94" y="0" flags="0x4"/>
    </TTGlyph>
    <TTGlyph name="acircumflex" xMin="22" yMin="-11" xMax="610" yMax="739">
      <component glyphName="a" x="0" y="0" flags="0x204"/>
      <component glyphName="circumflex" x="93" y="0" flags="0x4"/>
    </TTGlyph>
    <TTGlyph name="acute" xMin="107" yMin="536" xMax="364" yMax="760">
      <contour>
        <pt x="107" y="536" on="1"/>
        <pt x="190" y="669" on="1"/>
        <pt x="214" y="707" on="0"/>
        <pt x="259" y="760" on="0"/>
        <pt x="292" y="760" on="1"/>
        <pt x="325" y="760" on="0"/>
        <pt x="364" y="717" on="0"/>
        <pt x="364" y="692" on="1"/>
        <pt x="364" y="658" on="0"/>
        <pt x="314" y="617" on="0"/>
        <pt x="280" y="595" on="1"/>
        <pt x="186" y="536" on="1"/>
      </contour>
    </TTGlyph>
    <TTGlyph name="adieresis" xMin="22" yMin="-11" xMax="610" yMax="697">
      <component glyphName="a" x="0" y="0" flags="0x204"/>
      <component glyphName="dieresis" x="82" y="0" flags="0x4"/>
    </TTGlyph>
    <TTGlyph name="ae" xMin="8" yMin="-11" xMax="776" yMax="484">
      <contour>
        <pt x="508" y="-11" on="1"/>
        <pt x="445" y="-11" on="0"/>
        <pt x="352" y="35" on="0"/>
        <pt x="330" y="78" on="1"/>
        <pt x="277" y="20" on="0"/>
        <pt x="177" y="-11" on="0"/>
        <pt x="145" y="-11" on="1"/>
        <pt x="75" y="-11" on="0"/>
        <pt x="8" y="61" on="0"/>
        <pt x="8" y="107" on="1"/>
        <pt x="8" y="151" on="0"/>
        <pt x="56" y="211" on="0"/>
        <pt x="139" y="247" on="0"/>
        <pt x="253" y="264" on="0"/>
        <pt x="318" y="267" on="1"/>
        <pt x="325" y="295" on="0"/>
        <pt x="330" y="331" on="0"/>
        <pt x="330" y="338" on="1"/>
        <pt x="330" y="372" on="0"/>
        <pt x="290" y="403" on="0"/>
        <pt x="252" y="403" on="1"/>
        <pt x="241" y="403" on="0"/>
        <pt x="216" y="400" on="0"/>
        <pt x="206" y="396" on="1"/>
        <pt x="213" y="389" on="0"/>
        <pt x="220" y="366" on="0"/>
        <pt x="220" y="359" on="1"/>
        <pt x="220" y="325" on="0"/>
        <pt x="170" y="286" on="0"/>
        <pt x="139" y="286" on="1"/>
        <pt x="99" y="286" on="0"/>
        <pt x="66" y="331" on="0"/>
        <pt x="66" y="352" on="1"/>
        <pt x="66" y="387" on="0"/>
        <pt x="103" y="437" on="0"/>
        <pt x="165" y="469" on="0"/>
        <pt x="245" y="484" on="0"/>
        <pt x="288" y="484" on="1"/>
        <pt x="345" y="484" on="0"/>
        <pt x="420" y="458" on="0"/>
        <pt x="440" y="434" on="1"/>
        <pt x="477" y="459" on="0"/>
        <pt x="562" y="484" on="0"/>
        <pt x="607" y="484" on="1"/>
        <pt x="688" y="484" on="0"/>
        <pt x="776" y="415" on="0"/>
        <pt x="776" y="361" on="1"/>
        <pt x="776" y="292" on="0"/>
        <pt x="630" y="194" on="0"/>
        <pt x="467" y="193" on="1"/>
        <pt x="468" y="124" on="0"/>
        <pt x="530" y="77" on="0"/>
        <pt x="565" y="77" on="1"/>
        <pt x="596" y="77" on="0"/>
        <pt x="660" y="109" on="0"/>
        <pt x="696" y="149" on="1"/>
        <pt x="741" y="107" on="1"/>
        <pt x="700" y="59" on="0"/>
        <pt x="590" y="-11" on="0"/>
      </contour>
      <contour>
        <pt x="586" y="416" on="1"/>
        <pt x="565" y="416" on="0"/>
        <pt x="529" y="386" on="0"/>
        <pt x="499" y="339" on="0"/>
        <pt x="478" y="279" on="0"/>
        <pt x="472" y="248" on="1"/>
        <pt x="518" y="250" on="0"/>
        <pt x="577" y="273" on="0"/>
        <pt x="611" y="306" on="0"/>
        <pt x="625" y="346" on="0"/>
        <pt x="625" y="364" on="1"/>
        <pt x="625" y="389" on="0"/>
        <pt x="604" y="416" on="0"/>
      </contour>
      <contour>
        <pt x="216" y="83" on="1"/>
        <pt x="235" y="83" on="0"/>
        <pt x="286" y="106" on="0"/>
        <pt x="311" y="134" on="1"/>
        <pt x="310" y="144" on="0"/>
        <pt x="307" y="168" on="0"/>
        <pt x="307" y="181" on="1"/>
        <pt x="307" y="190" on="0"/>
        <pt x="308" y="207" on="0"/>
        <pt x="309" y="216" on="1"/>
        <pt x="284" y="214" on="0"/>
        <pt x="233" y="206" on="0"/>
        <pt x="193" y="188" on="0"/>
        <pt x="167" y="159" on="0"/>
        <pt x="167" y="136" on="1"/>
        <pt x="167" y="115" on="0"/>
        <pt x="193" y="83" on="0"/>
      </contour>
    </TTGlyph>
    <TTGlyph name="aeacute" xMin="8" yMin="-11" xMax="776" yMax="760">
      <component glyphName="ae" x="0" y="0" flags="0x204"/>
      <component glyphName="acute" x="302" y="0" flags="0x4"/>
    </TTGlyph>
    <TTGlyph name="agrave" xMin="22" yMin="-11" xMax="610" yMax="761">
      <component glyphName="a" x="0" y="0" flags="0x204"/>
      <component glyphName="grave" x="76" y="0" flags="0x4"/>
    </TTGlyph>
    <TTGlyph name="amacron" xMin="22" yMin="-11" xMax="610" yMax="643">
      <component glyphName="a" x="0" y="0" flags="0x204"/>
      <component glyphName="macron" x="98" y="0" flags="0x4"/>
    </TTGlyph>
    <TTGlyph name="ampersand" xMin="11" yMin="-16" xMax="731" yMax="640">
      <contour>
        <pt x="185" y="-16" on="1"/>
        <pt x="110" y="-16" on="0"/>
        <pt x="11" y="71" on="0"/>
        <pt x="11" y="146" on="1"/>
        <pt x="11" y="210" on="0"/>
        <pt x="102" y="314" on="0"/>
        <pt x="215" y="345" on="1"/>
        <pt x="188" y="385" on="0"/>
        <pt x="168" y="441" on="0"/>
        <pt x="168" y="472" on="1"/>
        <pt x="168" y="546" on="0"/>
        <pt x="289" y="640" on="0"/>
        <pt x="382" y="640" on="1"/>
        <pt x="466" y="640" on="0"/>
        <pt x="563" y="559" on="0"/>
        <pt x="563" y="503" on="1"/>
        <pt x="563" y="487" on="0"/>
        <pt x="552" y="447" on="0"/>
        <pt x="517" y="405" on="0"/>
        <pt x="451" y="363" on="0"/>
        <pt x="397" y="345" on="1"/>
        <pt x="419" y="312" on="0"/>
        <pt x="452" y="249" on="0"/>
        <pt x="464" y="219" on="1"/>
        <pt x="484" y="251" on="0"/>
        <pt x="522" y="315" on="0"/>
        <pt x="564" y="364" on="0"/>
        <pt x="614" y="395" on="0"/>
        <pt x="645" y="395" on="1"/>
        <pt x="677" y="395" on="0"/>
        <pt x="731" y="355" on="0"/>
        <pt x="731" y="313" on="1"/>
        <pt x="731" y="281" on="0"/>
        <pt x="684" y="221" on="0"/>
        <pt x="647" y="221" on="1"/>
        <pt x="616" y="221" on="0"/>
        <pt x="583" y="254" on="0"/>
        <pt x="584" y="277" on="1"/>
        <pt x="559" y="261" on="0"/>
        <pt x="515" y="203" on="0"/>
        <pt x="492" y="169" on="1"/>
        <pt x="511" y="130" on="0"/>
        <pt x="547" y="99" on="0"/>
        <pt x="565" y="99" on="1"/>
        <pt x="581" y="99" on="0"/>
        <pt x="618" y="125" on="0"/>
        <pt x="639" y="165" on="1"/>
        <pt x="690" y="135" on="1"/>
        <pt x="656" y="63" on="0"/>
        <pt x="581" y="-16" on="0"/>
        <pt x="516" y="-16" on="1"/>
        <pt x="465" y="-16" on="0"/>
        <pt x="402" y="25" on="0"/>
        <pt x="375" y="69" on="1"/>
        <pt x="339" y="30" on="0"/>
        <pt x="251" y="-16" on="0"/>
      </contour>
      <contour>
        <pt x="323" y="501" on="1"/>
        <pt x="323" y="483" on="0"/>
        <pt x="341" y="434" on="0"/>
        <pt x="364" y="395" on="1"/>
        <pt x="409" y="422" on="0"/>
        <pt x="440" y="481" on="0"/>
        <pt x="440" y="507" on="1"/>
        <pt x="440" y="533" on="0"/>
        <pt x="411" y="570" on="0"/>
        <pt x="384" y="570" on="1"/>
        <pt x="356" y="570" on="0"/>
        <pt x="323" y="531" on="0"/>
      </contour>
      <contour>
        <pt x="177" y="173" on="1"/>
        <pt x="177" y="135" on="0"/>
        <pt x="220" y="85" on="0"/>
        <pt x="257" y="85" on="1"/>
        <pt x="282" y="85" on="0"/>
        <pt x="322" y="100" on="0"/>
        <pt x="341" y="116" on="1"/>
        <pt x="323" y="167" on="0"/>
        <pt x="280" y="249" on="0"/>
        <pt x="250" y="293" on="1"/>
        <pt x="205" y="265" on="0"/>
        <pt x="177" y="198" on="0"/>
      </contour>
    </TTGlyph>
    <TTGlyph name="aogonek" xMin="22" yMin="-253" xMax="610" yMax="484">
      <contour>
        <pt x="395" y="-253" on="1"/>
        <pt x="370" y="-253" on="0"/>
        <pt x="322" y="-242" on="0"/>
        <pt x="285" y="-218" on="0"/>
        <pt x="263" y="-180" on="0"/>
        <pt x="263" y="-153" on="1"/>
        <pt x="263" y="-107" on="0"/>
        <pt x="335" y="-36" on="0"/>
        <pt x="394" y="-5" on="1"/>
        <pt x="363" y="3" on="0"/>
        <pt x="329" y="49" on="0"/>
        <pt x="329" y="83" on="1"/>
        <pt x="329" y="89" on="0"/>
        <pt x="331" y="104" on="0"/>
        <pt x="332" y="114" on="1"/>
        <pt x="326" y="116" on="1"/>
        <pt x="290" y="51" on="0"/>
        <pt x="210" y="-11" on="0"/>
        <pt x="153" y="-11" on="1"/>
        <pt x="92" y="-11" on="0"/>
        <pt x="22" y="74" on="0"/>
        <pt x="22" y="154" on="1"/>
        <pt x="22" y="187" on="0"/>
        <pt x="35" y="260" on="0"/>
        <pt x="61" y="330" on="0"/>
        <pt x="100" y="395" on="0"/>
        <pt x="126" y="421" on="1"/>
        <pt x="157" y="452" on="0"/>
        <pt x="226" y="484" on="0"/>
        <pt x="265" y="484" on="1"/>
        <pt x="315" y="484" on="0"/>
        <pt x="374" y="424" on="0"/>
        <pt x="383" y="386" on="1"/>
        <pt x="410" y="473" on="1"/>
        <pt x="576" y="473" on="1"/>
        <pt x="484" y="160" on="1"/>
        <pt x="480" y="147" on="0"/>
        <pt x="476" y="125" on="0"/>
        <pt x="476" y="115" on="1"/>
        <pt x="476" y="103" on="0"/>
        <pt x="487" y="91" on="0"/>
        <pt x="497" y="91" on="1"/>
        <pt x="510" y="91" on="0"/>
        <pt x="535" y="119" on="0"/>
        <pt x="555" y="168" on="1"/>
        <pt x="610" y="147" on="1"/>
        <pt x="591" y="94" on="0"/>
        <pt x="542" y="23" on="0"/>
        <pt x="496" y="-8" on="1"/>
        <pt x="438" y="-48" on="0"/>
        <pt x="392" y="-103" on="0"/>
        <pt x="392" y="-128" on="1"/>
        <pt x="392" y="-144" on="0"/>
        <pt x="415" y="-173" on="0"/>
        <pt x="442" y="-173" on="1"/>
        <pt x="456" y="-173" on="0"/>
        <pt x="485" y="-166" on="0"/>
        <pt x="502" y="-156" on="1"/>
        <pt x="522" y="-215" on="1"/>
        <pt x="497" y="-231" on="0"/>
        <pt x="432" y="-253" on="0"/>
      </contour>
      <contour>
        <pt x="231" y="90" on="1"/>
        <pt x="259" y="90" on="0"/>
        <pt x="306" y="145" on="0"/>
        <pt x="341" y="222" on="0"/>
        <pt x="361" y="306" on="0"/>
        <pt x="361" y="335" on="1"/>
        <pt x="361" y="367" on="0"/>
        <pt x="339" y="397" on="0"/>
        <pt x="319" y="397" on="1"/>
        <pt x="294" y="397" on="0"/>
        <pt x="248" y="343" on="0"/>
        <pt x="212" y="267" on="0"/>
        <pt x="191" y="181" on="0"/>
        <pt x="191" y="149" on="1"/>
        <pt x="191" y="116" on="0"/>
        <pt x="215" y="90" on="0"/>
      </contour>
    </TTGlyph>
    <TTGlyph name="aring" xMin="22" yMin="-11" xMax="610" yMax="774">
      <component glyphName="a" x="0" y="0" flags="0x204"/>
      <component glyphName="ring" x="137" y="0" flags="0x4"/>
    </TTGlyph>
    <TTGlyph name="aringacute" xMin="22" yMin="-11" xMax="627" yMax="1040">
      <component glyphName="a" x="0" y="0" flags="0x204"/>
      <component glyphName="ring" x="137" y="0" flags="0x4"/>
      <component glyphName="acute" x="263" y="280" flags="0x4"/>
    </TTGlyph>
    <TTGlyph name="asciicircum" xMin="45" yMin="264" xMax="491" yMax="645">
      <contour>
        <pt x="45" y="264" on="1"/>
        <pt x="312" y="645" on="1"/>
        <pt x="414" y="645" on="1"/>
        <pt x="491" y="264" on="1"/>
        <pt x="382" y="264" on="1"/>
        <pt x="340" y="534" on="1"/>
        <pt x="164" y="264" on="1"/>
      </contour>
    </TTGlyph>
    <TTGlyph name="asciicircum.osf" xMin="43" yMin="257" xMax="489" yMax="638">
      <contour>
        <pt x="43" y="257" on="1"/>
        <pt x="310" y="638" on="1"/>
        <pt x="412" y="638" on="1"/>
        <pt x="489" y="257" on="1"/>
        <pt x="380" y="257" on="1"/>
        <pt x="338" y="527" on="1"/>
        <pt x="162" y="257" on="1"/>
      </contour>
    </TTGlyph>
    <TTGlyph name="asciicircum.tab" xMin="54" yMin="264" xMax="500" yMax="645">
      <contour>
        <pt x="54" y="264" on="1"/>
        <pt x="321" y="645" on="1"/>
        <pt x="423" y="645" on="1"/>
        <pt x="500" y="264" on="1"/>
        <pt x="391" y="264" on="1"/>
        <pt x="349" y="534" on="1"/>
        <pt x="173" y="264" on="1"/>
      </contour>
    </TTGlyph>
    <TTGlyph name="asciitilde" xMin="61" yMin="182" xMax="669" yMax="452">
      <contour>
        <pt x="143" y="182" on="1"/>
        <pt x="61" y="226" on="1"/>
        <pt x="111" y="337" on="0"/>
        <pt x="210" y="449" on="0"/>
        <pt x="271" y="449" on="1"/>
        <pt x="312" y="449" on="0"/>
        <pt x="367" y="401" on="0"/>
        <pt x="409" y="345" on="0"/>
        <pt x="445" y="297" on="0"/>
        <pt x="466" y="297" on="1"/>
        <pt x="500" y="297" on="0"/>
        <pt x="555" y="383" on="0"/>
        <pt x="587" y="452" on="1"/>
        <pt x="669" y="408" on="1"/>
        <pt x="620" y="297" on="0"/>
        <pt x="520" y="185" on="0"/>
        <pt x="459" y="185" on="1"/>
        <pt x="420" y="185" on="0"/>
        <pt x="364" y="233" on="0"/>
        <pt x="321" y="289" on="0"/>
        <pt x="284" y="337" on="0"/>
        <pt x="264" y="337" on="1"/>
        <pt x="230" y="337" on="0"/>
        <pt x="175" y="251" on="0"/>
      </contour>
    </TTGlyph>
    <TTGlyph name="asciitilde.osf" xMin="54" yMin="152" xMax="662" yMax="422">
      <contour>
        <pt x="136" y="152" on="1"/>
        <pt x="54" y="196" on="1"/>
        <pt x="104" y="307" on="0"/>
        <pt x="203" y="419" on="0"/>
        <pt x="264" y="419" on="1"/>
        <pt x="305" y="419" on="0"/>
        <pt x="360" y="371" on="0"/>
        <pt x="402" y="315" on="0"/>
        <pt x="438" y="267" on="0"/>
        <pt x="459" y="267" on="1"/>
        <pt x="493" y="267" on="0"/>
        <pt x="548" y="353" on="0"/>
        <pt x="580" y="422" on="1"/>
        <pt x="662" y="378" on="1"/>
        <pt x="613" y="267" on="0"/>
        <pt x="513" y="155" on="0"/>
        <pt x="452" y="155" on="1"/>
        <pt x="413" y="155" on="0"/>
        <pt x="357" y="203" on="0"/>
        <pt x="314" y="259" on="0"/>
        <pt x="277" y="307" on="0"/>
        <pt x="257" y="307" on="1"/>
        <pt x="223" y="307" on="0"/>
        <pt x="168" y="221" on="0"/>
      </contour>
    </TTGlyph>
    <TTGlyph name="asciitilde.tab" xMin="17" yMin="162" xMax="561" yMax="472">
      <contour>
        <pt x="106" y="162" on="1"/>
        <pt x="17" y="190" on="1"/>
        <pt x="54" y="337" on="0"/>
        <pt x="165" y="471" on="0"/>
        <pt x="222" y="471" on="1"/>
        <pt x="265" y="471" on="0"/>
        <pt x="308" y="411" on="0"/>
        <pt x="333" y="339" on="0"/>
        <pt x="352" y="279" on="0"/>
        <pt x="371" y="279" on="1"/>
        <pt x="399" y="279" on="0"/>
        <pt x="447" y="384" on="0"/>
        <pt x="471" y="472" on="1"/>
        <pt x="561" y="444" on="1"/>
        <pt x="523" y="297" on="0"/>
        <pt x="412" y="163" on="0"/>
        <pt x="355" y="163" on="1"/>
        <pt x="312" y="163" on="0"/>
        <pt x="269" y="223" on="0"/>
        <pt x="244" y="295" on="0"/>
        <pt x="225" y="355" on="0"/>
        <pt x="206" y="355" on="1"/>
        <pt x="178" y="355" on="0"/>
        <pt x="130" y="250" on="0"/>
      </contour>
    </TTGlyph>
    <TTGlyph name="asterisk" xMin="120" yMin="304" xMax="498" yMax="698">
      <contour>
        <pt x="359" y="312" on="1"/>
        <pt x="334" y="304" on="0"/>
        <pt x="294" y="323" on="0"/>
        <pt x="287" y="347" on="1"/>
        <pt x="281" y="366" on="0"/>
        <pt x="287" y="426" on="0"/>
        <pt x="294" y="466" on="1"/>
        <pt x="281" y="470" on="1"/>
        <pt x="262" y="433" on="0"/>
        <pt x="230" y="382" on="0"/>
        <pt x="214" y="370" on="1"/>
        <pt x="194" y="357" on="0"/>
        <pt x="150" y="365" on="0"/>
        <pt x="136" y="384" on="1"/>
        <pt x="120" y="406" on="0"/>
        <pt x="127" y="449" on="0"/>
        <pt x="148" y="462" on="1"/>
        <pt x="164" y="475" on="0"/>
        <pt x="222" y="489" on="0"/>
        <pt x="264" y="494" on="1"/>
        <pt x="264" y="509" on="1"/>
        <pt x="222" y="514" on="0"/>
        <pt x="164" y="530" on="0"/>
        <pt x="148" y="542" on="1"/>
        <pt x="128" y="556" on="0"/>
        <pt x="122" y="599" on="0"/>
        <pt x="138" y="620" on="1"/>
        <pt x="153" y="639" on="0"/>
        <pt x="196" y="647" on="0"/>
        <pt x="216" y="633" on="1"/>
        <pt x="232" y="621" on="0"/>
        <pt x="263" y="569" on="0"/>
        <pt x="281" y="531" on="1"/>
        <pt x="294" y="534" on="1"/>
        <pt x="287" y="576" on="0"/>
        <pt x="283" y="637" on="0"/>
        <pt x="290" y="656" on="1"/>
        <pt x="298" y="679" on="0"/>
        <pt x="337" y="698" on="0"/>
        <pt x="361" y="690" on="1"/>
        <pt x="386" y="682" on="0"/>
        <pt x="405" y="644" on="0"/>
        <pt x="398" y="619" on="1"/>
        <pt x="391" y="600" on="0"/>
        <pt x="352" y="555" on="0"/>
        <pt x="321" y="526" on="1"/>
        <pt x="329" y="515" on="1"/>
        <pt x="367" y="535" on="0"/>
        <pt x="423" y="557" on="0"/>
        <pt x="444" y="557" on="1"/>
        <pt x="469" y="557" on="0"/>
        <pt x="498" y="526" on="0"/>
        <pt x="498" y="500" on="1"/>
        <pt x="497" y="474" on="0"/>
        <pt x="468" y="442" on="0"/>
        <pt x="443" y="443" on="1"/>
        <pt x="422" y="444" on="0"/>
        <pt x="367" y="466" on="0"/>
        <pt x="330" y="486" on="1"/>
        <pt x="321" y="476" on="1"/>
        <pt x="352" y="446" on="0"/>
        <pt x="390" y="400" on="0"/>
        <pt x="395" y="381" on="1"/>
        <pt x="402" y="357" on="0"/>
        <pt x="383" y="319" on="0"/>
      </contour>
    </TTGlyph>
    <TTGlyph name="at" xMin="31" yMin="-155" xMax="882" yMax="691">
      <contour>
        <pt x="410" y="-155" on="1"/>
        <pt x="328" y="-155" on="0"/>
        <pt x="188" y="-106" on="0"/>
        <pt x="88" y="-16" on="0"/>
        <pt x="31" y="115" on="0"/>
        <pt x="31" y="197" on="1"/>
        <pt x="31" y="304" on="0"/>
        <pt x="112" y="486" on="0"/>
        <pt x="249" y="617" on="0"/>
        <pt x="432" y="691" on="0"/>
        <pt x="533" y="691" on="1"/>
        <pt x="607" y="691" on="0"/>
        <pt x="735" y="648" on="0"/>
        <pt x="828" y="567" on="0"/>
        <pt x="882" y="452" on="0"/>
        <pt x="882" y="380" on="1"/>
        <pt x="882" y="306" on="0"/>
        <pt x="843" y="184" on="0"/>
        <pt x="775" y="98" on="0"/>
        <pt x="685" y="51" on="0"/>
        <pt x="634" y="51" on="1"/>
        <pt x="611" y="51" on="0"/>
        <pt x="564" y="63" on="0"/>
        <pt x="526" y="89" on="0"/>
        <pt x="501" y="132" on="0"/>
        <pt x="500" y="163" on="1"/>
        <pt x="491" y="167" on="1"/>
        <pt x="466" y="110" on="0"/>
        <pt x="398" y="56" on="0"/>
        <pt x="358" y="56" on="1"/>
        <pt x="287" y="56" on="0"/>
        <pt x="225" y="146" on="0"/>
        <pt x="225" y="207" on="1"/>
        <pt x="225" y="263" on="0"/>
        <pt x="258" y="364" on="0"/>
        <pt x="313" y="438" on="0"/>
        <pt x="388" y="482" on="0"/>
        <pt x="429" y="482" on="1"/>
        <pt x="470" y="482" on="0"/>
        <pt x="524" y="431" on="0"/>
        <pt x="532" y="398" on="1"/>
        <pt x="552" y="473" on="1"/>
        <pt x="693" y="473" on="1"/>
        <pt x="629" y="248" on="1"/>
        <pt x="612" y="188" on="0"/>
        <pt x="629" y="127" on="0"/>
        <pt x="672" y="127" on="1"/>
        <pt x="700" y="127" on="0"/>
        <pt x="752" y="168" on="0"/>
        <pt x="791" y="237" on="0"/>
        <pt x="814" y="329" on="0"/>
        <pt x="814" y="380" on="1"/>
        <pt x="814" y="439" on="0"/>
        <pt x="772" y="533" on="0"/>
        <pt x="697" y="599" on="0"/>
        <pt x="591" y="634" on="0"/>
        <pt x="527" y="634" on="1"/>
        <pt x="442" y="634" on="0"/>
        <pt x="286" y="567" on="0"/>
        <pt x="169" y="451" on="0"/>
        <pt x="99" y="291" on="0"/>
        <pt x="99" y="198" on="1"/>
        <pt x="99" y="129" on="0"/>
        <pt x="145" y="19" on="0"/>
        <pt x="227" y="-57" on="0"/>
        <pt x="345" y="-98" on="0"/>
        <pt x="417" y="-98" on="1"/>
        <pt x="482" y="-98" on="0"/>
        <pt x="590" y="-71" on="0"/>
        <pt x="631" y="-49" on="1"/>
        <pt x="655" y="-99" on="1"/>
        <pt x="606" y="-124" on="0"/>
        <pt x="487" y="-155" on="0"/>
      </contour>
      <contour>
        <pt x="416" y="149" on="1"/>
        <pt x="439" y="149" on="0"/>
        <pt x="478" y="189" on="0"/>
        <pt x="506" y="247" on="0"/>
        <pt x="521" y="312" on="0"/>
        <pt x="521" y="337" on="1"/>
        <pt x="521" y="367" on="0"/>
        <pt x="496" y="403" on="0"/>
        <pt x="471" y="403" on="1"/>
        <pt x="446" y="403" on="0"/>
        <pt x="409" y="357" on="0"/>
        <pt x="385" y="295" on="0"/>
        <pt x="373" y="230" on="0"/>
        <pt x="373" y="211" on="1"/>
        <pt x="373" y="181" on="0"/>
        <pt x="394" y="149" on="0"/>
      </contour>
    </TTGlyph>
    <TTGlyph name="atilde" xMin="22" yMin="-11" xMax="610" yMax="711">
      <component glyphName="a" x="0" y="0" flags="0x204"/>
      <component glyphName="tilde" x="72" y="0" flags="0x4"/>
    </TTGlyph>
    <TTGlyph name="b" xMin="34" yMin="-11" xMax="534" yMax="692">
      <contour>
        <pt x="238" y="-11" on="1"/>
        <pt x="139" y="-11" on="0"/>
        <pt x="34" y="93" on="0"/>
        <pt x="34" y="175" on="1"/>
        <pt x="34" y="206" on="0"/>
        <pt x="52" y="300" on="0"/>
        <pt x="70" y="368" on="1"/>
        <pt x="132" y="601" on="1"/>
        <pt x="58" y="601" on="1"/>
        <pt x="81" y="692" on="1"/>
        <pt x="324" y="692" on="1"/>
        <pt x="214" y="345" on="1"/>
        <pt x="222" y="342" on="1"/>
        <pt x="260" y="414" on="0"/>
        <pt x="348" y="484" on="0"/>
        <pt x="399" y="484" on="1"/>
        <pt x="469" y="484" on="0"/>
        <pt x="534" y="391" on="0"/>
        <pt x="534" y="321" on="1"/>
        <pt x="534" y="269" on="0"/>
        <pt x="496" y="152" on="0"/>
        <pt x="423" y="54" on="0"/>
        <pt x="311" y="-11" on="0"/>
      </contour>
      <contour>
        <pt x="238" y="65" on="1"/>
        <pt x="266" y="65" on="0"/>
        <pt x="312" y="118" on="0"/>
        <pt x="346" y="194" on="0"/>
        <pt x="365" y="278" on="0"/>
        <pt x="365" y="308" on="1"/>
        <pt x="365" y="346" on="0"/>
        <pt x="338" y="380" on="0"/>
        <pt x="317" y="380" on="1"/>
        <pt x="292" y="380" on="0"/>
        <pt x="247" y="330" on="0"/>
        <pt x="213" y="256" on="0"/>
        <pt x="193" y="169" on="0"/>
        <pt x="193" y="133" on="1"/>
        <pt x="193" y="99" on="0"/>
        <pt x="220" y="65" on="0"/>
      </contour>
    </TTGlyph>
    <TTGlyph name="backslash" xMin="117" yMin="-213" xMax="376" yMax="724">
      <contour>
        <pt x="278" y="-213" on="1"/>
        <pt x="117" y="704" on="1"/>
        <pt x="215" y="724" on="1"/>
        <pt x="376" y="-193" on="1"/>
      </contour>
    </TTGlyph>
    <TTGlyph name="bar" xMin="-14" yMin="-212" xMax="314" yMax="722">
      <contour>
        <pt x="85" y="-212" on="1"/>
        <pt x="-14" y="-198" on="1"/>
        <pt x="215" y="722" on="1"/>
        <pt x="314" y="708" on="1"/>
      </contour>
    </TTGlyph>
    <TTGlyph name="bar.tab" xMin="-9" yMin="-151" xMax="319" yMax="783">
      <component glyphName="bar" x="5" y="61" flags="0x4"/>
    </TTGlyph>
    <TTGlyph name="braceleft" xMin="18" yMin="-161" xMax="530" yMax="729">
      <contour>
        <pt x="320" y="-161" on="1"/>
        <pt x="196" y="-152" on="0"/>
        <pt x="85" y="-79" on="0"/>
        <pt x="85" y="-18" on="1"/>
        <pt x="85" y="7" on="0"/>
        <pt x="103" y="61" on="0"/>
        <pt x="125" y="113" on="0"/>
        <pt x="143" y="161" on="0"/>
        <pt x="143" y="180" on="1"/>
        <pt x="143" y="200" on="0"/>
        <pt x="91" y="233" on="0"/>
        <pt x="33" y="233" on="1"/>
        <pt x="18" y="233" on="1"/>
        <pt x="42" y="332" on="1"/>
        <pt x="67" y="332" on="1"/>
        <pt x="106" y="332" on="0"/>
        <pt x="157" y="345" on="0"/>
        <pt x="173" y="361" on="1"/>
        <pt x="198" y="386" on="0"/>
        <pt x="211" y="463" on="0"/>
        <pt x="219" y="548" on="0"/>
        <pt x="239" y="633" on="0"/>
        <pt x="272" y="666" on="1"/>
        <pt x="318" y="712" on="0"/>
        <pt x="459" y="729" on="0"/>
        <pt x="530" y="726" on="1"/>
        <pt x="511" y="644" on="1"/>
        <pt x="473" y="642" on="0"/>
        <pt x="426" y="631" on="0"/>
        <pt x="412" y="617" on="1"/>
        <pt x="392" y="597" on="0"/>
        <pt x="377" y="524" on="0"/>
        <pt x="364" y="442" on="0"/>
        <pt x="341" y="362" on="0"/>
        <pt x="313" y="334" on="1"/>
        <pt x="285" y="306" on="0"/>
        <pt x="206" y="287" on="0"/>
        <pt x="156" y="282" on="1"/>
        <pt x="154" y="273" on="1"/>
        <pt x="223" y="262" on="0"/>
        <pt x="295" y="220" on="0"/>
        <pt x="295" y="178" on="1"/>
        <pt x="295" y="160" on="0"/>
        <pt x="280" y="109" on="0"/>
        <pt x="262" y="56" on="0"/>
        <pt x="247" y="7" on="0"/>
        <pt x="247" y="-11" on="1"/>
        <pt x="247" y="-39" on="0"/>
        <pt x="288" y="-69" on="0"/>
        <pt x="339" y="-78" on="1"/>
      </contour>
    </TTGlyph>
    <TTGlyph name="braceright" xMin="-105" yMin="-163" xMax="407" yMax="727">
      <contour>
        <pt x="105" y="727" on="1"/>
        <pt x="229" y="718" on="0"/>
        <pt x="340" y="645" on="0"/>
        <pt x="340" y="584" on="1"/>
        <pt x="340" y="559" on="0"/>
        <pt x="322" y="505" on="0"/>
        <pt x="300" y="453" on="0"/>
        <pt x="282" y="405" on="0"/>
        <pt x="282" y="386" on="1"/>
        <pt x="282" y="366" on="0"/>
        <pt x="334" y="333" on="0"/>
        <pt x="392" y="333" on="1"/>
        <pt x="407" y="333" on="1"/>
        <pt x="383" y="234" on="1"/>
        <pt x="358" y="234" on="1"/>
        <pt x="319" y="234" on="0"/>
        <pt x="268" y="221" on="0"/>
        <pt x="252" y="205" on="1"/>
        <pt x="227" y="180" on="0"/>
        <pt x="214" y="103" on="0"/>
        <pt x="206" y="18" on="0"/>
        <pt x="186" y="-67" on="0"/>
        <pt x="153" y="-100" on="1"/>
        <pt x="107" y="-146" on="0"/>
        <pt x="-34" y="-163" on="0"/>
        <pt x="-105" y="-160" on="1"/>
        <pt x="-86" y="-78" on="1"/>
        <pt x="-48" y="-76" on="0"/>
        <pt x="-1" y="-65" on="0"/>
        <pt x="13" y="-51" on="1"/>
        <pt x="33" y="-31" on="0"/>
        <pt x="48" y="42" on="0"/>
        <pt x="61" y="124" on="0"/>
        <pt x="84" y="204" on="0"/>
        <pt x="112" y="232" on="1"/>
        <pt x="140" y="260" on="0"/>
        <pt x="219" y="279" on="0"/>
        <pt x="269" y="284" on="1"/>
        <pt x="271" y="293" on="1"/>
        <pt x="202" y="304" on="0"/>
        <pt x="130" y="346" on="0"/>
        <pt x="130" y="388" on="1"/>
        <pt x="130" y="406" on="0"/>
        <pt x="145" y="457" on="0"/>
        <pt x="163" y="510" on="0"/>
        <pt x="178" y="559" on="0"/>
        <pt x="178" y="577" on="1"/>
        <pt x="178" y="605" on="0"/>
        <pt x="137" y="635" on="0"/>
        <pt x="86" y="644" on="1"/>
      </contour>
    </TTGlyph>
    <TTGlyph name="bracketleft" xMin="-24" yMin="-161" xMax="503" yMax="726">
      <contour>
        <pt x="-24" y="-161" on="1"/>
        <pt x="196" y="726" on="1"/>
        <pt x="503" y="726" on="1"/>
        <pt x="482" y="642" on="1"/>
        <pt x="335" y="642" on="1"/>
        <pt x="156" y="-77" on="1"/>
        <pt x="303" y="-77" on="1"/>
        <pt x="282" y="-161" on="1"/>
      </contour>
    </TTGlyph>
    <TTGlyph name="bracketright" xMin="-103" yMin="-161" xMax="424" yMax="726">
      <contour>
        <pt x="424" y="726" on="1"/>
        <pt x="204" y="-161" on="1"/>
        <pt x="-103" y="-161" on="1"/>
        <pt x="-82" y="-77" on="1"/>
        <pt x="65" y="-77" on="1"/>
        <pt x="244" y="642" on="1"/>
        <pt x="97" y="642" on="1"/>
        <pt x="118" y="726" on="1"/>
      </contour>
    </TTGlyph>
    <TTGlyph name="breve" xMin="131" yMin="530" xMax="470" yMax="725">
      <contour>
        <pt x="270" y="530" on="1"/>
        <pt x="235" y="530" on="0"/>
        <pt x="177" y="553" on="0"/>
        <pt x="142" y="601" on="0"/>
        <pt x="131" y="675" on="0"/>
        <pt x="143" y="725" on="1"/>
        <pt x="222" y="725" on="1"/>
        <pt x="217" y="679" on="0"/>
        <pt x="258" y="641" on="0"/>
        <pt x="288" y="641" on="1"/>
        <pt x="322" y="641" on="0"/>
        <pt x="374" y="682" on="0"/>
        <pt x="387" y="725" on="1"/>
        <pt x="470" y="725" on="1"/>
        <pt x="451" y="625" on="0"/>
        <pt x="346" y="530" on="0"/>
      </contour>
    </TTGlyph>
    <TTGlyph name="bullet" xMin="108" yMin="157" xMax="415" yMax="490">
      <contour>
        <pt x="248" y="157" on="1"/>
        <pt x="185" y="157" on="0"/>
        <pt x="108" y="244" on="0"/>
        <pt x="108" y="306" on="1"/>
        <pt x="108" y="384" on="0"/>
        <pt x="206" y="490" on="0"/>
        <pt x="275" y="490" on="1"/>
        <pt x="338" y="490" on="0"/>
        <pt x="415" y="403" on="0"/>
        <pt x="415" y="341" on="1"/>
        <pt x="415" y="263" on="0"/>
        <pt x="317" y="157" on="0"/>
      </contour>
    </TTGlyph>
    <TTGlyph name="c" xMin="20" yMin="-11" xMax="490" yMax="484">
      <contour>
        <pt x="228" y="-11" on="1"/>
        <pt x="134" y="-11" on="0"/>
        <pt x="20" y="92" on="0"/>
        <pt x="20" y="181" on="1"/>
        <pt x="20" y="244" on="0"/>
        <pt x="69" y="355" on="0"/>
        <pt x="151" y="437" on="0"/>
        <pt x="260" y="484" on="0"/>
        <pt x="320" y="484" on="1"/>
        <pt x="352" y="484" on="0"/>
        <pt x="414" y="467" on="0"/>
        <pt x="461" y="433" on="0"/>
        <pt x="490" y="380" on="0"/>
        <pt x="490" y="343" on="1"/>
        <pt x="490" y="298" on="0"/>
        <pt x="436" y="236" on="0"/>
        <pt x="397" y="236" on="1"/>
        <pt x="363" y="236" on="0"/>
        <pt x="325" y="274" on="0"/>
        <pt x="325" y="303" on="1"/>
        <pt x="325" y="334" on="0"/>
        <pt x="364" y="371" on="0"/>
        <pt x="382" y="376" on="1"/>
        <pt x="377" y="392" on="0"/>
        <pt x="352" y="410" on="0"/>
        <pt x="330" y="410" on="1"/>
        <pt x="300" y="410" on="0"/>
        <pt x="250" y="373" on="0"/>
        <pt x="213" y="313" on="0"/>
        <pt x="193" y="236" on="0"/>
        <pt x="193" y="196" on="1"/>
        <pt x="193" y="161" on="0"/>
        <pt x="210" y="117" on="0"/>
        <pt x="237" y="93" on="0"/>
        <pt x="268" y="84" on="0"/>
        <pt x="282" y="84" on="1"/>
        <pt x="316" y="84" on="0"/>
        <pt x="380" y="121" on="0"/>
        <pt x="411" y="161" on="1"/>
        <pt x="459" y="119" on="1"/>
        <pt x="442" y="96" on="0"/>
        <pt x="398" y="50" on="0"/>
        <pt x="342" y="13" on="0"/>
        <pt x="271" y="-11" on="0"/>
      </contour>
    </TTGlyph>
    <TTGlyph name="cacute" xMin="20" yMin="-11" xMax="511" yMax="760">
      <component glyphName="c" x="0" y="0" flags="0x204"/>
      <component glyphName="acute" x="147" y="0" flags="0x4"/>
    </TTGlyph>
    <TTGlyph name="caron" xMin="105" yMin="536" xMax="459" yMax="739">
      <contour>
        <pt x="184" y="536" on="1"/>
        <pt x="105" y="739" on="1"/>
        <pt x="200" y="739" on="1"/>
        <pt x="255" y="656" on="1"/>
        <pt x="353" y="739" on="1"/>
        <pt x="459" y="739" on="1"/>
        <pt x="282" y="536" on="1"/>
      </contour>
    </TTGlyph>
    <TTGlyph name="caron.alt" xMin="136" yMin="529" xMax="318" yMax="795">
      <contour>
        <pt x="136" y="529" on="1"/>
        <pt x="165" y="692" on="1"/>
        <pt x="175" y="745" on="0"/>
        <pt x="214" y="795" on="0"/>
        <pt x="250" y="795" on="1"/>
        <pt x="275" y="795" on="0"/>
        <pt x="318" y="758" on="0"/>
        <pt x="318" y="730" on="1"/>
        <pt x="318" y="702" on="0"/>
        <pt x="286" y="655" on="0"/>
        <pt x="257" y="614" on="1"/>
        <pt x="196" y="529" on="1"/>
      </contour>
    </TTGlyph>
    <TTGlyph name="ccaron" xMin="20" yMin="-11" xMax="533" yMax="739">
      <component glyphName="c" x="0" y="0" flags="0x204"/>
      <component glyphName="caron" x="74" y="0" flags="0x4"/>
    </TTGlyph>
    <TTGlyph name="ccedilla" xMin="18" yMin="-252" xMax="490" yMax="484">
      <contour>
        <pt x="165" y="-252" on="1"/>
        <pt x="130" y="-252" on="0"/>
        <pt x="49" y="-230" on="0"/>
        <pt x="18" y="-211" on="1"/>
        <pt x="55" y="-157" on="1"/>
        <pt x="72" y="-167" on="0"/>
        <pt x="124" y="-184" on="0"/>
        <pt x="151" y="-184" on="1"/>
        <pt x="171" y="-184" on="0"/>
        <pt x="194" y="-170" on="0"/>
        <pt x="194" y="-157" on="1"/>
        <pt x="194" y="-141" on="0"/>
        <pt x="148" y="-123" on="0"/>
        <pt x="102" y="-126" on="1"/>
        <pt x="86" y="-79" on="1"/>
        <pt x="188" y="-8" on="1"/>
        <pt x="111" y="2" on="0"/>
        <pt x="20" y="102" on="0"/>
        <pt x="20" y="181" on="1"/>
        <pt x="20" y="244" on="0"/>
        <pt x="69" y="355" on="0"/>
        <pt x="151" y="437" on="0"/>
        <pt x="260" y="484" on="0"/>
        <pt x="320" y="484" on="1"/>
        <pt x="352" y="484" on="0"/>
        <pt x="414" y="467" on="0"/>
        <pt x="461" y="433" on="0"/>
        <pt x="490" y="380" on="0"/>
        <pt x="490" y="343" on="1"/>
        <pt x="490" y="298" on="0"/>
        <pt x="436" y="236" on="0"/>
        <pt x="397" y="236" on="1"/>
        <pt x="363" y="236" on="0"/>
        <pt x="325" y="274" on="0"/>
        <pt x="325" y="303" on="1"/>
        <pt x="325" y="334" on="0"/>
        <pt x="364" y="371" on="0"/>
        <pt x="382" y="376" on="1"/>
        <pt x="377" y="392" on="0"/>
        <pt x="352" y="410" on="0"/>
        <pt x="330" y="410" on="1"/>
        <pt x="300" y="410" on="0"/>
        <pt x="250" y="373" on="0"/>
        <pt x="213" y="313" on="0"/>
        <pt x="193" y="236" on="0"/>
        <pt x="193" y="196" on="1"/>
        <pt x="193" y="161" on="0"/>
        <pt x="210" y="117" on="0"/>
        <pt x="237" y="93" on="0"/>
        <pt x="268" y="84" on="0"/>
        <pt x="282" y="84" on="1"/>
        <pt x="316" y="84" on="0"/>
        <pt x="380" y="121" on="0"/>
        <pt x="411" y="161" on="1"/>
        <pt x="459" y="119" on="1"/>
        <pt x="431" y="81" on="0"/>
        <pt x="344" y="7" on="0"/>
        <pt x="281" y="-6" on="1"/>
        <pt x="218" y="-56" on="1"/>
        <pt x="219" y="-60" on="1"/>
        <pt x="268" y="-70" on="0"/>
        <pt x="317" y="-116" on="0"/>
        <pt x="317" y="-147" on="1"/>
        <pt x="317" y="-194" on="0"/>
        <pt x="232" y="-252" on="0"/>
      </contour>
    </TTGlyph>
    <TTGlyph name="cdotaccent" xMin="20" yMin="-11" xMax="490" yMax="704">
      <component glyphName="c" x="0" y="0" flags="0x204"/>
      <component glyphName="dotaccent" x="134" y="0" flags="0x4"/>
    </TTGlyph>
    <TTGlyph name="cedilla" xMin="-102" yMin="-252" xMax="197" yMax="8">
      <contour>
        <pt x="45" y="-252" on="1"/>
        <pt x="10" y="-252" on="0"/>
        <pt x="-71" y="-230" on="0"/>
        <pt x="-102" y="-211" on="1"/>
        <pt x="-65" y="-157" on="1"/>
        <pt x="-48" y="-167" on="0"/>
        <pt x="4" y="-184" on="0"/>
        <pt x="31" y="-184" on="1"/>
        <pt x="51" y="-184" on="0"/>
        <pt x="74" y="-170" on="0"/>
        <pt x="74" y="-157" on="1"/>
        <pt x="74" y="-141" on="0"/>
        <pt x="28" y="-123" on="0"/>
        <pt x="-18" y="-126" on="1"/>
        <pt x="-34" y="-79" on="1"/>
        <pt x="92" y="8" on="1"/>
        <pt x="178" y="8" on="1"/>
        <pt x="98" y="-56" on="1"/>
        <pt x="99" y="-60" on="1"/>
        <pt x="148" y="-70" on="0"/>
        <pt x="197" y="-116" on="0"/>
        <pt x="197" y="-147" on="1"/>
        <pt x="197" y="-194" on="0"/>
        <pt x="112" y="-252" on="0"/>
      </contour>
    </TTGlyph>
    <TTGlyph name="cent" xMin="23" yMin="-106" xMax="539" yMax="570">
      <contour>
        <pt x="247" y="-106" on="1"/>
        <pt x="163" y="-96" on="1"/>
        <pt x="187" y="-3" on="1"/>
        <pt x="109" y="15" on="0"/>
        <pt x="23" y="119" on="0"/>
        <pt x="23" y="194" on="1"/>
        <pt x="23" y="251" on="0"/>
        <pt x="65" y="355" on="0"/>
        <pt x="140" y="433" on="0"/>
        <pt x="247" y="482" on="0"/>
        <pt x="312" y="484" on="1"/>
        <pt x="333" y="570" on="1"/>
        <pt x="417" y="560" on="1"/>
        <pt x="398" y="477" on="1"/>
        <pt x="471" y="462" on="0"/>
        <pt x="539" y="382" on="0"/>
        <pt x="539" y="336" on="1"/>
        <pt x="539" y="294" on="0"/>
        <pt x="492" y="239" on="0"/>
        <pt x="453" y="239" on="1"/>
        <pt x="419" y="239" on="0"/>
        <pt x="380" y="277" on="0"/>
        <pt x="380" y="308" on="1"/>
        <pt x="380" y="336" on="0"/>
        <pt x="411" y="374" on="0"/>
        <pt x="428" y="379" on="1"/>
        <pt x="423" y="389" on="0"/>
        <pt x="391" y="403" on="0"/>
        <pt x="371" y="407" on="1"/>
        <pt x="290" y="85" on="1"/>
        <pt x="297" y="84" on="0"/>
        <pt x="311" y="84" on="0"/>
        <pt x="318" y="84" on="1"/>
        <pt x="354" y="84" on="0"/>
        <pt x="430" y="124" on="0"/>
        <pt x="461" y="161" on="1"/>
        <pt x="509" y="120" on="1"/>
        <pt x="493" y="96" on="0"/>
        <pt x="446" y="49" on="0"/>
        <pt x="387" y="12" on="0"/>
        <pt x="314" y="-11" on="0"/>
        <pt x="271" y="-11" on="1"/>
      </contour>
      <contour>
        <pt x="183" y="211" on="1"/>
        <pt x="183" y="172" on="0"/>
        <pt x="205" y="122" on="0"/>
        <pt x="223" y="108" on="1"/>
        <pt x="297" y="405" on="1"/>
        <pt x="266" y="396" on="0"/>
        <pt x="223" y="354" on="0"/>
        <pt x="196" y="301" on="0"/>
        <pt x="183" y="239" on="0"/>
      </contour>
    </TTGlyph>
    <TTGlyph name="cent.tab" xMin="42" yMin="-105" xMax="525" yMax="570">
      <contour>
        <pt x="256" y="-105" on="1"/>
        <pt x="176" y="-96" on="1"/>
        <pt x="198" y="-4" on="1"/>
        <pt x="122" y="12" on="0"/>
        <pt x="42" y="117" on="0"/>
        <pt x="42" y="194" on="1"/>
        <pt x="42" y="252" on="0"/>
        <pt x="82" y="358" on="0"/>
        <pt x="154" y="437" on="0"/>
        <pt x="256" y="484" on="0"/>
        <pt x="317" y="484" on="1"/>
        <pt x="335" y="570" on="1"/>
        <pt x="415" y="561" on="1"/>
        <pt x="397" y="475" on="1"/>
        <pt x="460" y="459" on="0"/>
        <pt x="525" y="382" on="0"/>
        <pt x="525" y="340" on="1"/>
        <pt x="525" y="298" on="0"/>
        <pt x="481" y="239" on="0"/>
        <pt x="443" y="239" on="1"/>
        <pt x="415" y="239" on="0"/>
        <pt x="377" y="273" on="0"/>
        <pt x="377" y="301" on="1"/>
        <pt x="377" y="328" on="0"/>
        <pt x="406" y="366" on="0"/>
        <pt x="425" y="374" on="1"/>
        <pt x="417" y="387" on="0"/>
        <pt x="387" y="401" on="0"/>
        <pt x="369" y="405" on="1"/>
        <pt x="293" y="85" on="1"/>
        <pt x="298" y="84" on="0"/>
        <pt x="310" y="84" on="0"/>
        <pt x="315" y="84" on="1"/>
        <pt x="348" y="84" on="0"/>
        <pt x="418" y="124" on="0"/>
        <pt x="446" y="161" on="1"/>
        <pt x="496" y="120" on="1"/>
        <pt x="468" y="74" on="0"/>
        <pt x="355" y="-6" on="0"/>
        <pt x="277" y="-10" on="1"/>
      </contour>
      <contour>
        <pt x="192" y="211" on="1"/>
        <pt x="192" y="168" on="0"/>
        <pt x="217" y="116" on="0"/>
        <pt x="236" y="103" on="1"/>
        <pt x="307" y="404" on="1"/>
        <pt x="276" y="397" on="0"/>
        <pt x="232" y="356" on="0"/>
        <pt x="204" y="302" on="0"/>
        <pt x="192" y="240" on="0"/>
      </contour>
    </TTGlyph>
    <TTGlyph name="circumflex" xMin="83" yMin="536" xMax="437" yMax="739">
      <contour>
        <pt x="83" y="536" on="1"/>
        <pt x="260" y="739" on="1"/>
        <pt x="358" y="739" on="1"/>
        <pt x="437" y="536" on="1"/>
        <pt x="342" y="536" on="1"/>
        <pt x="287" y="619" on="1"/>
        <pt x="189" y="536" on="1"/>
      </contour>
    </TTGlyph>
    <TTGlyph name="colon" xMin="6" yMin="-17" xMax="267" yMax="472">
      <contour>
        <pt x="163" y="266" on="1"/>
        <pt x="124" y="266" on="0"/>
        <pt x="76" y="320" on="0"/>
        <pt x="76" y="358" on="1"/>
        <pt x="76" y="406" on="0"/>
        <pt x="137" y="472" on="0"/>
        <pt x="180" y="472" on="1"/>
        <pt x="219" y="472" on="0"/>
        <pt x="267" y="418" on="0"/>
        <pt x="267" y="380" on="1"/>
        <pt x="267" y="332" on="0"/>
        <pt x="206" y="266" on="0"/>
      </contour>
      <contour>
        <pt x="93" y="-17" on="1"/>
        <pt x="54" y="-17" on="0"/>
        <pt x="6" y="37" on="0"/>
        <pt x="6" y="75" on="1"/>
        <pt x="6" y="123" on="0"/>
        <pt x="67" y="189" on="0"/>
        <pt x="110" y="189" on="1"/>
        <pt x="149" y="189" on="0"/>
        <pt x="197" y="135" on="0"/>
        <pt x="197" y="97" on="1"/>
        <pt x="197" y="49" on="0"/>
        <pt x="136" y="-17" on="0"/>
      </contour>
    </TTGlyph>
    <TTGlyph name="colon.fig" xMin="6" yMin="77" xMax="267" yMax="566">
      <component glyphName="colon" x="0" y="94" flags="0x4"/>
    </TTGlyph>
    <TTGlyph name="colon.tab" xMin="2" yMin="-17" xMax="263" yMax="472">
      <component glyphName="colon" x="-4" y="0" flags="0x4"/>
    </TTGlyph>
    <TTGlyph name="colonmonetary" xMin="73" yMin="-149" xMax="701" yMax="771">
      <contour>
        <pt x="173" y="-149" on="1"/>
        <pt x="93" y="-129" on="1"/>
        <pt x="163" y="38" on="1"/>
        <pt x="121" y="71" on="0"/>
        <pt x="73" y="182" on="0"/>
        <pt x="73" y="258" on="1"/>
        <pt x="73" y="334" on="0"/>
        <pt x="123" y="476" on="0"/>
        <pt x="214" y="585" on="0"/>
        <pt x="345" y="650" on="0"/>
        <pt x="426" y="650" on="1"/>
        <pt x="477" y="770" on="1"/>
        <pt x="557" y="750" on="1"/>
        <pt x="511" y="639" on="1"/>
        <pt x="524" y="635" on="0"/>
        <pt x="547" y="625" on="0"/>
        <pt x="557" y="619" on="1"/>
        <pt x="621" y="771" on="1"/>
        <pt x="701" y="751" on="1"/>
        <pt x="620" y="559" on="1"/>
        <pt x="631" y="540" on="0"/>
        <pt x="643" y="500" on="0"/>
        <pt x="643" y="480" on="1"/>
        <pt x="643" y="430" on="0"/>
        <pt x="584" y="369" on="0"/>
        <pt x="543" y="369" on="1"/>
        <pt x="537" y="369" on="0"/>
        <pt x="526" y="370" on="0"/>
        <pt x="522" y="371" on="1"/>
        <pt x="399" y="89" on="1"/>
        <pt x="430" y="97" on="0"/>
        <pt x="490" y="151" on="0"/>
        <pt x="520" y="204" on="1"/>
        <pt x="593" y="157" on="1"/>
        <pt x="556" y="88" on="0"/>
        <pt x="448" y="-4" on="0"/>
        <pt x="374" y="-14" on="1"/>
        <pt x="316" y="-149" on="1"/>
        <pt x="236" y="-129" on="1"/>
        <pt x="284" y="-12" on="1"/>
        <pt x="271" y="-11" on="0"/>
        <pt x="247" y="-5" on="0"/>
        <pt x="235" y="-1" on="1"/>
      </contour>
      <contour>
        <pt x="520" y="530" on="1"/>
        <pt x="517" y="537" on="0"/>
        <pt x="490" y="557" on="0"/>
        <pt x="469" y="562" on="1"/>
        <pt x="281" y="124" on="1"/>
        <pt x="292" y="108" on="0"/>
        <pt x="321" y="92" on="0"/>
        <pt x="337" y="88" on="1"/>
        <pt x="474" y="407" on="1"/>
        <pt x="470" y="415" on="0"/>
        <pt x="465" y="435" on="0"/>
        <pt x="465" y="445" on="1"/>
        <pt x="465" y="479" on="0"/>
        <pt x="501" y="523" on="0"/>
      </contour>
      <contour>
        <pt x="243" y="254" on="1"/>
        <pt x="243" y="239" on="0"/>
        <pt x="246" y="209" on="0"/>
        <pt x="248" y="194" on="1"/>
        <pt x="406" y="561" on="1"/>
        <pt x="357" y="550" on="0"/>
        <pt x="294" y="475" on="0"/>
        <pt x="257" y="382" on="0"/>
        <pt x="243" y="286" on="0"/>
      </contour>
    </TTGlyph>
    <TTGlyph name="comma" xMin="-76" yMin="-169" xMax="189" yMax="185">
      <contour>
        <pt x="-59" y="-169" on="1"/>
        <pt x="-76" y="-109" on="1"/>
        <pt x="-8" y="-93" on="0"/>
        <pt x="78" y="-32" on="0"/>
        <pt x="93" y="2" on="1"/>
        <pt x="86" y="8" on="1"/>
        <pt x="80" y="4" on="0"/>
        <pt x="63" y="-2" on="0"/>
        <pt x="53" y="-2" on="1"/>
        <pt x="22" y="-2" on="0"/>
        <pt x="-16" y="45" on="0"/>
        <pt x="-16" y="78" on="1"/>
        <pt x="-16" y="120" on="0"/>
        <pt x="39" y="185" on="0"/>
        <pt x="84" y="185" on="1"/>
        <pt x="131" y="185" on="0"/>
        <pt x="189" y="120" on="0"/>
        <pt x="189" y="64" on="1"/>
        <pt x="189" y="19" on="0"/>
        <pt x="151" y="-58" on="0"/>
        <pt x="85" y="-117" on="0"/>
        <pt x="-6" y="-159" on="0"/>
      </contour>
    </TTGlyph>
    <TTGlyph name="comma.tab" xMin="-68" yMin="-169" xMax="197" yMax="185">
      <component glyphName="comma" x="8" y="0" flags="0x4"/>
    </TTGlyph>
    <TTGlyph name="copyright" xMin="24" yMin="-35" xMax="762" yMax="692">
      <contour>
        <pt x="393" y="-35" on="1"/>
        <pt x="314" y="-35" on="0"/>
        <pt x="178" y="19" on="0"/>
        <pt x="80" y="115" on="0"/>
        <pt x="24" y="249" on="0"/>
        <pt x="24" y="328" on="1"/>
        <pt x="24" y="407" on="0"/>
        <pt x="80" y="541" on="0"/>
        <pt x="178" y="638" on="0"/>
        <pt x="314" y="692" on="0"/>
        <pt x="393" y="692" on="1"/>
        <pt x="472" y="692" on="0"/>
        <pt x="608" y="638" on="0"/>
        <pt x="706" y="541" on="0"/>
        <pt x="762" y="407" on="0"/>
        <pt x="762" y="328" on="1"/>
        <pt x="762" y="249" on="0"/>
        <pt x="706" y="115" on="0"/>
        <pt x="608" y="19" on="0"/>
        <pt x="472" y="-35" on="0"/>
      </contour>
      <contour>
        <pt x="393" y="19" on="1"/>
        <pt x="461" y="19" on="0"/>
        <pt x="573" y="65" on="0"/>
        <pt x="652" y="146" on="0"/>
        <pt x="696" y="260" on="0"/>
        <pt x="696" y="328" on="1"/>
        <pt x="696" y="396" on="0"/>
        <pt x="652" y="510" on="0"/>
        <pt x="573" y="592" on="0"/>
        <pt x="461" y="638" on="0"/>
        <pt x="393" y="638" on="1"/>
        <pt x="325" y="638" on="0"/>
        <pt x="213" y="592" on="0"/>
        <pt x="134" y="510" on="0"/>
        <pt x="90" y="396" on="0"/>
        <pt x="90" y="328" on="1"/>
        <pt x="90" y="260" on="0"/>
        <pt x="134" y="146" on="0"/>
        <pt x="213" y="65" on="0"/>
        <pt x="325" y="19" on="0"/>
      </contour>
      <contour>
        <pt x="403" y="140" on="1"/>
        <pt x="316" y="140" on="0"/>
        <pt x="211" y="241" on="0"/>
        <pt x="211" y="326" on="1"/>
        <pt x="211" y="370" on="0"/>
        <pt x="240" y="442" on="0"/>
        <pt x="288" y="492" on="0"/>
        <pt x="353" y="520" on="0"/>
        <pt x="388" y="520" on="1"/>
        <pt x="423" y="520" on="0"/>
        <pt x="476" y="498" on="0"/>
        <pt x="492" y="477" on="1"/>
        <pt x="504" y="519" on="1"/>
        <pt x="559" y="519" on="1"/>
        <pt x="559" y="374" on="1"/>
        <pt x="496" y="374" on="1"/>
        <pt x="480" y="424" on="0"/>
        <pt x="436" y="471" on="0"/>
        <pt x="402" y="471" on="1"/>
        <pt x="366" y="471" on="0"/>
        <pt x="323" y="409" on="0"/>
        <pt x="323" y="333" on="1"/>
        <pt x="323" y="259" on="0"/>
        <pt x="374" y="198" on="0"/>
        <pt x="417" y="198" on="1"/>
        <pt x="454" y="198" on="0"/>
        <pt x="498" y="249" on="0"/>
        <pt x="505" y="294" on="1"/>
        <pt x="564" y="294" on="1"/>
        <pt x="557" y="225" on="0"/>
        <pt x="480" y="140" on="0"/>
      </contour>
    </TTGlyph>
    <TTGlyph name="d" xMin="20" yMin="-11" xMax="620" yMax="692">
      <contour>
        <pt x="165" y="-11" on="1"/>
        <pt x="126" y="-11" on="0"/>
        <pt x="70" y="17" on="0"/>
        <pt x="35" y="63" on="0"/>
        <pt x="20" y="124" on="0"/>
        <pt x="20" y="157" on="1"/>
        <pt x="21" y="234" on="0"/>
        <pt x="75" y="376" on="0"/>
        <pt x="122" y="423" on="1"/>
        <pt x="154" y="455" on="0"/>
        <pt x="218" y="484" on="0"/>
        <pt x="257" y="484" on="1"/>
        <pt x="306" y="484" on="0"/>
        <pt x="365" y="436" on="0"/>
        <pt x="379" y="406" on="1"/>
        <pt x="430" y="601" on="1"/>
        <pt x="356" y="601" on="1"/>
        <pt x="379" y="692" on="1"/>
        <pt x="620" y="692" on="1"/>
        <pt x="481" y="156" on="1"/>
        <pt x="477" y="142" on="0"/>
        <pt x="474" y="122" on="0"/>
        <pt x="474" y="112" on="1"/>
        <pt x="474" y="102" on="0"/>
        <pt x="485" y="91" on="0"/>
        <pt x="493" y="91" on="1"/>
        <pt x="504" y="91" on="0"/>
        <pt x="531" y="120" on="0"/>
        <pt x="550" y="168" on="1"/>
        <pt x="605" y="147" on="1"/>
        <pt x="573" y="65" on="0"/>
        <pt x="490" y="-11" on="0"/>
        <pt x="433" y="-11" on="1"/>
        <pt x="387" y="-11" on="0"/>
        <pt x="329" y="39" on="0"/>
        <pt x="329" y="88" on="1"/>
        <pt x="329" y="97" on="0"/>
        <pt x="330" y="109" on="0"/>
        <pt x="331" y="114" on="1"/>
        <pt x="328" y="116" on="1"/>
        <pt x="297" y="50" on="0"/>
        <pt x="215" y="-11" on="0"/>
      </contour>
      <contour>
        <pt x="228" y="91" on="1"/>
        <pt x="254" y="91" on="0"/>
        <pt x="300" y="141" on="0"/>
        <pt x="335" y="215" on="0"/>
        <pt x="356" y="299" on="0"/>
        <pt x="357" y="332" on="1"/>
        <pt x="358" y="373" on="0"/>
        <pt x="328" y="396" on="0"/>
        <pt x="313" y="396" on="1"/>
        <pt x="286" y="397" on="0"/>
        <pt x="240" y="346" on="0"/>
        <pt x="207" y="272" on="0"/>
        <pt x="188" y="187" on="0"/>
        <pt x="187" y="155" on="1"/>
        <pt x="187" y="117" on="0"/>
        <pt x="212" y="91" on="0"/>
      </contour>
    </TTGlyph>
    <TTGlyph name="dagger" xMin="56" yMin="-114" xMax="589" yMax="705">
      <contour>
        <pt x="193" y="-114" on="1"/>
        <pt x="188" y="-114" on="0"/>
        <pt x="168" y="-95" on="0"/>
        <pt x="151" y="-67" on="0"/>
        <pt x="140" y="-34" on="0"/>
        <pt x="143" y="-21" on="1"/>
        <pt x="176" y="112" on="1"/>
        <pt x="295" y="405" on="1"/>
        <pt x="275" y="414" on="0"/>
        <pt x="217" y="429" on="0"/>
        <pt x="195" y="429" on="1"/>
        <pt x="191" y="429" on="1"/>
        <pt x="198" y="383" on="0"/>
        <pt x="156" y="328" on="0"/>
        <pt x="122" y="328" on="1"/>
        <pt x="93" y="328" on="0"/>
        <pt x="56" y="366" on="0"/>
        <pt x="56" y="398" on="1"/>
        <pt x="56" y="414" on="0"/>
        <pt x="70" y="449" on="0"/>
        <pt x="97" y="477" on="0"/>
        <pt x="137" y="495" on="0"/>
        <pt x="162" y="495" on="1"/>
        <pt x="199" y="495" on="0"/>
        <pt x="259" y="477" on="0"/>
        <pt x="308" y="458" on="1"/>
        <pt x="302" y="655" on="1"/>
        <pt x="313" y="670" on="1"/>
        <pt x="323" y="684" on="0"/>
        <pt x="358" y="705" on="0"/>
        <pt x="377" y="705" on="1"/>
        <pt x="410" y="705" on="0"/>
        <pt x="443" y="660" on="0"/>
        <pt x="447" y="637" on="1"/>
        <pt x="450" y="618" on="1"/>
        <pt x="350" y="443" on="1"/>
        <pt x="370" y="434" on="0"/>
        <pt x="428" y="419" on="0"/>
        <pt x="450" y="419" on="1"/>
        <pt x="454" y="419" on="1"/>
        <pt x="447" y="465" on="0"/>
        <pt x="489" y="520" on="0"/>
        <pt x="523" y="520" on="1"/>
        <pt x="552" y="520" on="0"/>
        <pt x="589" y="482" on="0"/>
        <pt x="589" y="450" on="1"/>
        <pt x="589" y="434" on="0"/>
        <pt x="575" y="399" on="0"/>
        <pt x="548" y="371" on="0"/>
        <pt x="508" y="353" on="0"/>
        <pt x="483" y="353" on="1"/>
        <pt x="446" y="353" on="0"/>
        <pt x="386" y="371" on="0"/>
        <pt x="337" y="390" on="1"/>
        <pt x="309" y="79" on="1"/>
        <pt x="276" y="-54" on="1"/>
        <pt x="273" y="-67" on="0"/>
        <pt x="251" y="-89" on="0"/>
        <pt x="224" y="-105" on="0"/>
        <pt x="199" y="-114" on="0"/>
      </contour>
    </TTGlyph>
    <TTGlyph name="daggerdbl" xMin="-15" yMin="-113" xMax="592" yMax="705">
      <contour>
        <pt x="200" y="-113" on="1"/>
        <pt x="167" y="-113" on="0"/>
        <pt x="134" y="-68" on="0"/>
        <pt x="130" y="-45" on="1"/>
        <pt x="127" y="-26" on="1"/>
        <pt x="224" y="142" on="1"/>
        <pt x="204" y="151" on="0"/>
        <pt x="146" y="166" on="0"/>
        <pt x="124" y="166" on="1"/>
        <pt x="120" y="166" on="1"/>
        <pt x="127" y="120" on="0"/>
        <pt x="85" y="65" on="0"/>
        <pt x="51" y="65" on="1"/>
        <pt x="22" y="65" on="0"/>
        <pt x="-15" y="103" on="0"/>
        <pt x="-15" y="135" on="1"/>
        <pt x="-15" y="151" on="0"/>
        <pt x="-1" y="186" on="0"/>
        <pt x="26" y="214" on="0"/>
        <pt x="66" y="232" on="0"/>
        <pt x="91" y="232" on="1"/>
        <pt x="128" y="232" on="0"/>
        <pt x="186" y="214" on="0"/>
        <pt x="234" y="196" on="1"/>
        <pt x="229" y="312" on="1"/>
        <pt x="295" y="413" on="1"/>
        <pt x="276" y="421" on="0"/>
        <pt x="220" y="436" on="0"/>
        <pt x="198" y="436" on="1"/>
        <pt x="194" y="436" on="1"/>
        <pt x="201" y="390" on="0"/>
        <pt x="159" y="335" on="0"/>
        <pt x="125" y="335" on="1"/>
        <pt x="96" y="335" on="0"/>
        <pt x="59" y="373" on="0"/>
        <pt x="59" y="405" on="1"/>
        <pt x="59" y="421" on="0"/>
        <pt x="73" y="456" on="0"/>
        <pt x="100" y="484" on="0"/>
        <pt x="140" y="502" on="0"/>
        <pt x="165" y="502" on="1"/>
        <pt x="202" y="502" on="0"/>
        <pt x="262" y="484" on="0"/>
        <pt x="311" y="465" on="1"/>
        <pt x="302" y="655" on="1"/>
        <pt x="313" y="670" on="1"/>
        <pt x="323" y="684" on="0"/>
        <pt x="358" y="705" on="0"/>
        <pt x="377" y="705" on="1"/>
        <pt x="410" y="705" on="0"/>
        <pt x="443" y="660" on="0"/>
        <pt x="447" y="637" on="1"/>
        <pt x="450" y="618" on="1"/>
        <pt x="353" y="450" on="1"/>
        <pt x="373" y="441" on="0"/>
        <pt x="431" y="426" on="0"/>
        <pt x="453" y="426" on="1"/>
        <pt x="457" y="426" on="1"/>
        <pt x="450" y="472" on="0"/>
        <pt x="492" y="527" on="0"/>
        <pt x="526" y="527" on="1"/>
        <pt x="555" y="527" on="0"/>
        <pt x="592" y="489" on="0"/>
        <pt x="592" y="457" on="1"/>
        <pt x="592" y="441" on="0"/>
        <pt x="578" y="406" on="0"/>
        <pt x="551" y="378" on="0"/>
        <pt x="511" y="360" on="0"/>
        <pt x="486" y="360" on="1"/>
        <pt x="449" y="360" on="0"/>
        <pt x="390" y="377" on="0"/>
        <pt x="342" y="396" on="1"/>
        <pt x="348" y="280" on="1"/>
        <pt x="282" y="178" on="1"/>
        <pt x="301" y="171" on="0"/>
        <pt x="357" y="156" on="0"/>
        <pt x="379" y="156" on="1"/>
        <pt x="383" y="156" on="1"/>
        <pt x="376" y="202" on="0"/>
        <pt x="418" y="257" on="0"/>
        <pt x="452" y="257" on="1"/>
        <pt x="481" y="257" on="0"/>
        <pt x="518" y="219" on="0"/>
        <pt x="518" y="187" on="1"/>
        <pt x="518" y="171" on="0"/>
        <pt x="504" y="136" on="0"/>
        <pt x="477" y="108" on="0"/>
        <pt x="437" y="90" on="0"/>
        <pt x="412" y="90" on="1"/>
        <pt x="375" y="90" on="0"/>
        <pt x="315" y="108" on="0"/>
        <pt x="266" y="127" on="1"/>
        <pt x="275" y="-63" on="1"/>
        <pt x="264" y="-78" on="1"/>
        <pt x="254" y="-92" on="0"/>
        <pt x="219" y="-113" on="0"/>
      </contour>
    </TTGlyph>
    <TTGlyph name="dcaron" xMin="20" yMin="-11" xMax="831" yMax="815">
      <component glyphName="d" x="0" y="0" flags="0x204"/>
      <component glyphName="caron.alt" x="513" y="20" flags="0x4"/>
    </TTGlyph>
    <TTGlyph name="dcroat" xMin="18" yMin="-11" xMax="653" yMax="692">
      <contour>
        <pt x="163" y="-11" on="1"/>
        <pt x="124" y="-11" on="0"/>
        <pt x="68" y="17" on="0"/>
        <pt x="33" y="63" on="0"/>
        <pt x="18" y="124" on="0"/>
        <pt x="18" y="157" on="1"/>
        <pt x="19" y="229" on="0"/>
        <pt x="75" y="370" on="0"/>
        <pt x="118" y="413" on="1"/>
        <pt x="150" y="445" on="0"/>
        <pt x="214" y="474" on="0"/>
        <pt x="253" y="474" on="1"/>
        <pt x="302" y="474" on="0"/>
        <pt x="362" y="426" on="0"/>
        <pt x="375" y="397" on="1"/>
        <pt x="403" y="503" on="1"/>
        <pt x="290" y="503" on="1"/>
        <pt x="307" y="571" on="1"/>
        <pt x="420" y="571" on="1"/>
        <pt x="431" y="613" on="1"/>
        <pt x="357" y="613" on="1"/>
        <pt x="377" y="692" on="1"/>
        <pt x="618" y="692" on="1"/>
        <pt x="587" y="571" on="1"/>
        <pt x="653" y="571" on="1"/>
        <pt x="636" y="503" on="1"/>
        <pt x="569" y="503" on="1"/>
        <pt x="479" y="156" on="1"/>
        <pt x="475" y="142" on="0"/>
        <pt x="472" y="122" on="0"/>
        <pt x="472" y="112" on="1"/>
        <pt x="472" y="102" on="0"/>
        <pt x="483" y="91" on="0"/>
        <pt x="491" y="91" on="1"/>
        <pt x="502" y="91" on="0"/>
        <pt x="529" y="120" on="0"/>
        <pt x="548" y="168" on="1"/>
        <pt x="603" y="147" on="1"/>
        <pt x="571" y="65" on="0"/>
        <pt x="488" y="-11" on="0"/>
        <pt x="431" y="-11" on="1"/>
        <pt x="385" y="-11" on="0"/>
        <pt x="327" y="39" on="0"/>
        <pt x="327" y="88" on="1"/>
        <pt x="327" y="97" on="0"/>
        <pt x="328" y="109" on="0"/>
        <pt x="329" y="114" on="1"/>
        <pt x="326" y="116" on="1"/>
        <pt x="295" y="50" on="0"/>
        <pt x="213" y="-11" on="0"/>
      </contour>
      <contour>
        <pt x="226" y="91" on="1"/>
        <pt x="252" y="91" on="0"/>
        <pt x="298" y="140" on="0"/>
        <pt x="332" y="211" on="0"/>
        <pt x="352" y="291" on="0"/>
        <pt x="353" y="322" on="1"/>
        <pt x="354" y="363" on="0"/>
        <pt x="324" y="386" on="0"/>
        <pt x="309" y="386" on="1"/>
        <pt x="282" y="387" on="0"/>
        <pt x="237" y="337" on="0"/>
        <pt x="205" y="266" on="0"/>
        <pt x="186" y="185" on="0"/>
        <pt x="185" y="155" on="1"/>
        <pt x="185" y="117" on="0"/>
        <pt x="210" y="91" on="0"/>
      </contour>
    </TTGlyph>
    <TTGlyph name="degree" xMin="90" yMin="343" xMax="447" yMax="674">
      <contour>
        <pt x="252" y="343" on="1"/>
        <pt x="211" y="343" on="0"/>
        <pt x="150" y="367" on="0"/>
        <pt x="110" y="406" on="0"/>
        <pt x="90" y="458" on="0"/>
        <pt x="90" y="485" on="1"/>
        <pt x="90" y="568" on="0"/>
        <pt x="202" y="674" on="0"/>
        <pt x="285" y="674" on="1"/>
        <pt x="326" y="674" on="0"/>
        <pt x="387" y="650" on="0"/>
        <pt x="427" y="611" on="0"/>
        <pt x="447" y="559" on="0"/>
        <pt x="447" y="532" on="1"/>
        <pt x="447" y="448" on="0"/>
        <pt x="335" y="343" on="0"/>
      </contour>
      <contour>
        <pt x="258" y="415" on="1"/>
        <pt x="280" y="415" on="0"/>
        <pt x="313" y="436" on="0"/>
        <pt x="334" y="468" on="0"/>
        <pt x="345" y="509" on="0"/>
        <pt x="345" y="530" on="1"/>
        <pt x="345" y="564" on="0"/>
        <pt x="310" y="602" on="0"/>
        <pt x="279" y="602" on="1"/>
        <pt x="257" y="602" on="0"/>
        <pt x="224" y="581" on="0"/>
        <pt x="203" y="549" on="0"/>
        <pt x="192" y="508" on="0"/>
        <pt x="192" y="487" on="1"/>
        <pt x="192" y="453" on="0"/>
        <pt x="227" y="415" on="0"/>
      </contour>
    </TTGlyph>
    <TTGlyph name="degree.tab" xMin="118" yMin="279" xMax="542" yMax="674">
      <contour>
        <pt x="307" y="279" on="1"/>
        <pt x="258" y="279" on="0"/>
        <pt x="186" y="308" on="0"/>
        <pt x="140" y="357" on="0"/>
        <pt x="118" y="420" on="0"/>
        <pt x="118" y="453" on="1"/>
        <pt x="118" y="502" on="0"/>
        <pt x="153" y="584" on="0"/>
        <pt x="216" y="642" on="0"/>
        <pt x="303" y="674" on="0"/>
        <pt x="354" y="674" on="1"/>
        <pt x="403" y="674" on="0"/>
        <pt x="474" y="645" on="0"/>
        <pt x="520" y="596" on="0"/>
        <pt x="542" y="533" on="0"/>
        <pt x="542" y="500" on="1"/>
        <pt x="542" y="451" on="0"/>
        <pt x="507" y="369" on="0"/>
        <pt x="444" y="311" on="0"/>
        <pt x="358" y="279" on="0"/>
      </contour>
      <contour>
        <pt x="316" y="359" on="1"/>
        <pt x="345" y="359" on="0"/>
        <pt x="387" y="384" on="0"/>
        <pt x="415" y="424" on="0"/>
        <pt x="429" y="473" on="0"/>
        <pt x="429" y="498" on="1"/>
        <pt x="429" y="544" on="0"/>
        <pt x="384" y="594" on="0"/>
        <pt x="344" y="594" on="1"/>
        <pt x="315" y="594" on="0"/>
        <pt x="273" y="569" on="0"/>
        <pt x="245" y="529" on="0"/>
        <pt x="231" y="480" on="0"/>
        <pt x="231" y="455" on="1"/>
        <pt x="231" y="409" on="0"/>
        <pt x="276" y="359" on="0"/>
      </contour>
    </TTGlyph>
    <TTGlyph name="dieresis" xMin="117" yMin="530" xMax="482" yMax="697">
      <contour>
        <pt x="190" y="530" on="1"/>
        <pt x="159" y="530" on="0"/>
        <pt x="117" y="571" on="0"/>
        <pt x="117" y="605" on="1"/>
        <pt x="117" y="636" on="0"/>
        <pt x="164" y="697" on="0"/>
        <pt x="207" y="697" on="1"/>
        <pt x="238" y="697" on="0"/>
        <pt x="280" y="656" on="0"/>
        <pt x="280" y="622" on="1"/>
        <pt x="280" y="591" on="0"/>
        <pt x="233" y="530" on="0"/>
      </contour>
      <contour>
        <pt x="392" y="530" on="1"/>
        <pt x="361" y="530" on="0"/>
        <pt x="319" y="571" on="0"/>
        <pt x="319" y="605" on="1"/>
        <pt x="319" y="636" on="0"/>
        <pt x="366" y="697" on="0"/>
        <pt x="409" y="697" on="1"/>
        <pt x="440" y="697" on="0"/>
        <pt x="482" y="656" on="0"/>
        <pt x="482" y="622" on="1"/>
        <pt x="482" y="591" on="0"/>
        <pt x="435" y="530" on="0"/>
      </contour>
    </TTGlyph>
    <TTGlyph name="divide" xMin="49" yMin="64" xMax="511" yMax="570">
      <contour>
        <pt x="316" y="406" on="1"/>
        <pt x="284" y="406" on="0"/>
        <pt x="244" y="449" on="0"/>
        <pt x="244" y="479" on="1"/>
        <pt x="244" y="517" on="0"/>
        <pt x="295" y="570" on="0"/>
        <pt x="329" y="570" on="1"/>
        <pt x="361" y="570" on="0"/>
        <pt x="401" y="527" on="0"/>
        <pt x="401" y="497" on="1"/>
        <pt x="401" y="459" on="0"/>
        <pt x="350" y="406" on="0"/>
      </contour>
      <contour>
        <pt x="49" y="274" on="1"/>
        <pt x="70" y="361" on="1"/>
        <pt x="511" y="361" on="1"/>
        <pt x="490" y="274" on="1"/>
      </contour>
      <contour>
        <pt x="231" y="64" on="1"/>
        <pt x="199" y="64" on="0"/>
        <pt x="159" y="107" on="0"/>
        <pt x="159" y="137" on="1"/>
        <pt x="159" y="175" on="0"/>
        <pt x="210" y="228" on="0"/>
        <pt x="244" y="228" on="1"/>
        <pt x="276" y="228" on="0"/>
        <pt x="316" y="185" on="0"/>
        <pt x="316" y="155" on="1"/>
        <pt x="316" y="117" on="0"/>
        <pt x="265" y="64" on="0"/>
      </contour>
    </TTGlyph>
    <TTGlyph name="divide.osf" xMin="41" yMin="33" xMax="503" yMax="539">
      <contour>
        <pt x="308" y="375" on="1"/>
        <pt x="276" y="375" on="0"/>
        <pt x="236" y="418" on="0"/>
        <pt x="236" y="448" on="1"/>
        <pt x="236" y="486" on="0"/>
        <pt x="287" y="539" on="0"/>
        <pt x="321" y="539" on="1"/>
        <pt x="353" y="539" on="0"/>
        <pt x="393" y="496" on="0"/>
        <pt x="393" y="466" on="1"/>
        <pt x="393" y="428" on="0"/>
        <pt x="342" y="375" on="0"/>
      </contour>
      <contour>
        <pt x="41" y="243" on="1"/>
        <pt x="62" y="330" on="1"/>
        <pt x="503" y="330" on="1"/>
        <pt x="482" y="243" on="1"/>
      </contour>
      <contour>
        <pt x="223" y="33" on="1"/>
        <pt x="191" y="33" on="0"/>
        <pt x="151" y="76" on="0"/>
        <pt x="151" y="106" on="1"/>
        <pt x="151" y="144" on="0"/>
        <pt x="202" y="197" on="0"/>
        <pt x="236" y="197" on="1"/>
        <pt x="268" y="197" on="0"/>
        <pt x="308" y="154" on="0"/>
        <pt x="308" y="124" on="1"/>
        <pt x="308" y="86" on="0"/>
        <pt x="257" y="33" on="0"/>
      </contour>
    </TTGlyph>
    <TTGlyph name="divide.tab" xMin="58" yMin="63" xMax="520" yMax="569">
      <contour>
        <pt x="325" y="405" on="1"/>
        <pt x="293" y="405" on="0"/>
        <pt x="253" y="448" on="0"/>
        <pt x="253" y="478" on="1"/>
        <pt x="253" y="516" on="0"/>
        <pt x="304" y="569" on="0"/>
        <pt x="338" y="569" on="1"/>
        <pt x="370" y="569" on="0"/>
        <pt x="410" y="526" on="0"/>
        <pt x="410" y="496" on="1"/>
        <pt x="410" y="458" on="0"/>
        <pt x="359" y="405" on="0"/>
      </contour>
      <contour>
        <pt x="58" y="273" on="1"/>
        <pt x="79" y="360" on="1"/>
        <pt x="520" y="360" on="1"/>
        <pt x="499" y="273" on="1"/>
      </contour>
      <contour>
        <pt x="240" y="63" on="1"/>
        <pt x="208" y="63" on="0"/>
        <pt x="168" y="106" on="0"/>
        <pt x="168" y="136" on="1"/>
        <pt x="168" y="174" on="0"/>
        <pt x="219" y="227" on="0"/>
        <pt x="253" y="227" on="1"/>
        <pt x="285" y="227" on="0"/>
        <pt x="325" y="184" on="0"/>
        <pt x="325" y="154" on="1"/>
        <pt x="325" y="116" on="0"/>
        <pt x="274" y="63" on="0"/>
      </contour>
    </TTGlyph>
    <TTGlyph name="dollar" xMin="-6" yMin="-93" xMax="585" yMax="717">
      <contour>
        <pt x="237" y="-93" on="1"/>
        <pt x="155" y="-84" on="1"/>
        <pt x="177" y="8" on="1"/>
        <pt x="139" y="14" on="0"/>
        <pt x="72" y="38" on="0"/>
        <pt x="23" y="72" on="0"/>
        <pt x="-6" y="118" on="0"/>
        <pt x="-6" y="146" on="1"/>
        <pt x="-6" y="181" on="0"/>
        <pt x="37" y="237" on="0"/>
        <pt x="79" y="237" on="1"/>
        <pt x="112" y="237" on="0"/>
        <pt x="160" y="196" on="0"/>
        <pt x="160" y="164" on="1"/>
        <pt x="160" y="145" on="0"/>
        <pt x="145" y="109" on="0"/>
        <pt x="130" y="98" on="1"/>
        <pt x="139" y="91" on="0"/>
        <pt x="172" y="76" on="0"/>
        <pt x="194" y="71" on="1"/>
        <pt x="240" y="257" on="1"/>
        <pt x="166" y="286" on="0"/>
        <pt x="76" y="358" on="0"/>
        <pt x="76" y="427" on="1"/>
        <pt x="76" y="473" on="0"/>
        <pt x="116" y="551" on="0"/>
        <pt x="185" y="605" on="0"/>
        <pt x="279" y="636" on="0"/>
        <pt x="333" y="636" on="1"/>
        <pt x="353" y="717" on="1"/>
        <pt x="435" y="708" on="1"/>
        <pt x="416" y="630" on="1"/>
        <pt x="486" y="618" on="0"/>
        <pt x="585" y="549" on="0"/>
        <pt x="585" y="495" on="1"/>
        <pt x="585" y="460" on="0"/>
        <pt x="543" y="404" on="0"/>
        <pt x="502" y="404" on="1"/>
        <pt x="468" y="404" on="0"/>
        <pt x="421" y="445" on="0"/>
        <pt x="421" y="477" on="1"/>
        <pt x="421" y="496" on="0"/>
        <pt x="436" y="531" on="0"/>
        <pt x="450" y="542" on="1"/>
        <pt x="444" y="548" on="0"/>
        <pt x="419" y="562" on="0"/>
        <pt x="399" y="567" on="1"/>
        <pt x="354" y="383" on="1"/>
        <pt x="435" y="352" on="0"/>
        <pt x="532" y="276" on="0"/>
        <pt x="532" y="204" on="1"/>
        <pt x="532" y="111" on="0"/>
        <pt x="390" y="0" on="0"/>
        <pt x="274" y="0" on="1"/>
        <pt x="270" y="0" on="0"/>
        <pt x="263" y="0" on="0"/>
        <pt x="260" y="0" on="1"/>
      </contour>
      <contour>
        <pt x="224" y="486" on="1"/>
        <pt x="224" y="458" on="0"/>
        <pt x="254" y="425" on="0"/>
        <pt x="282" y="412" on="1"/>
        <pt x="321" y="572" on="1"/>
        <pt x="270" y="567" on="0"/>
        <pt x="224" y="517" on="0"/>
      </contour>
      <contour>
        <pt x="385" y="149" on="1"/>
        <pt x="385" y="178" on="0"/>
        <pt x="344" y="215" on="0"/>
        <pt x="312" y="229" on="1"/>
        <pt x="271" y="64" on="1"/>
        <pt x="337" y="65" on="0"/>
        <pt x="385" y="115" on="0"/>
      </contour>
    </TTGlyph>
    <TTGlyph name="dollar.osf" xMin="-3" yMin="-109" xMax="565" yMax="655">
      <contour>
        <pt x="232" y="-109" on="1"/>
        <pt x="150" y="-100" on="1"/>
        <pt x="173" y="-7" on="1"/>
        <pt x="99" y="6" on="0"/>
        <pt x="-3" y="74" on="0"/>
        <pt x="-3" y="128" on="1"/>
        <pt x="-3" y="162" on="0"/>
        <pt x="40" y="213" on="0"/>
        <pt x="82" y="213" on="1"/>
        <pt x="115" y="213" on="0"/>
        <pt x="163" y="174" on="0"/>
        <pt x="163" y="144" on="1"/>
        <pt x="163" y="128" on="0"/>
        <pt x="148" y="93" on="0"/>
        <pt x="133" y="82" on="1"/>
        <pt x="141" y="75" on="0"/>
        <pt x="170" y="61" on="0"/>
        <pt x="189" y="57" on="1"/>
        <pt x="231" y="222" on="1"/>
        <pt x="154" y="248" on="0"/>
        <pt x="61" y="316" on="0"/>
        <pt x="61" y="376" on="1"/>
        <pt x="61" y="419" on="0"/>
        <pt x="101" y="492" on="0"/>
        <pt x="170" y="544" on="0"/>
        <pt x="264" y="573" on="0"/>
        <pt x="317" y="573" on="1"/>
        <pt x="337" y="655" on="1"/>
        <pt x="419" y="646" on="1"/>
        <pt x="399" y="566" on="1"/>
        <pt x="468" y="554" on="0"/>
        <pt x="565" y="487" on="0"/>
        <pt x="565" y="434" on="1"/>
        <pt x="565" y="400" on="0"/>
        <pt x="523" y="349" on="0"/>
        <pt x="482" y="349" on="1"/>
        <pt x="448" y="349" on="0"/>
        <pt x="401" y="388" on="0"/>
        <pt x="401" y="418" on="1"/>
        <pt x="401" y="434" on="0"/>
        <pt x="416" y="468" on="0"/>
        <pt x="430" y="479" on="1"/>
        <pt x="425" y="484" on="0"/>
        <pt x="401" y="498" on="0"/>
        <pt x="383" y="503" on="1"/>
        <pt x="342" y="340" on="1"/>
        <pt x="424" y="312" on="0"/>
        <pt x="525" y="240" on="0"/>
        <pt x="525" y="175" on="1"/>
        <pt x="525" y="89" on="0"/>
        <pt x="386" y="-16" on="0"/>
        <pt x="273" y="-16" on="1"/>
        <pt x="269" y="-16" on="0"/>
        <pt x="259" y="-16" on="0"/>
        <pt x="255" y="-16" on="1"/>
      </contour>
      <contour>
        <pt x="209" y="433" on="1"/>
        <pt x="209" y="407" on="0"/>
        <pt x="239" y="376" on="0"/>
        <pt x="269" y="364" on="1"/>
        <pt x="305" y="509" on="1"/>
        <pt x="256" y="505" on="0"/>
        <pt x="209" y="461" on="0"/>
      </contour>
      <contour>
        <pt x="378" y="124" on="1"/>
        <pt x="378" y="152" on="0"/>
        <pt x="338" y="185" on="0"/>
        <pt x="304" y="198" on="1"/>
        <pt x="266" y="48" on="1"/>
        <pt x="267" y="48" on="1"/>
        <pt x="330" y="48" on="0"/>
        <pt x="378" y="93" on="0"/>
      </contour>
    </TTGlyph>
    <TTGlyph name="dollar.tab" xMin="5" yMin="-93" xMax="554" yMax="717">
      <contour>
        <pt x="225" y="-93" on="1"/>
        <pt x="147" y="-84" on="1"/>
        <pt x="170" y="9" on="1"/>
        <pt x="101" y="22" on="0"/>
        <pt x="5" y="92" on="0"/>
        <pt x="5" y="146" on="1"/>
        <pt x="5" y="181" on="0"/>
        <pt x="47" y="237" on="0"/>
        <pt x="87" y="237" on="1"/>
        <pt x="118" y="237" on="0"/>
        <pt x="165" y="196" on="0"/>
        <pt x="165" y="164" on="1"/>
        <pt x="165" y="145" on="0"/>
        <pt x="150" y="109" on="0"/>
        <pt x="135" y="98" on="1"/>
        <pt x="144" y="91" on="0"/>
        <pt x="172" y="77" on="0"/>
        <pt x="190" y="72" on="1"/>
        <pt x="236" y="257" on="1"/>
        <pt x="168" y="286" on="0"/>
        <pt x="85" y="358" on="0"/>
        <pt x="85" y="427" on="1"/>
        <pt x="85" y="473" on="0"/>
        <pt x="122" y="551" on="0"/>
        <pt x="186" y="605" on="0"/>
        <pt x="274" y="636" on="0"/>
        <pt x="325" y="636" on="1"/>
        <pt x="345" y="717" on="1"/>
        <pt x="423" y="708" on="1"/>
        <pt x="403" y="629" on="1"/>
        <pt x="466" y="616" on="0"/>
        <pt x="554" y="548" on="0"/>
        <pt x="554" y="495" on="1"/>
        <pt x="554" y="460" on="0"/>
        <pt x="514" y="404" on="0"/>
        <pt x="474" y="404" on="1"/>
        <pt x="442" y="404" on="0"/>
        <pt x="396" y="445" on="0"/>
        <pt x="396" y="477" on="1"/>
        <pt x="396" y="496" on="0"/>
        <pt x="411" y="531" on="0"/>
        <pt x="425" y="542" on="1"/>
        <pt x="420" y="547" on="0"/>
        <pt x="399" y="561" on="0"/>
        <pt x="383" y="566" on="1"/>
        <pt x="338" y="384" on="1"/>
        <pt x="413" y="352" on="0"/>
        <pt x="503" y="276" on="0"/>
        <pt x="503" y="204" on="1"/>
        <pt x="503" y="111" on="0"/>
        <pt x="372" y="0" on="0"/>
        <pt x="264" y="0" on="1"/>
        <pt x="260" y="0" on="0"/>
        <pt x="252" y="0" on="0"/>
        <pt x="248" y="0" on="1"/>
      </contour>
      <contour>
        <pt x="228" y="483" on="1"/>
        <pt x="228" y="455" on="0"/>
        <pt x="252" y="423" on="0"/>
        <pt x="277" y="410" on="1"/>
        <pt x="317" y="573" on="1"/>
        <pt x="271" y="569" on="0"/>
        <pt x="228" y="517" on="0"/>
      </contour>
      <contour>
        <pt x="361" y="150" on="1"/>
        <pt x="361" y="181" on="0"/>
        <pt x="328" y="216" on="0"/>
        <pt x="297" y="231" on="1"/>
        <pt x="255" y="64" on="1"/>
        <pt x="259" y="64" on="1"/>
        <pt x="318" y="64" on="0"/>
        <pt x="361" y="115" on="0"/>
      </contour>
    </TTGlyph>
    <TTGlyph name="dotaccent" xMin="115" yMin="529" xMax="296" yMax="704">
      <contour>
        <pt x="196" y="529" on="1"/>
        <pt x="161" y="529" on="0"/>
        <pt x="115" y="571" on="0"/>
        <pt x="115" y="608" on="1"/>
        <pt x="115" y="641" on="0"/>
        <pt x="166" y="704" on="0"/>
        <pt x="215" y="704" on="1"/>
        <pt x="250" y="704" on="0"/>
        <pt x="296" y="662" on="0"/>
        <pt x="296" y="625" on="1"/>
        <pt x="296" y="592" on="0"/>
        <pt x="245" y="529" on="0"/>
      </contour>
    </TTGlyph>
    <TTGlyph name="dotlessi" xMin="10" yMin="-11" xMax="353" yMax="484">
      <contour>
        <pt x="172" y="-11" on="1"/>
        <pt x="123" y="-11" on="0"/>
        <pt x="61" y="45" on="0"/>
        <pt x="61" y="92" on="1"/>
        <pt x="61" y="119" on="0"/>
        <pt x="87" y="199" on="0"/>
        <pt x="118" y="279" on="0"/>
        <pt x="144" y="348" on="0"/>
        <pt x="144" y="364" on="1"/>
        <pt x="144" y="374" on="0"/>
        <pt x="135" y="382" on="0"/>
        <pt x="130" y="382" on="1"/>
        <pt x="117" y="382" on="0"/>
        <pt x="84" y="331" on="0"/>
        <pt x="65" y="286" on="1"/>
        <pt x="10" y="306" on="1"/>
        <pt x="46" y="391" on="0"/>
        <pt x="138" y="484" on="0"/>
        <pt x="202" y="484" on="1"/>
        <pt x="246" y="484" on="0"/>
        <pt x="303" y="434" on="0"/>
        <pt x="303" y="394" on="1"/>
        <pt x="303" y="363" on="0"/>
        <pt x="277" y="279" on="0"/>
        <pt x="246" y="198" on="0"/>
        <pt x="220" y="128" on="0"/>
        <pt x="220" y="110" on="1"/>
        <pt x="220" y="99" on="0"/>
        <pt x="230" y="91" on="0"/>
        <pt x="236" y="91" on="1"/>
        <pt x="247" y="91" on="0"/>
        <pt x="275" y="119" on="0"/>
        <pt x="297" y="168" on="1"/>
        <pt x="353" y="148" on="1"/>
        <pt x="323" y="73" on="0"/>
        <pt x="231" y="-11" on="0"/>
      </contour>
    </TTGlyph>
    <TTGlyph name="dotmath" xMin="107" yMin="215" xMax="298" yMax="421">
      <component glyphName="period" x="109" y="232" flags="0x4"/>
    </TTGlyph>
    <TTGlyph name="dotmath.osf" xMin="98" yMin="179" xMax="289" yMax="385">
      <component glyphName="period" x="100" y="196" flags="0x4"/>
    </TTGlyph>
    <TTGlyph name="dotmath.tab" xMin="59" yMin="215" xMax="250" yMax="421">
      <component glyphName="period" x="61" y="232" flags="0x4"/>
    </TTGlyph>
    <TTGlyph name="e" xMin="20" yMin="-11" xMax="499" yMax="484">
      <contour>
        <pt x="231" y="-11" on="1"/>
        <pt x="135" y="-11" on="0"/>
        <pt x="20" y="92" on="0"/>
        <pt x="20" y="180" on="1"/>
        <pt x="20" y="239" on="0"/>
        <pt x="66" y="349" on="0"/>
        <pt x="148" y="433" on="0"/>
        <pt x="262" y="484" on="0"/>
        <pt x="330" y="484" on="1"/>
        <pt x="411" y="484" on="0"/>
        <pt x="499" y="415" on="0"/>
        <pt x="499" y="361" on="1"/>
        <pt x="499" y="292" on="0"/>
        <pt x="353" y="194" on="0"/>
        <pt x="190" y="193" on="1"/>
        <pt x="191" y="124" on="0"/>
        <pt x="253" y="77" on="0"/>
        <pt x="288" y="77" on="1"/>
        <pt x="319" y="77" on="0"/>
        <pt x="383" y="109" on="0"/>
        <pt x="419" y="149" on="1"/>
        <pt x="464" y="107" on="1"/>
        <pt x="423" y="59" on="0"/>
        <pt x="313" y="-11" on="0"/>
      </contour>
      <contour>
        <pt x="309" y="416" on="1"/>
        <pt x="288" y="416" on="0"/>
        <pt x="252" y="386" on="0"/>
        <pt x="222" y="339" on="0"/>
        <pt x="201" y="279" on="0"/>
        <pt x="195" y="248" on="1"/>
        <pt x="241" y="250" on="0"/>
        <pt x="300" y="273" on="0"/>
        <pt x="334" y="306" on="0"/>
        <pt x="348" y="346" on="0"/>
        <pt x="348" y="364" on="1"/>
        <pt x="348" y="389" on="0"/>
        <pt x="327" y="416" on="0"/>
      </contour>
    </TTGlyph>
    <TTGlyph name="eacute" xMin="20" yMin="-11" xMax="522" yMax="760">
      <component glyphName="e" x="0" y="0" flags="0x204"/>
      <component glyphName="acute" x="158" y="0" flags="0x4"/>
    </TTGlyph>
    <TTGlyph name="ebreve" xMin="20" yMin="-11" xMax="532" yMax="725">
      <component glyphName="e" x="0" y="0" flags="0x204"/>
      <component glyphName="breve" x="62" y="0" flags="0x4"/>
    </TTGlyph>
    <TTGlyph name="ecaron" xMin="20" yMin="-11" xMax="544" yMax="739">
      <component glyphName="e" x="0" y="0" flags="0x204"/>
      <component glyphName="caron" x="85" y="0" flags="0x4"/>
    </TTGlyph>
    <TTGlyph name="ecircumflex" xMin="20" yMin="-11" xMax="499" yMax="739">
      <component glyphName="e" x="0" y="0" flags="0x204"/>
      <component glyphName="circumflex" x="60" y="0" flags="0x4"/>
    </TTGlyph>
    <TTGlyph name="edieresis" xMin="20" yMin="-11" xMax="531" yMax="697">
      <component glyphName="e" x="0" y="0" flags="0x204"/>
      <component glyphName="dieresis" x="49" y="0" flags="0x4"/>
    </TTGlyph>
    <TTGlyph name="edotaccent" xMin="20" yMin="-11" xMax="499" yMax="704">
      <component glyphName="e" x="0" y="0" flags="0x204"/>
      <component glyphName="dotaccent" x="145" y="0" flags="0x4"/>
    </TTGlyph>
    <TTGlyph name="egrave" xMin="20" yMin="-11" xMax="499" yMax="761">
      <component glyphName="e" x="0" y="0" flags="0x204"/>
      <component glyphName="grave" x="43" y="0" flags="0x4"/>
    </TTGlyph>
    <TTGlyph name="eight" xMin="13" yMin="-15" xMax="583" yMax="650">
      <contour>
        <pt x="266" y="-15" on="1"/>
        <pt x="139" y="-15" on="0"/>
        <pt x="13" y="77" on="0"/>
        <pt x="13" y="141" on="1"/>
        <pt x="13" y="208" on="0"/>
        <pt x="108" y="286" on="0"/>
        <pt x="181" y="296" on="1"/>
        <pt x="142" y="317" on="0"/>
        <pt x="87" y="385" on="0"/>
        <pt x="87" y="439" on="1"/>
        <pt x="87" y="483" on="0"/>
        <pt x="126" y="560" on="0"/>
        <pt x="195" y="617" on="0"/>
        <pt x="291" y="650" on="0"/>
        <pt x="348" y="650" on="1"/>
        <pt x="408" y="650" on="0"/>
        <pt x="497" y="622" on="0"/>
        <pt x="554" y="577" on="0"/>
        <pt x="583" y="521" on="0"/>
        <pt x="583" y="493" on="1"/>
        <pt x="583" y="461" on="0"/>
        <pt x="557" y="410" on="0"/>
        <pt x="515" y="373" on="0"/>
        <pt x="458" y="350" on="0"/>
        <pt x="427" y="346" on="1"/>
        <pt x="470" y="323" on="0"/>
        <pt x="534" y="253" on="0"/>
        <pt x="534" y="194" on="1"/>
        <pt x="534" y="149" on="0"/>
        <pt x="496" y="72" on="0"/>
        <pt x="427" y="17" on="0"/>
        <pt x="327" y="-15" on="0"/>
      </contour>
      <contour>
        <pt x="256" y="494" on="1"/>
        <pt x="256" y="455" on="0"/>
        <pt x="324" y="402" on="0"/>
        <pt x="386" y="376" on="1"/>
        <pt x="417" y="401" on="0"/>
        <pt x="450" y="460" on="0"/>
        <pt x="450" y="491" on="1"/>
        <pt x="450" y="521" on="0"/>
        <pt x="404" y="577" on="0"/>
        <pt x="353" y="577" on="1"/>
        <pt x="310" y="577" on="0"/>
        <pt x="256" y="531" on="0"/>
      </contour>
      <contour>
        <pt x="146" y="149" on="1"/>
        <pt x="146" y="114" on="0"/>
        <pt x="204" y="58" on="0"/>
        <pt x="264" y="58" on="1"/>
        <pt x="308" y="58" on="0"/>
        <pt x="370" y="102" on="0"/>
        <pt x="370" y="142" on="1"/>
        <pt x="370" y="184" on="0"/>
        <pt x="286" y="238" on="0"/>
        <pt x="219" y="268" on="1"/>
        <pt x="184" y="242" on="0"/>
        <pt x="146" y="183" on="0"/>
      </contour>
    </TTGlyph>
    <TTGlyph name="eight.den" xMin="12" yMin="-82" xMax="399" yMax="400">
      <component glyphName="eight.small" x="-17" y="-70" flags="0x4"/>
    </TTGlyph>
    <TTGlyph name="eight.inf" xMin="-18" yMin="-202" xMax="369" yMax="280">
      <component glyphName="eight.small" x="-47" y="-190" flags="0x4"/>
    </TTGlyph>
    <TTGlyph name="eight.num" xMin="71" yMin="158" xMax="458" yMax="640">
      <component glyphName="eight.small" x="42" y="170" flags="0x4"/>
    </TTGlyph>
    <TTGlyph name="eight.osf" xMin="13" yMin="-15" xMax="583" yMax="648">
      <contour>
        <pt x="266" y="-15" on="1"/>
        <pt x="139" y="-15" on="0"/>
        <pt x="13" y="77" on="0"/>
        <pt x="13" y="141" on="1"/>
        <pt x="13" y="208" on="0"/>
        <pt x="108" y="285" on="0"/>
        <pt x="181" y="295" on="1"/>
        <pt x="142" y="316" on="0"/>
        <pt x="87" y="383" on="0"/>
        <pt x="87" y="437" on="1"/>
        <pt x="87" y="481" on="0"/>
        <pt x="126" y="558" on="0"/>
        <pt x="195" y="615" on="0"/>
        <pt x="291" y="648" on="0"/>
        <pt x="348" y="648" on="1"/>
        <pt x="408" y="648" on="0"/>
        <pt x="497" y="620" on="0"/>
        <pt x="554" y="575" on="0"/>
        <pt x="583" y="519" on="0"/>
        <pt x="583" y="491" on="1"/>
        <pt x="583" y="459" on="0"/>
        <pt x="557" y="408" on="0"/>
        <pt x="515" y="372" on="0"/>
        <pt x="458" y="349" on="0"/>
        <pt x="427" y="345" on="1"/>
        <pt x="470" y="322" on="0"/>
        <pt x="534" y="252" on="0"/>
        <pt x="534" y="193" on="1"/>
        <pt x="534" y="103" on="0"/>
        <pt x="388" y="-15" on="0"/>
      </contour>
      <contour>
        <pt x="256" y="492" on="1"/>
        <pt x="256" y="453" on="0"/>
        <pt x="324" y="401" on="0"/>
        <pt x="386" y="375" on="1"/>
        <pt x="417" y="400" on="0"/>
        <pt x="450" y="458" on="0"/>
        <pt x="450" y="489" on="1"/>
        <pt x="450" y="519" on="0"/>
        <pt x="404" y="575" on="0"/>
        <pt x="353" y="575" on="1"/>
        <pt x="310" y="575" on="0"/>
        <pt x="256" y="529" on="0"/>
      </contour>
      <contour>
        <pt x="146" y="149" on="1"/>
        <pt x="146" y="114" on="0"/>
        <pt x="204" y="58" on="0"/>
        <pt x="264" y="58" on="1"/>
        <pt x="308" y="58" on="0"/>
        <pt x="370" y="102" on="0"/>
        <pt x="370" y="142" on="1"/>
        <pt x="370" y="184" on="0"/>
        <pt x="286" y="237" on="0"/>
        <pt x="219" y="267" on="1"/>
        <pt x="184" y="241" on="0"/>
        <pt x="146" y="183" on="0"/>
      </contour>
    </TTGlyph>
    <TTGlyph name="eight.small" xMin="29" yMin="-12" xMax="416" yMax="470">
      <contour>
        <pt x="196" y="-12" on="1"/>
        <pt x="113" y="-12" on="0"/>
        <pt x="29" y="55" on="0"/>
        <pt x="29" y="101" on="1"/>
        <pt x="29" y="151" on="0"/>
        <pt x="98" y="207" on="0"/>
        <pt x="152" y="213" on="1"/>
        <pt x="122" y="228" on="0"/>
        <pt x="80" y="282" on="0"/>
        <pt x="80" y="320" on="1"/>
        <pt x="80" y="380" on="0"/>
        <pt x="181" y="470" on="0"/>
        <pt x="260" y="470" on="1"/>
        <pt x="300" y="470" on="0"/>
        <pt x="359" y="450" on="0"/>
        <pt x="397" y="418" on="0"/>
        <pt x="416" y="377" on="0"/>
        <pt x="416" y="357" on="1"/>
        <pt x="416" y="309" on="0"/>
        <pt x="347" y="255" on="0"/>
        <pt x="301" y="249" on="1"/>
        <pt x="334" y="231" on="0"/>
        <pt x="380" y="179" on="0"/>
        <pt x="380" y="136" on="1"/>
        <pt x="380" y="75" on="0"/>
        <pt x="280" y="-12" on="0"/>
      </contour>
      <contour>
        <pt x="200" y="357" on="1"/>
        <pt x="200" y="329" on="0"/>
        <pt x="240" y="290" on="0"/>
        <pt x="275" y="271" on="1"/>
        <pt x="297" y="290" on="0"/>
        <pt x="320" y="335" on="0"/>
        <pt x="320" y="358" on="1"/>
        <pt x="320" y="379" on="0"/>
        <pt x="293" y="418" on="0"/>
        <pt x="262" y="418" on="1"/>
        <pt x="236" y="418" on="0"/>
        <pt x="200" y="384" on="0"/>
      </contour>
      <contour>
        <pt x="123" y="104" on="1"/>
        <pt x="123" y="79" on="0"/>
        <pt x="157" y="41" on="0"/>
        <pt x="192" y="41" on="1"/>
        <pt x="220" y="41" on="0"/>
        <pt x="262" y="73" on="0"/>
        <pt x="262" y="102" on="1"/>
        <pt x="262" y="133" on="0"/>
        <pt x="213" y="172" on="0"/>
        <pt x="176" y="193" on="1"/>
        <pt x="151" y="173" on="0"/>
        <pt x="123" y="129" on="0"/>
      </contour>
    </TTGlyph>
    <TTGlyph name="eight.sup" xMin="90" yMin="233" xMax="477" yMax="715">
      <component glyphName="eight.small" x="61" y="245" flags="0x4"/>
    </TTGlyph>
    <TTGlyph name="eight.tab" xMin="29" yMin="-15" xMax="554" yMax="650">
      <contour>
        <pt x="255" y="-15" on="1"/>
        <pt x="143" y="-15" on="0"/>
        <pt x="29" y="78" on="0"/>
        <pt x="29" y="141" on="1"/>
        <pt x="29" y="208" on="0"/>
        <pt x="120" y="286" on="0"/>
        <pt x="192" y="296" on="1"/>
        <pt x="155" y="316" on="0"/>
        <pt x="100" y="388" on="0"/>
        <pt x="100" y="442" on="1"/>
        <pt x="100" y="484" on="0"/>
        <pt x="136" y="560" on="0"/>
        <pt x="199" y="617" on="0"/>
        <pt x="289" y="650" on="0"/>
        <pt x="343" y="650" on="1"/>
        <pt x="396" y="650" on="0"/>
        <pt x="476" y="622" on="0"/>
        <pt x="528" y="577" on="0"/>
        <pt x="554" y="521" on="0"/>
        <pt x="554" y="493" on="1"/>
        <pt x="554" y="461" on="0"/>
        <pt x="529" y="410" on="0"/>
        <pt x="488" y="374" on="0"/>
        <pt x="432" y="351" on="0"/>
        <pt x="402" y="346" on="1"/>
        <pt x="443" y="321" on="0"/>
        <pt x="503" y="250" on="0"/>
        <pt x="503" y="190" on="1"/>
        <pt x="503" y="147" on="0"/>
        <pt x="468" y="72" on="0"/>
        <pt x="404" y="17" on="0"/>
        <pt x="312" y="-15" on="0"/>
      </contour>
      <contour>
        <pt x="268" y="493" on="1"/>
        <pt x="268" y="456" on="0"/>
        <pt x="318" y="403" on="0"/>
        <pt x="363" y="378" on="1"/>
        <pt x="392" y="403" on="0"/>
        <pt x="424" y="462" on="0"/>
        <pt x="424" y="493" on="1"/>
        <pt x="424" y="523" on="0"/>
        <pt x="389" y="577" on="0"/>
        <pt x="346" y="577" on="1"/>
        <pt x="312" y="577" on="0"/>
        <pt x="268" y="531" on="0"/>
      </contour>
      <contour>
        <pt x="157" y="146" on="1"/>
        <pt x="157" y="111" on="0"/>
        <pt x="202" y="58" on="0"/>
        <pt x="250" y="58" on="1"/>
        <pt x="286" y="58" on="0"/>
        <pt x="339" y="103" on="0"/>
        <pt x="339" y="143" on="1"/>
        <pt x="339" y="183" on="0"/>
        <pt x="276" y="238" on="0"/>
        <pt x="227" y="266" on="1"/>
        <pt x="193" y="239" on="0"/>
        <pt x="157" y="179" on="0"/>
      </contour>
    </TTGlyph>
    <TTGlyph name="ellipsis" xMin="-2" yMin="-17" xMax="716" yMax="189">
      <component glyphName="period" x="0" y="0" flags="0x4"/>
      <component glyphName="period" x="263" y="0" flags="0x4"/>
      <component glyphName="period" x="527" y="0" flags="0x4"/>
    </TTGlyph>
    <TTGlyph name="emacron" xMin="20" yMin="-11" xMax="516" yMax="643">
      <component glyphName="e" x="0" y="0" flags="0x204"/>
      <component glyphName="macron" x="65" y="0" flags="0x4"/>
    </TTGlyph>
    <TTGlyph name="emdash" xMin="36" yMin="201" xMax="746" yMax="302">
      <contour>
        <pt x="36" y="201" on="1"/>
        <pt x="61" y="302" on="1"/>
        <pt x="746" y="302" on="1"/>
        <pt x="721" y="201" on="1"/>
      </contour>
    </TTGlyph>
    <TTGlyph name="endash" xMin="36" yMin="201" xMax="496" yMax="302">
      <contour>
        <pt x="36" y="201" on="1"/>
        <pt x="61" y="302" on="1"/>
        <pt x="496" y="302" on="1"/>
        <pt x="471" y="201" on="1"/>
      </contour>
    </TTGlyph>
    <TTGlyph name="endash.tab" xMin="59" yMin="266" xMax="519" yMax="367">
      <contour>
        <pt x="59" y="266" on="1"/>
        <pt x="84" y="367" on="1"/>
        <pt x="519" y="367" on="1"/>
        <pt x="494" y="266" on="1"/>
      </contour>
    </TTGlyph>
    <TTGlyph name="eogonek" xMin="20" yMin="-253" xMax="499" yMax="484">
      <contour>
        <pt x="220" y="-253" on="1"/>
        <pt x="195" y="-253" on="0"/>
        <pt x="147" y="-242" on="0"/>
        <pt x="110" y="-218" on="0"/>
        <pt x="88" y="-180" on="0"/>
        <pt x="88" y="-153" on="1"/>
        <pt x="88" y="-113" on="0"/>
        <pt x="148" y="-47" on="0"/>
        <pt x="215" y="-11" on="1"/>
        <pt x="125" y="-7" on="0"/>
        <pt x="20" y="96" on="0"/>
        <pt x="20" y="180" on="1"/>
        <pt x="20" y="239" on="0"/>
        <pt x="66" y="349" on="0"/>
        <pt x="148" y="433" on="0"/>
        <pt x="262" y="484" on="0"/>
        <pt x="330" y="484" on="1"/>
        <pt x="411" y="484" on="0"/>
        <pt x="499" y="415" on="0"/>
        <pt x="499" y="361" on="1"/>
        <pt x="499" y="292" on="0"/>
        <pt x="353" y="194" on="0"/>
        <pt x="190" y="193" on="1"/>
        <pt x="191" y="124" on="0"/>
        <pt x="253" y="77" on="0"/>
        <pt x="288" y="77" on="1"/>
        <pt x="319" y="77" on="0"/>
        <pt x="383" y="109" on="0"/>
        <pt x="419" y="149" on="1"/>
        <pt x="464" y="107" on="1"/>
        <pt x="443" y="83" on="0"/>
        <pt x="402" y="44" on="0"/>
        <pt x="371" y="24" on="1"/>
        <pt x="323" y="-8" on="1"/>
        <pt x="266" y="-45" on="0"/>
        <pt x="217" y="-103" on="0"/>
        <pt x="217" y="-128" on="1"/>
        <pt x="217" y="-144" on="0"/>
        <pt x="240" y="-173" on="0"/>
        <pt x="267" y="-173" on="1"/>
        <pt x="281" y="-173" on="0"/>
        <pt x="310" y="-166" on="0"/>
        <pt x="327" y="-156" on="1"/>
        <pt x="347" y="-215" on="1"/>
        <pt x="322" y="-231" on="0"/>
        <pt x="257" y="-253" on="0"/>
      </contour>
      <contour>
        <pt x="309" y="416" on="1"/>
        <pt x="288" y="416" on="0"/>
        <pt x="252" y="386" on="0"/>
        <pt x="222" y="339" on="0"/>
        <pt x="201" y="279" on="0"/>
        <pt x="195" y="248" on="1"/>
        <pt x="241" y="250" on="0"/>
        <pt x="300" y="273" on="0"/>
        <pt x="334" y="306" on="0"/>
        <pt x="348" y="346" on="0"/>
        <pt x="348" y="364" on="1"/>
        <pt x="348" y="389" on="0"/>
        <pt x="327" y="416" on="0"/>
      </contour>
    </TTGlyph>
    <TTGlyph name="equal" xMin="37" yMin="168" xMax="529" yMax="466">
      <contour>
        <pt x="87" y="369" on="1"/>
        <pt x="112" y="466" on="1"/>
        <pt x="529" y="466" on="1"/>
        <pt x="504" y="369" on="1"/>
      </contour>
      <contour>
        <pt x="37" y="168" on="1"/>
        <pt x="62" y="265" on="1"/>
        <pt x="479" y="265" on="1"/>
        <pt x="454" y="168" on="1"/>
      </contour>
    </TTGlyph>
    <TTGlyph name="equal.osf" xMin="29" yMin="137" xMax="521" yMax="435">
      <contour>
        <pt x="79" y="338" on="1"/>
        <pt x="104" y="435" on="1"/>
        <pt x="521" y="435" on="1"/>
        <pt x="496" y="338" on="1"/>
      </contour>
      <contour>
        <pt x="29" y="137" on="1"/>
        <pt x="54" y="234" on="1"/>
        <pt x="471" y="234" on="1"/>
        <pt x="446" y="137" on="1"/>
      </contour>
    </TTGlyph>
    <TTGlyph name="equal.tab" xMin="43" yMin="168" xMax="535" yMax="466">
      <contour>
        <pt x="93" y="369" on="1"/>
        <pt x="118" y="466" on="1"/>
        <pt x="535" y="466" on="1"/>
        <pt x="510" y="369" on="1"/>
      </contour>
      <contour>
        <pt x="43" y="168" on="1"/>
        <pt x="68" y="265" on="1"/>
        <pt x="485" y="265" on="1"/>
        <pt x="460" y="168" on="1"/>
      </contour>
    </TTGlyph>
    <TTGlyph name="eth" xMin="19" yMin="-11" xMax="585" yMax="703">
      <contour>
        <pt x="238" y="-11" on="1"/>
        <pt x="142" y="-11" on="0"/>
        <pt x="19" y="100" on="0"/>
        <pt x="19" y="187" on="1"/>
        <pt x="19" y="248" on="0"/>
        <pt x="61" y="347" on="0"/>
        <pt x="129" y="416" on="0"/>
        <pt x="215" y="454" on="0"/>
        <pt x="259" y="454" on="1"/>
        <pt x="308" y="454" on="0"/>
        <pt x="369" y="425" on="0"/>
        <pt x="385" y="407" on="1"/>
        <pt x="386" y="436" on="0"/>
        <pt x="375" y="501" on="0"/>
        <pt x="365" y="534" on="1"/>
        <pt x="241" y="495" on="1"/>
        <pt x="220" y="565" on="1"/>
        <pt x="337" y="601" on="1"/>
        <pt x="328" y="620" on="0"/>
        <pt x="307" y="654" on="0"/>
        <pt x="295" y="669" on="1"/>
        <pt x="396" y="703" on="1"/>
        <pt x="412" y="688" on="0"/>
        <pt x="441" y="655" on="0"/>
        <pt x="454" y="638" on="1"/>
        <pt x="564" y="672" on="1"/>
        <pt x="585" y="602" on="1"/>
        <pt x="494" y="574" on="1"/>
        <pt x="518" y="526" on="0"/>
        <pt x="544" y="421" on="0"/>
        <pt x="544" y="367" on="1"/>
        <pt x="544" y="275" on="0"/>
        <pt x="492" y="133" on="0"/>
        <pt x="407" y="38" on="0"/>
        <pt x="297" y="-11" on="0"/>
      </contour>
      <contour>
        <pt x="234" y="58" on="1"/>
        <pt x="262" y="58" on="0"/>
        <pt x="308" y="113" on="0"/>
        <pt x="341" y="191" on="0"/>
        <pt x="358" y="275" on="0"/>
        <pt x="358" y="304" on="1"/>
        <pt x="358" y="349" on="0"/>
        <pt x="329" y="374" on="0"/>
        <pt x="313" y="374" on="1"/>
        <pt x="285" y="374" on="0"/>
        <pt x="239" y="319" on="0"/>
        <pt x="206" y="241" on="0"/>
        <pt x="189" y="157" on="0"/>
        <pt x="189" y="128" on="1"/>
        <pt x="189" y="83" on="0"/>
        <pt x="218" y="58" on="0"/>
      </contour>
    </TTGlyph>
    <TTGlyph name="exclam" xMin="27" yMin="-17" xMax="347" yMax="684">
      <contour>
        <pt x="186" y="205" on="1"/>
        <pt x="110" y="219" on="1"/>
        <pt x="112" y="244" on="0"/>
        <pt x="117" y="299" on="0"/>
        <pt x="121" y="365" on="0"/>
        <pt x="126" y="450" on="0"/>
        <pt x="129" y="506" on="1"/>
        <pt x="131" y="541" on="0"/>
        <pt x="138" y="606" on="0"/>
        <pt x="160" y="655" on="0"/>
        <pt x="204" y="684" on="0"/>
        <pt x="241" y="684" on="1"/>
        <pt x="288" y="684" on="0"/>
        <pt x="347" y="632" on="0"/>
        <pt x="347" y="597" on="1"/>
        <pt x="347" y="569" on="0"/>
        <pt x="324" y="510" on="0"/>
        <pt x="308" y="476" on="1"/>
        <pt x="279" y="412" on="0"/>
        <pt x="220" y="283" on="0"/>
      </contour>
      <contour>
        <pt x="117" y="-17" on="1"/>
        <pt x="78" y="-17" on="0"/>
        <pt x="28" y="29" on="0"/>
        <pt x="27" y="62" on="1"/>
        <pt x="27" y="102" on="0"/>
        <pt x="82" y="159" on="0"/>
        <pt x="126" y="159" on="1"/>
        <pt x="165" y="159" on="0"/>
        <pt x="215" y="113" on="0"/>
        <pt x="216" y="80" on="1"/>
        <pt x="216" y="40" on="0"/>
        <pt x="160" y="-17" on="0"/>
      </contour>
    </TTGlyph>
    <TTGlyph name="exclamdown" xMin="17" yMin="-17" xMax="337" yMax="684">
      <contour>
        <pt x="247" y="684" on="1"/>
        <pt x="286" y="684" on="0"/>
        <pt x="336" y="638" on="0"/>
        <pt x="337" y="605" on="1"/>
        <pt x="337" y="565" on="0"/>
        <pt x="282" y="508" on="0"/>
        <pt x="238" y="508" on="1"/>
        <pt x="199" y="508" on="0"/>
        <pt x="149" y="554" on="0"/>
        <pt x="148" y="587" on="1"/>
        <pt x="148" y="627" on="0"/>
        <pt x="204" y="684" on="0"/>
      </contour>
      <contour>
        <pt x="178" y="462" on="1"/>
        <pt x="254" y="448" on="1"/>
        <pt x="252" y="423" on="0"/>
        <pt x="247" y="368" on="0"/>
        <pt x="243" y="302" on="0"/>
        <pt x="238" y="217" on="0"/>
        <pt x="235" y="161" on="1"/>
        <pt x="233" y="126" on="0"/>
        <pt x="226" y="61" on="0"/>
        <pt x="204" y="12" on="0"/>
        <pt x="160" y="-17" on="0"/>
        <pt x="123" y="-17" on="1"/>
        <pt x="76" y="-17" on="0"/>
        <pt x="17" y="35" on="0"/>
        <pt x="17" y="70" on="1"/>
        <pt x="17" y="98" on="0"/>
        <pt x="40" y="157" on="0"/>
        <pt x="56" y="191" on="1"/>
        <pt x="85" y="255" on="0"/>
        <pt x="144" y="384" on="0"/>
      </contour>
    </TTGlyph>
    <TTGlyph name="f" xMin="-145" yMin="-177" xMax="558" yMax="699">
      <contour>
        <pt x="-26" y="-177" on="1"/>
        <pt x="-83" y="-177" on="0"/>
        <pt x="-145" y="-122" on="0"/>
        <pt x="-145" y="-79" on="1"/>
        <pt x="-145" y="-50" on="0"/>
        <pt x="-108" y="-3" on="0"/>
        <pt x="-72" y="-3" on="1"/>
        <pt x="-44" y="-3" on="0"/>
        <pt x="-8" y="-37" on="0"/>
        <pt x="-8" y="-65" on="1"/>
        <pt x="-8" y="-87" on="0"/>
        <pt x="-22" y="-116" on="0"/>
        <pt x="-31" y="-125" on="1"/>
        <pt x="-5" y="-125" on="0"/>
        <pt x="25" y="-90" on="0"/>
        <pt x="34" y="-46" on="1"/>
        <pt x="119" y="382" on="1"/>
        <pt x="35" y="382" on="1"/>
        <pt x="54" y="465" on="1"/>
        <pt x="135" y="465" on="1"/>
        <pt x="162" y="575" on="0"/>
        <pt x="284" y="699" on="0"/>
        <pt x="394" y="699" on="1"/>
        <pt x="471" y="699" on="0"/>
        <pt x="558" y="637" on="0"/>
        <pt x="558" y="590" on="1"/>
        <pt x="558" y="559" on="0"/>
        <pt x="516" y="507" on="0"/>
        <pt x="476" y="507" on="1"/>
        <pt x="443" y="507" on="0"/>
        <pt x="400" y="543" on="0"/>
        <pt x="400" y="574" on="1"/>
        <pt x="400" y="592" on="0"/>
        <pt x="415" y="623" on="0"/>
        <pt x="428" y="633" on="1"/>
        <pt x="423" y="636" on="0"/>
        <pt x="408" y="639" on="0"/>
        <pt x="400" y="639" on="1"/>
        <pt x="367" y="639" on="0"/>
        <pt x="331" y="598" on="0"/>
        <pt x="321" y="550" on="1"/>
        <pt x="303" y="465" on="1"/>
        <pt x="440" y="465" on="1"/>
        <pt x="421" y="382" on="1"/>
        <pt x="285" y="382" on="1"/>
        <pt x="225" y="99" on="1"/>
        <pt x="198" y="-28" on="0"/>
        <pt x="73" y="-177" on="0"/>
      </contour>
    </TTGlyph>
    <TTGlyph name="f_b" xMin="-145" yMin="-177" xMax="877" yMax="699">
      <contour>
        <pt x="-26" y="-177" on="1"/>
        <pt x="-83" y="-177" on="0"/>
        <pt x="-145" y="-122" on="0"/>
        <pt x="-145" y="-79" on="1"/>
        <pt x="-145" y="-50" on="0"/>
        <pt x="-108" y="-3" on="0"/>
        <pt x="-72" y="-3" on="1"/>
        <pt x="-44" y="-3" on="0"/>
        <pt x="-8" y="-37" on="0"/>
        <pt x="-8" y="-65" on="1"/>
        <pt x="-8" y="-87" on="0"/>
        <pt x="-22" y="-116" on="0"/>
        <pt x="-31" y="-125" on="1"/>
        <pt x="-5" y="-125" on="0"/>
        <pt x="25" y="-90" on="0"/>
        <pt x="34" y="-46" on="1"/>
        <pt x="119" y="382" on="1"/>
        <pt x="35" y="382" on="1"/>
        <pt x="54" y="465" on="1"/>
        <pt x="136" y="465" on="1"/>
        <pt x="164" y="582" on="0"/>
        <pt x="297" y="699" on="0"/>
        <pt x="407" y="699" on="1"/>
        <pt x="439" y="699" on="0"/>
        <pt x="493" y="690" on="0"/>
        <pt x="514" y="681" on="1"/>
        <pt x="668" y="697" on="1"/>
        <pt x="557" y="345" on="1"/>
        <pt x="565" y="342" on="1"/>
        <pt x="603" y="414" on="0"/>
        <pt x="691" y="484" on="0"/>
        <pt x="742" y="484" on="1"/>
        <pt x="812" y="484" on="0"/>
        <pt x="877" y="391" on="0"/>
        <pt x="877" y="321" on="1"/>
        <pt x="877" y="269" on="0"/>
        <pt x="839" y="152" on="0"/>
        <pt x="766" y="54" on="0"/>
        <pt x="654" y="-11" on="0"/>
        <pt x="581" y="-11" on="1"/>
        <pt x="482" y="-11" on="0"/>
        <pt x="377" y="93" on="0"/>
        <pt x="377" y="175" on="1"/>
        <pt x="377" y="206" on="0"/>
        <pt x="395" y="300" on="0"/>
        <pt x="413" y="368" on="1"/>
        <pt x="417" y="382" on="1"/>
        <pt x="285" y="382" on="1"/>
        <pt x="225" y="99" on="1"/>
        <pt x="198" y="-28" on="0"/>
        <pt x="73" y="-177" on="0"/>
      </contour>
      <contour>
        <pt x="305" y="475" on="1"/>
        <pt x="303" y="465" on="1"/>
        <pt x="439" y="465" on="1"/>
        <pt x="454" y="522" on="1"/>
        <pt x="442" y="531" on="0"/>
        <pt x="429" y="558" on="0"/>
        <pt x="429" y="574" on="1"/>
        <pt x="429" y="592" on="0"/>
        <pt x="444" y="623" on="0"/>
        <pt x="457" y="633" on="1"/>
        <pt x="453" y="635" on="0"/>
        <pt x="432" y="639" on="0"/>
        <pt x="417" y="639" on="1"/>
        <pt x="388" y="639" on="0"/>
        <pt x="351" y="618" on="0"/>
        <pt x="329" y="577" on="0"/>
        <pt x="314" y="515" on="0"/>
      </contour>
      <contour>
        <pt x="581" y="65" on="1"/>
        <pt x="609" y="65" on="0"/>
        <pt x="655" y="118" on="0"/>
        <pt x="689" y="194" on="0"/>
        <pt x="708" y="278" on="0"/>
        <pt x="708" y="308" on="1"/>
        <pt x="708" y="346" on="0"/>
        <pt x="681" y="380" on="0"/>
        <pt x="660" y="380" on="1"/>
        <pt x="635" y="380" on="0"/>
        <pt x="590" y="330" on="0"/>
        <pt x="556" y="256" on="0"/>
        <pt x="536" y="169" on="0"/>
        <pt x="536" y="133" on="1"/>
        <pt x="536" y="99" on="0"/>
        <pt x="563" y="65" on="0"/>
      </contour>
    </TTGlyph>
</ttFont>
